<?xml version="1.0" standalone="no"?>
<!DOCTYPE svg PUBLIC "-//W3C//DTD SVG 1.1//EN" "http://www.w3.org/Graphics/SVG/1.1/DTD/svg11.dtd" >
<svg xmlns="http://www.w3.org/2000/svg" xmlns:xlink="http://www.w3.org/1999/xlink" version="1.1">
<metadata></metadata>
<defs>
<font id="sentasansbold_italic" horiz-adv-x="637" >
<font-face units-per-em="1000" ascent="750" descent="-250" />
<missing-glyph horiz-adv-x="370" />
<glyph horiz-adv-x="0" />
<glyph horiz-adv-x="0" />
<glyph unicode="&#xd;" horiz-adv-x="250" />
<glyph unicode=" "  horiz-adv-x="370" />
<glyph unicode="&#x09;" horiz-adv-x="370" />
<glyph unicode="&#xa0;" horiz-adv-x="370" />
<glyph unicode="!" horiz-adv-x="291" d="M289 258h-148l83 420h208zM278 105q-12 -44 -51 -74.5t-82 -30.5t-65.5 30.5t-11.5 74.5q12 44 51 74.5t82 30.5t65.5 -30.5t11.5 -74.5z" />
<glyph unicode="&#x22;" horiz-adv-x="359" d="M202 677h149l-122 -242h-92zM371 677h149l-122 -242h-92z" />
<glyph unicode="#" horiz-adv-x="919" d="M796 676h195l-104 -184h133l-51 -90h-133l-72 -128h139l-51 -90h-138l-104 -184h-195l104 184h-111l-104 -184h-195l104 184h-134l52 90h132l72 128h-138l51 90h138l104 184h195l-104 -184h111zM530 402l-72 -128h111l72 128h-111z" />
<glyph unicode="$" horiz-adv-x="672" d="M454 267l-44 -165q90 22 107 87q11 41 -63 78zM356 538q-5 -18 11.5 -32.5t52.5 -30.5l36 135q-84 -14 -100 -72zM699 214q-16 -59 -66 -105.5t-113.5 -71.5t-135.5 -33l-22 -81h-90l21 78q-76 6 -135.5 41t-88.5 103l97 59q47 -94 153 -106l55 203q-20 8 -32.5 13.5 t-32 14t-31.5 15.5t-28.5 17t-26 19.5l-21 21t-17 23.5t-10 26.5t-4 30.5t5.5 33q22 84 110 132.5t194 55.5l21 77l90 1l-22 -82q127 -23 174 -113l-90 -55q-36 68 -107 80l-45 -167q21 -8 37 -14.5t36 -16t35 -18t31 -20.5t27 -24t20 -27.5t13 -31.5t4 -36t-6 -42z" />
<glyph unicode="%" horiz-adv-x="932" d="M397 642q-67 0 -94 -100q-12 -52 -1 -76t41 -24q31 0 55.5 25t37.5 75q27 100 -39 100zM329 391q-81 0 -127 39.5t-27 111.5t85.5 111.5t149.5 39.5t128 -39.5t26 -111.5t-86.5 -111.5t-148.5 -39.5zM50 0l790 677h222l-790 -677h-222zM716 35q66 0 94 100 q27 100 -40 100q-66 0 -93 -100q-13 -52 -2 -76t41 -24zM783 286q84 0 129 -39.5t26 -111.5t-87 -111.5t-149 -39.5t-126.5 39.5t-26.5 111.5t85.5 111.5t148.5 39.5z" />
<glyph unicode="&#x26;" horiz-adv-x="748" d="M323 79q61 0 143 40q-13 36 -42.5 113t-40.5 108q-105 -71 -126 -146q-14 -53 2.5 -84t63.5 -31zM559 683q-32 0 -51 -33t-1 -78l21 -58q72 52 87 105q17 64 -56 64zM661 153l56 -153h-205q-6 16 -16 42q-129 -71 -239 -71q-97 0 -151 54t-32 136q19 69 88 126t193 126 q-27 70 -37 98q-23 59 -10 107q18 67 84 108t161 41t131 -36.5t18 -102.5q-27 -96 -148 -183l81 -221q31 23 93 71l25 -65q-44 -40 -92 -77z" />
<glyph unicode="'" horiz-adv-x="190" d="M202 677h149l-122 -242h-92z" />
<glyph unicode="(" horiz-adv-x="329" d="M135 353q27 101 67.5 181.5t81.5 128t87 79t82.5 44t69.5 13.5l-26 -98q-25 -5 -48 -30.5t-57 -105t-69 -212.5q-35 -132 -44 -212t0 -105.5t31 -30.5l-26 -99q-33 2 -63 14t-59 44t-44.5 79.5t-12.5 127.5t30 182z" />
<glyph unicode=")" horiz-adv-x="329" d="M384 353q-27 -102 -67.5 -182t-81.5 -127.5t-87 -79.5t-82.5 -44t-70.5 -14l27 99q39 8 80.5 82t92.5 266q36 132 45 212t-0.5 105.5t-31.5 30.5l27 98q33 -1 63 -13.5t59 -44t44.5 -79t12.5 -128t-30 -181.5z" />
<glyph unicode="*" horiz-adv-x="307" d="M365 677l44 -30l-44 -53h61l-16 -60h-61l16 -52l-60 -30l-16 52l-45 -52l-44 30l45 52h-61l16 60h61l-16 53l60 30l16 -53z" />
<glyph unicode="+" horiz-adv-x="415" d="M295 475h80l-34 -127h127l-22 -80h-127l-34 -127h-80l34 127h-127l22 80h127z" />
<glyph unicode="," horiz-adv-x="291" d="M113 6q-28 11 -40.5 38t-3.5 61q11 43 50 74t83 31q43 0 65.5 -30.5t11.5 -74.5q-27 -98 -106 -165t-166 -67l19 71q22 0 49.5 17.5t37.5 44.5z" />
<glyph unicode="-" horiz-adv-x="415" d="M111 263l24 90h334l-24 -90h-334z" />
<glyph unicode="." horiz-adv-x="290" d="M278 105q-12 -44 -51 -74.5t-82 -30.5t-65.5 30.5t-11.5 74.5q12 44 51 74.5t82 30.5t65.5 -30.5t11.5 -74.5z" />
<glyph unicode="/" horiz-adv-x="831" d="M810 676h182l-790 -676h-182z" />
<glyph unicode="0" horiz-adv-x="647" d="M343 72q54 0 91 57t83 209q39 154 30.5 209.5t-62.5 55.5t-94 -58t-80 -207q-35 -152 -28.5 -209t60.5 -57zM320 -14q-133 0 -189.5 87.5t-9.5 264.5q48 176 152 263t236 89q64 -1 109.5 -19t77 -59t33.5 -108t-22 -166q-95 -352 -387 -352z" />
<glyph unicode="1" horiz-adv-x="308" d="M337 677h112l-181 -677h-192l130 487h-66l24 88q50 0 99.5 30t73.5 72z" />
<glyph unicode="2" horiz-adv-x="599" d="M264 483l-88 61q55 71 136 108.5t173 37.5q133 0 187.5 -49.5t30.5 -137.5q-13 -47 -54 -85t-87.5 -60.5t-116.5 -47.5q-54 -19 -83 -31t-65.5 -31t-56 -41t-27.5 -49h389l-42 -158h-511v1l28 105q16 60 55.5 105.5t86.5 70.5t100.5 49t98.5 43t80.5 50.5t46.5 72.5 q14 52 -8.5 80.5t-77.5 28.5q-52 0 -104 -34.5t-91 -88.5z" />
<glyph unicode="3" horiz-adv-x="630" d="M313 -14q-201 0 -248 142l100 45q35 -98 129 -98q62 0 107.5 34t60.5 91q17 62 -11.5 95t-125.5 33l24 90q87 0 127 24t53 73q12 45 -12 68t-73 23q-45 0 -80 -24.5t-72 -74.5l-77 40q57 75 127 109t166 34q115 0 170 -45.5t34 -122.5q-28 -106 -133 -140 q110 -50 78 -168q-29 -109 -125.5 -168.5t-218.5 -59.5z" />
<glyph unicode="4" horiz-adv-x="602" d="M532 677h192l-107 -399h59l-24 -90h-59l-51 -188h-191l50 188h-331l25 90zM496 541l-288 -263h217z" />
<glyph unicode="5" horiz-adv-x="616" d="M59 107l92 52q30 -84 151 -84q59 0 106.5 33.5t63.5 96.5q18 64 -19 98t-116 34q-97 0 -186 -31l100 371h497l-42 -160h-409l-29 -110q42 9 100 9q156 0 228.5 -53t43.5 -162q-29 -107 -125 -161t-230 -54q-100 0 -157 36t-69 85z" />
<glyph unicode="6" horiz-adv-x="633" d="M429 385q-55 0 -96.5 -43t-60.5 -112q-20 -68 0 -111.5t74 -43.5q55 0 97 42t61 113q42 155 -75 155zM332 -14q-305 0 -214 340q47 175 154.5 269.5t265.5 94.5q146 0 196 -95l-91 -59q-41 66 -126 66q-80 0 -142.5 -48t-87.5 -142q67 42 161 42q122 0 183.5 -57 t30.5 -172q-29 -108 -121.5 -173.5t-208.5 -65.5z" />
<glyph unicode="7" horiz-adv-x="584" d="M201 677h544l-27 -100l-461 -577h-114l415 519h-399z" />
<glyph unicode="8" horiz-adv-x="704" d="M369 51q55 0 100.5 34t59.5 88q11 39 -12 67.5t-89 47.5q-46 14 -75 25q-74 -59 -94 -132q-15 -54 16.5 -92t93.5 -38zM518 622q-53 0 -88.5 -26t-44.5 -60q-10 -36 20.5 -55.5t101.5 -39.5q8 -3 41 -13q50 40 65 95q11 44 -13.5 71.5t-81.5 27.5zM638 392q66 -33 87 -78 t2 -115q-24 -87 -123.5 -150t-250.5 -63q-152 0 -223.5 57t-45.5 156q13 50 65 89.5t121 62.5q-96 60 -70 160q22 83 113.5 131t225.5 48q133 0 197 -47.5t42 -131.5q-21 -79 -140 -119z" />
<glyph unicode="9" horiz-adv-x="633" d="M385 292q55 0 97.5 43t60.5 112t-1 112t-74 43t-97 -42t-61 -113q-41 -155 75 -155zM482 690q305 0 214 -339q-47 -175 -154.5 -270t-264.5 -95q-145 0 -197 96l87 56q43 -67 129 -67q80 0 143.5 50t88.5 144q-71 -43 -162 -43q-121 0 -183 57.5t-31 172.5 q29 108 121 173t209 65z" />
<glyph unicode=":" horiz-adv-x="290" d="M278 105q-12 -44 -51 -74.5t-82 -30.5t-65.5 30.5t-11.5 74.5q12 44 51 74.5t82 30.5t65.5 -30.5t11.5 -74.5zM365 432q-11 -43 -50 -74t-83 -31q-43 0 -65.5 30.5t-10.5 74.5q11 43 50.5 73.5t82.5 30.5t65.5 -30.5t10.5 -73.5z" />
<glyph unicode=";" horiz-adv-x="291" d="M113 6q-28 11 -40.5 38t-3.5 61q12 44 51 74.5t82 30.5t65.5 -30.5t11.5 -74.5q-27 -98 -106 -165t-166 -67l19 71q22 0 49.5 17.5t37.5 44.5zM366 432q-11 -43 -50 -74t-83 -31q-43 0 -65.5 30.5t-10.5 74.5q11 43 50.5 73.5t82.5 30.5t65.5 -30.5t10.5 -73.5z" />
<glyph unicode="&#x3c;" horiz-adv-x="381" d="M512 641l-28 -105l-260 -206l150 -205l-28 -105l-227 310z" />
<glyph unicode="=" horiz-adv-x="415" d="M153 421h334l-21 -80h-334zM93 194l21 80h334l-22 -80h-333z" />
<glyph unicode="&#x3e;" horiz-adv-x="381" d="M184 536l28 105l227 -311l-394 -310l28 105l261 205z" />
<glyph unicode="?" horiz-adv-x="584" d="M462 678q117 0 181.5 -43.5t48.5 -117.5q-9 -39 -34.5 -67t-57 -45.5t-63 -34.5t-58 -45.5t-36.5 -66.5h-176q15 55 44 91t61.5 53t64 31t55.5 36.5t32 56.5t-12 53.5t-68 19.5q-40 0 -82.5 -30t-78.5 -80l-106 61q117 128 285 128zM418 105q-11 -43 -50 -74t-83 -31 q-43 0 -65.5 30.5t-10.5 74.5q11 43 50 74t83 31q43 0 65.5 -31t10.5 -74z" />
<glyph unicode="@" horiz-adv-x="882" d="M473 144q65 0 100 124q33 125 -34 125q-66 0 -99 -125q-35 -124 33 -124zM617 434h131l-70 -263q-7 -26 -0.5 -38.5t19.5 -12.5q41 0 81 150q36 135 -11.5 200t-187.5 65q-125 0 -211 -70t-120 -195q-35 -133 10.5 -206t195.5 -73q126 0 201 43l108 -33 q-146 -105 -334 -105q-201 0 -287.5 97t-38.5 277q31 116 114 201t184 124.5t205 39.5q190 0 278 -93t39 -272q-25 -93 -90 -152t-151 -59q-142 0 -147 69q-46 -34 -105 -34q-78 0 -116 45.5t-16 128.5q23 83 85 128.5t141 45.5q58 0 85 -39z" />
<glyph unicode="A" horiz-adv-x="805" d="M486 677h172l127 -677h-200l-33 160h-320l-108 -160h-104zM479 525l-186 -274h240z" />
<glyph unicode="B" horiz-adv-x="760" d="M255 90h146q154 0 183 108q14 53 -16.5 80.5t-108.5 27.5h-146zM472 589h-83l-52 -193h83q78 0 112.5 22t48.5 73q13 52 -9 75t-100 23zM783 198q-23 -87 -103.5 -142.5t-207.5 -55.5h-432l181 677h339q124 0 172.5 -53t26.5 -137q-19 -67 -67 -107q60 -19 84 -69t7 -113 z" />
<glyph unicode="C" horiz-adv-x="746" d="M588 599q-89 0 -160 -69t-104 -192q-33 -122 1 -192t122 -70q115 0 228 91l59 -55q-150 -126 -311 -126q-82 0 -146.5 20.5t-109.5 63t-57 109t11 159.5q32 119 109.5 200.5t173.5 116.5t208 35q100 0 162 -47t80 -123l-92 -40q-20 63 -62 91t-112 28z" />
<glyph unicode="D" horiz-adv-x="772" d="M255 90h110q104 0 174 64t102 184q33 120 -3.5 184.5t-143.5 64.5h-106zM221 677h349q166 0 236.5 -84.5t25.5 -253.5q-47 -170 -162 -254.5t-281 -84.5h-349z" />
<glyph unicode="E" horiz-adv-x="661" d="M221 677h581l-24 -90h-390l-51 -191h216l-25 -90h-215l-58 -216h390l-24 -90h-581z" />
<glyph unicode="F" horiz-adv-x="650" d="M221 677h580l-24 -90h-391l-52 -191h217l-24 -90h-217l-82 -306h-188z" />
<glyph unicode="G" horiz-adv-x="769" d="M729 0h-132l7 28q-89 -42 -180 -42q-82 0 -146.5 20.5t-110 63t-57.5 109t11 159.5q32 119 109.5 200.5t173.5 116.5t208 35q87 0 150.5 -45.5t92.5 -124.5l-95 -41q-33 120 -172 120q-89 0 -160 -69t-104 -192q-33 -122 1 -192t123 -70q97 0 183 51l40 151h-98l24 91 h231z" />
<glyph unicode="H" horiz-adv-x="763" d="M713 677h191l-181 -677h-191l82 306h-301l-82 -306h-191l181 677h191l-75 -281h301z" />
<glyph unicode="I" horiz-adv-x="271" d="M40 0l181 677h191l-181 -677h-191z" />
<glyph unicode="J" horiz-adv-x="726" d="M562 249l119 442h189l-114 -429q-33 -122 -139.5 -192t-261.5 -70q-148 0 -213.5 60.5t-48.5 176.5l177 42q-17 -93 9 -140.5t91 -47.5q69 0 121 42t71 116z" />
<glyph unicode="K" horiz-adv-x="827" d="M746 677h142l-305 -216l223 -461h-226l-162 344l-117 -83l-70 -261h-191l181 677h191l-78 -292z" />
<glyph unicode="L" horiz-adv-x="664" d="M221 677h191l-157 -587h403l-25 -90h-593z" />
<glyph unicode="M" horiz-adv-x="880" d="M820 677h201l-182 -677h-191l128 478l-348 -478h-94l-87 437l-117 -437h-90l181 677h193l87 -438z" />
<glyph unicode="N" horiz-adv-x="685" d="M221 677h180l208 -475l127 475h90l-181 -677h-174l-209 491l-132 -491h-90z" />
<glyph unicode="O" horiz-adv-x="855" d="M448 76q193 0 265 262q70 261 -125 261q-194 0 -265 -261q-70 -262 125 -262zM424 -14q-81 0 -146.5 23.5t-108 68.5t-56.5 110.5t8 149.5q44 161 183.5 256.5t307.5 95.5q167 0 256 -95.5t47 -256.5q-30 -108 -106 -189.5t-176 -122t-209 -40.5z" />
<glyph unicode="P" horiz-adv-x="701" d="M329 365h67q91 0 143 25.5t68 85.5q17 62 -17 86.5t-135 24.5h-67zM304 275l-73 -275h-191l181 677h342q147 0 204 -52.5t31 -148.5q-25 -96 -111 -148.5t-232 -52.5h-151z" />
<glyph unicode="Q" horiz-adv-x="856" d="M448 76q52 0 97 20l-116 158h211l26 -37q30 55 47 121q70 261 -125 261q-194 0 -264 -261q-70 -262 124 -262zM754 98l72 -98h-209l-13 17q-84 -31 -180 -31q-168 0 -256.5 95t-46.5 257q30 108 106.5 189t176.5 122t209 41q81 0 146.5 -24t107.5 -69t56 -110.5 t-8 -148.5q-39 -146 -161 -240z" />
<glyph unicode="R" horiz-adv-x="768" d="M388 587l-59 -222h67q91 0 143 25.5t68 85.5q17 62 -17 86.5t-135 24.5h-67zM625 299l113 -299h-217l-100 275h-117l-73 -275h-191l181 677h342q147 0 204 -52.5t31 -148.5q-34 -130 -173 -177z" />
<glyph unicode="S" horiz-adv-x="752" d="M429 525q9 -28 53.5 -52.5t99 -46t105.5 -48.5t77.5 -72.5t10.5 -105.5q-18 -68 -80.5 -117.5t-146 -73t-178.5 -23.5q-221 0 -305 145l123 75q28 -58 81.5 -91t127.5 -33q81 0 122 29t30 70q-8 29 -53 56t-100.5 49.5t-108 49.5t-81 69t-14.5 96q25 92 125.5 140.5 t230.5 48.5q89 0 164 -29t101 -89l-115 -60q-20 44 -59 66t-82 22q-64 0 -100 -24.5t-28 -50.5z" />
<glyph unicode="T" horiz-adv-x="715" d="M211 677h654l-24 -90h-231l-158 -587h-190l157 587h-232z" />
<glyph unicode="U" horiz-adv-x="777" d="M384 -14q-101 0 -162.5 26t-88 57t-25.5 101.5t10 111.5t34 136v1l69 258h191l-109 -408q-12 -52 -10.5 -94.5t31.5 -69t85 -26.5q82 0 134 53t74 137l110 408h190l-69 -258q-17 -65 -27 -97.5t-31 -87t-41 -83t-55 -65.5t-76.5 -55.5t-101 -31.5t-132.5 -13z" />
<glyph unicode="V" horiz-adv-x="758" d="M815 677h104l-466 -677h-124l-128 677h204l91 -463z" />
<glyph unicode="W" horiz-adv-x="1141" d="M1198 677h103l-466 -677h-125l-45 325l-205 -325h-131l-128 677h204l93 -470l149 244l-32 226h198l71 -468z" />
<glyph unicode="X" horiz-adv-x="791" d="M804 677h118l-336 -309l174 -368h-223l-117 246l-268 -246h-122l354 323l-169 354h224l110 -233z" />
<glyph unicode="Y" horiz-adv-x="795" d="M441 677l124 -292l279 292h112l-367 -389l-77 -288h-191l73 272l-193 405h240z" />
<glyph unicode="Z" horiz-adv-x="717" d="M221 677h637l-16 -63l-541 -524h400l-24 -90h-637l19 72l531 515h-393z" />
<glyph unicode="[" horiz-adv-x="320" d="M254 799h300l-16 -60h-132l-207 -772h132l-17 -60h-299z" />
<glyph unicode="\" horiz-adv-x="831" d="M201 676h182l428 -676h-182z" />
<glyph unicode="]" horiz-adv-x="320" d="M194 799h300l-240 -892h-299l16 60h131l207 772h-131z" />
<glyph unicode="^" horiz-adv-x="364" d="M363 677l78 -275h-69l-42 150l-124 -150h-68z" />
<glyph unicode="_" horiz-adv-x="533" d="M-30 -116l21 80h532l-21 -80h-532z" />
<glyph unicode="`" horiz-adv-x="145" d="M154 664h146l9 -144h-100z" />
<glyph unicode="a" horiz-adv-x="648" d="M338 55q93 0 141 177q46 176 -47 176t-141 -176q-48 -177 47 -177zM530 422l11 43h191l-125 -465h-190l9 33q-65 -47 -148 -47q-111 0 -164 64t-22 181t119 181.5t199 64.5q82 0 120 -55z" />
<glyph unicode="b" horiz-adv-x="649" d="M435 409q-95 0 -141 -177q-48 -176 46 -176t142 176q46 177 -47 177zM242 42l-11 -43h-191l182 678h191l-66 -246q62 47 148 47q111 0 164 -64t22 -181t-119 -182t-199 -65q-82 0 -121 56z" />
<glyph unicode="c" horiz-adv-x="541" d="M459 135l81 -28q-44 -64 -101.5 -92.5t-138.5 -28.5q-55 0 -98.5 13.5t-75.5 42.5t-40.5 76.5t7.5 114.5q34 126 126 185t212 59q73 0 115.5 -27.5t60.5 -85.5l-91 -49q-27 81 -92 81q-42 0 -84.5 -43t-63.5 -122q-19 -85 -1 -125.5t61 -40.5q76 0 123 70z" />
<glyph unicode="d" horiz-adv-x="650" d="M480 232q48 177 -46 177t-142 -177q-46 -176 47 -176q95 0 141 176zM791 677l-182 -678h-191l11 43q-68 -56 -150 -56q-111 0 -164 64.5t-22 182.5q31 117 119 181t199 64q86 0 123 -47l66 246h191z" />
<glyph unicode="e" d="M306 262h164q37 136 -45 136t-119 -136zM446 477q127 0 188.5 -70.5t33.5 -175.5l-14 -53h-370q-13 -48 5.5 -80.5t65.5 -32.5q81 0 147 63l85 -45q-90 -97 -263 -97q-62 0 -110.5 14t-83 44t-44.5 76.5t6 110.5q28 105 127.5 175.5t226.5 70.5z" />
<glyph unicode="f" horiz-adv-x="381" d="M547 697l-21 -78q-47 4 -71 -13.5t-39 -74.5l-19 -67h78l-24 -90h-78l-100 -374h-190l100 374h-63l24 90h63l16 60q54 197 324 173z" />
<glyph unicode="g" horiz-adv-x="639" d="M288 231q-47 -176 44 -176q90 0 137 176q48 177 -43 177q-90 0 -138 -177zM521 422l11 43h191l-120 -448q-33 -121 -125.5 -187t-229.5 -66q-179 0 -198 132l140 27q0 -32 19.5 -54t58.5 -22q99 0 135 137l13 49q-62 -47 -142 -47q-109 0 -161 64t-21 181t118 181.5 t196 64.5q76 0 115 -55z" />
<glyph unicode="h" horiz-adv-x="635" d="M659 238l-64 -238h-200l75 279q16 63 4.5 89.5t-55.5 26.5q-37 0 -66.5 -26t-43.5 -78l-78 -291h-191l182 677h190l-70 -260q81 61 174 61q206 0 143 -240z" />
<glyph unicode="i" horiz-adv-x="270" d="M40 0l124 464h191l-125 -464h-190zM408 644q-11 -41 -48.5 -70.5t-78.5 -29.5t-62.5 29.5t-10.5 70.5q10 41 47.5 70.5t78.5 29.5q42 0 63.5 -29.5t10.5 -70.5z" />
<glyph unicode="j" horiz-adv-x="272" d="M28 -48l137 512h190l-122 -456q-33 -125 -113.5 -184.5t-219.5 -59.5l21 78q34 0 64 30t43 80zM409 644q-11 -41 -48.5 -70.5t-78.5 -29.5t-62.5 29.5t-10.5 70.5t48 70.5t79 29.5q41 0 62.5 -29.5t10.5 -70.5z" />
<glyph unicode="k" horiz-adv-x="627" d="M221 677h191l-109 -408l229 195h125l-182 -155l122 -309h-216l-67 172l-48 -41l-35 -131h-191z" />
<glyph unicode="l" horiz-adv-x="271" d="M40 0l181 677h191l-181 -677h-191z" />
<glyph unicode="m" horiz-adv-x="1000" d="M672 291l-77 -291h-200l75 279q16 63 4.5 89.5t-55.5 26.5q-37 0 -66.5 -26t-43.5 -78l-78 -291h-191l124 464h191l-13 -47q79 61 174 61q129 0 152 -96q92 96 212 96q208 0 143 -240l-64 -238h-200l75 279q17 63 5 89.5t-56 26.5q-37 0 -67 -26t-44 -78z" />
<glyph unicode="n" horiz-adv-x="635" d="M658 238l-63 -238h-200l75 279q16 63 4.5 89.5t-55.5 26.5q-37 0 -66.5 -26t-43.5 -78l-78 -291h-191l124 464h191l-13 -47q79 61 174 61q207 0 142 -240z" />
<glyph unicode="o" d="M334 55q86 0 131 165l6 24q45 164 -43 164q-86 0 -131 -164l-6 -24q-45 -165 43 -165zM447 477q120 0 187 -63t35 -182q-31 -117 -132.5 -181.5t-221.5 -64.5q-119 0 -186 64.5t-36 181.5q32 119 133 182t221 63z" />
<glyph unicode="p" horiz-adv-x="650" d="M294 231q-48 -176 46 -176t142 176q46 177 -47 177q-95 0 -141 -177zM-16 -213l181 678h191l-11 -43q68 55 150 55q111 0 164 -64.5t22 -181.5t-119 -181.5t-199 -64.5q-85 0 -123 48l-65 -246h-191z" />
<glyph unicode="q" horiz-adv-x="650" d="M339 55q93 0 141 176q48 177 -47 177q-93 0 -141 -177q-48 -176 47 -176zM531 422l12 43h191l-182 -678h-191l66 246q-63 -48 -148 -48q-111 0 -164.5 64.5t-21.5 181.5q31 117 119 181.5t199 64.5q82 0 120 -55z" />
<glyph unicode="r" horiz-adv-x="432" d="M503 478q2 0 12.5 -1t13.5 -2l-22 -81q-64 17 -124.5 -18t-81.5 -112l-70 -264h-191l124 464h191l-10 -37q61 51 158 51z" />
<glyph unicode="s" horiz-adv-x="563" d="M321 353q-5 -20 23 -33t70.5 -23t83.5 -25t63.5 -48t9.5 -82q-17 -65 -98.5 -110.5t-202.5 -45.5q-166 0 -227 97l101 69q13 -27 44 -52.5t68 -29.5q54 -5 83 7t25 44q-2 15 -32 27.5t-68.5 24t-75 28.5t-55 52t-5.5 84q16 60 94.5 100t183.5 40q70 0 124.5 -21t73.5 -65 l-107 -53q-34 57 -98 57q-66 0 -78 -42z" />
<glyph unicode="t" horiz-adv-x="362" d="M144 464h17q43 0 81.5 30t49.5 73l5 18h120l-32 -121h70l-24 -90h-70l-58 -215q-12 -43 3 -56t49 -13l-24 -90h-124q-60 0 -87.5 41.5t-11.5 101.5l62 231h-50z" />
<glyph unicode="u" horiz-adv-x="635" d="M101 226l64 238h200l-75 -279q-17 -62 -5 -89t56 -27q37 0 66.5 26t43.5 78l78 291h190l-124 -464h-190l12 48q-77 -61 -173 -61q-208 0 -143 239z" />
<glyph unicode="v" horiz-adv-x="626" d="M621 464h109l-297 -464h-225l-64 464h201l49 -354z" />
<glyph unicode="w" horiz-adv-x="989" d="M983 464h110l-297 -464h-225l-25 177l-113 -177h-225l-64 464h201l49 -354l133 208l-20 146h201l48 -354z" />
<glyph unicode="x" horiz-adv-x="633" d="M597 464h130l-248 -213l123 -251h-214l-68 135l-157 -135h-133l251 214l-126 250h219l66 -134z" />
<glyph unicode="y" horiz-adv-x="636" d="M720 465l-120 -447q-32 -121 -124.5 -187t-229.5 -66q-179 0 -198 133l140 26q0 -32 19.5 -54t58.5 -22q99 0 135 138l17 62q-79 -61 -173 -61q-208 0 -143 240l64 238h199l-74 -279q-17 -63 -5 -89.5t56 -26.5q37 0 66.5 26t43.5 78l78 291h190z" />
<glyph unicode="z" horiz-adv-x="540" d="M164 464h460l-25 -95l-321 -285h244l-22 -84h-460l25 95l322 285h-245z" />
<glyph unicode="{" horiz-adv-x="360" d="M127 324l16 58q38 17 57 39t28 57l56 209q13 46 54.5 79t88.5 33h187l-24 -90h-55q-23 0 -44 -16.5t-28 -39.5l-50 -189q-12 -41 -45.5 -72.5t-68.5 -38.5q31 -7 48 -38.5t6 -72.5l-51 -189q-6 -23 6.5 -39.5t35.5 -16.5h55l-25 -90h-186q-46 0 -70.5 32.5t-12.5 79.5 l56 209q10 32 2.5 55.5t-36.5 40.5z" />
<glyph unicode="|" horiz-adv-x="161" d="M255 799h80l-239 -893h-80z" />
<glyph unicode="}" horiz-adv-x="360" d="M422 382l-16 -58q-38 -17 -57 -39.5t-28 -56.5l-56 -209q-12 -46 -54 -79t-89 -33h-186l24 90h55q23 0 44 16.5t27 39.5l51 189q11 41 44.5 72.5t68.5 38.5q-31 7 -48 38.5t-6 72.5l51 189q6 23 -6 39.5t-35 16.5h-55l24 90h187q47 0 71 -33t11 -79l-56 -209 q-10 -32 -2.5 -55.5t36.5 -40.5z" />
<glyph unicode="~" horiz-adv-x="410" d="M463 348l-22 -82q-45 -23 -82 -23t-62.5 12.5l-51 25t-59.5 11.5t-75 -26l22 82q45 25 81.5 26.5t61 -10.5t49 -24.5t59.5 -13t79 21.5z" />
<glyph unicode="&#xa1;" horiz-adv-x="292" d="M126 206h148l-82 -420h-208zM138 359q11 43 50 74t83 31q43 0 65.5 -30.5t10.5 -74.5q-11 -43 -50 -74t-82 -31q-44 0 -66.5 31t-10.5 74z" />
<glyph unicode="&#xa2;" horiz-adv-x="542" d="M338 63q74 0 129 67l65 -35q-43 -49 -90 -74.5t-109 -31.5l-21 -80h-91l22 81q-93 11 -136.5 71t-13.5 173q30 110 104.5 168.5t175.5 71.5l22 82h90l-21 -80q121 -14 144 -116l-87 -36q-19 75 -93 75q-44 0 -83 -41.5t-62 -126.5q-21 -89 -5 -128.5t60 -39.5z" />
<glyph unicode="&#xa3;" horiz-adv-x="670" d="M302 90h362l-24 -90h-600l24 91q38 25 56.5 38t43 34.5t38 44t21.5 51.5q7 26 9 58h-77l24 90h52q2 27 10 58q15 57 55 103.5t91 74t106.5 41.5t108.5 14q86 0 144 -45l-25 -93q-97 58 -184.5 25.5t-112.5 -127.5q-7 -23 -10 -51h176l-24 -90h-159q-4 -50 -11 -74 q-22 -83 -94 -153z" />
<glyph unicode="&#xa4;" horiz-adv-x="476" d="M235 213q18 -25 53.5 -25t66.5 25q32 25 41.5 60t-9.5 60q-18 25 -53.5 25t-66.5 -25t-40.5 -60t8.5 -60zM450 185l33 -44l-95 -75l-33 44q-46 -22 -93 -22t-82 22l-57 -44l-54 75l56 44q-11 40 1 88q13 48 46 88l-33 44l95 75l33 -44q47 22 94 22q46 0 82 -22l56 44 l55 -75l-56 -44q11 -41 -2 -88q-12 -48 -46 -88z" />
<glyph unicode="&#xa5;" horiz-adv-x="720" d="M778 676h93l-291 -346h174l-68 -90h-151l-9 -33h187l-69 -90h-142l-31 -117h-190l31 117h-181l69 90h136l9 33h-171l68 90h100l-131 346h221l95 -293z" />
<glyph unicode="&#xa6;" horiz-adv-x="161" d="M255 799h80l-91 -341h-80zM107 248h80l-91 -342h-80z" />
<glyph unicode="&#xa7;" horiz-adv-x="549" d="M278 333l146 -124l14 16q20 23 22 48.5t-16 40.5l-146 124l-14 -16q-20 -22 -21.5 -48t15.5 -41zM528 196l-46 -48q26 -48 10 -103q-22 -72 -94 -107t-160 -32q-90 4 -129 39t-52 108l81 31q11 -50 38 -78.5t57 -27.5t59 22q21 18 25 40.5t-14 38.5l-131 112 q-52 44 -45.5 119.5t67.5 139.5l46 49q-26 47 -10 102q22 72 93.5 107t160.5 32q90 -3 129 -38t52 -108l-81 -31q-8 38 -26 63.5t-39.5 35t-45 6t-43.5 -20.5q-21 -18 -25 -41t14 -38l131 -112q52 -44 45.5 -120t-67.5 -140z" />
<glyph unicode="&#xa8;" horiz-adv-x="334" d="M307 598q-9 -32 -38 -55t-61 -23t-49 23t-8 55q8 32 37 55t62 23q32 0 48.5 -23t8.5 -55zM504 598q-8 -32 -37.5 -55t-61.5 -23t-49 23t-8 55q8 32 37.5 55t61.5 23t49 -23t8 -55z" />
<glyph unicode="&#xa9;" horiz-adv-x="575" d="M383 329q-32 1 -57.5 -25t-34.5 -61q-10 -33 1.5 -59.5t43.5 -26.5q47 0 80 40l44 -28q-59 -69 -142 -71q-63 0 -95 42t-16 103t71.5 103t116.5 41q48 0 77.5 -28t26.5 -72l-62 -14q0 27 -14.5 41.5t-39.5 14.5zM301 51q80 0 151.5 56t93.5 136q21 80 -20 136.5 t-121 56.5t-151.5 -56.5t-93.5 -136.5q-21 -80 20.5 -136t120.5 -56zM422 500q106 0 161.5 -75t26.5 -182q-28 -106 -123.5 -181.5t-202.5 -75.5q-106 0 -161.5 75t-26.5 182q28 106 123.5 181.5t202.5 75.5z" />
<glyph unicode="&#xaa;" horiz-adv-x="315" d="M245 499q1 -21 24 -24.5t45 6.5q0 11 2 16l13 51q-42 1 -63.5 -13t-20.5 -36zM436 591l-23 -87q-11 -35 7 -35l-8 -30h-49q-23 0 -38 16q-39 -24 -88 -24q-47 0 -69.5 18.5t-12.5 53.5q12 41 60.5 62t122.5 13l8 31q3 11 -3.5 18t-19.5 7t-23 -7t-12 -18l-91 -2 q8 20 34 41q35 29 109 29q55 0 81.5 -21.5t14.5 -64.5z" />
<glyph unicode="&#xab;" horiz-adv-x="438" d="M260 233l108 85h115l-107 -85l61 -85h-115zM200 318h115l-107 -85l61 -85h-115l-62 85z" />
<glyph unicode="&#xac;" horiz-adv-x="586" d="M155 428h505l-72 -270h-158l51 190h-348z" />
<glyph unicode="&#xad;" horiz-adv-x="415" d="M111 263l24 90h334l-24 -90h-334z" />
<glyph unicode="&#xae;" horiz-adv-x="575" d="M301 51q79 0 150.5 56t93.5 136q21 80 -20 136.5t-121 56.5t-151.5 -56.5t-92.5 -136.5q-22 -79 19.5 -135.5t121.5 -56.5zM421 500q106 0 161.5 -75t26.5 -182q-28 -106 -123.5 -181.5t-202.5 -75.5q-106 0 -161.5 75t-26.5 182q28 106 123.5 181.5t202.5 75.5zM327 266 h36q11 0 20 8t12 20t-1.5 19.5t-15.5 7.5h-36zM419 233l40 -107h-91l-32 87h-23l-24 -87h-88l64 239h160q27 0 41 -20t6 -50q-12 -43 -53 -62z" />
<glyph unicode="&#xaf;" horiz-adv-x="268" d="M139 520l24 87h268l-24 -87h-268z" />
<glyph unicode="&#xb0;" horiz-adv-x="430" d="M329 425q31 0 55.5 25t38.5 75q27 100 -40 100q-66 0 -93 -100q-13 -53 -2 -76.5t41 -23.5zM396 676q84 0 129 -39.5t26 -111.5q-20 -73 -87.5 -112t-148.5 -39t-127 39.5t-26 111.5q19 72 85 111.5t149 39.5z" />
<glyph unicode="&#xb1;" horiz-adv-x="415" d="M425 190l-21 -80h-334l21 80h334zM362 429h127l-21 -80h-127l-34 -127h-80l34 127h-127l21 80h127l34 127h80z" />
<glyph unicode="&#xb4;" horiz-adv-x="145" d="M201 664h147l-133 -144h-100z" />
<glyph unicode="&#xb6;" horiz-adv-x="651" d="M387 647h397l-208 -776h-180l163 610h-76l-163 -610h-181l106 394q-63 14 -92.5 67t-10.5 122q22 80 93.5 136.5t151.5 56.5z" />
<glyph unicode="&#xb7;" horiz-adv-x="290" d="M341 338q-12 -44 -51 -74.5t-82 -30.5q-44 0 -66.5 31t-10.5 74q11 43 50 74t83 31q43 0 65.5 -30.5t11.5 -74.5z" />
<glyph unicode="&#xb8;" horiz-adv-x="306" d="M159 -38h12q42 0 65.5 -25.5t13.5 -61.5q-10 -37 -47 -62.5t-79 -25.5h-148l17 64h61q44 0 54 34q8 34 -35 34h-61l91 136h119z" />
<glyph unicode="&#xba;" horiz-adv-x="329" d="M354 548l4 12q22 83 -22 83q-43 0 -65 -83l-4 -12q-22 -82 22 -82q43 0 65 82zM345 677q60 0 94 -32t18 -91q-16 -58 -66.5 -90t-110.5 -32t-93.5 32t-17.5 90q16 59 66 91t110 32z" />
<glyph unicode="&#xbb;" horiz-adv-x="438" d="M240 318l62 -85l-107 -85h-115l107 85l-62 85h115zM293 318h115l62 -85l-107 -85h-115l107 85z" />
<glyph unicode="&#xbf;" horiz-adv-x="585" d="M247 -214q-118 0 -182.5 43.5t-47.5 117.5q9 39 34 67t56.5 45.5t63 34.5t58.5 45.5t37 66.5h175q-15 -55 -44 -91t-61.5 -53t-64 -31t-55.5 -36.5t-32 -56.5t12 -53.5t68 -19.5q82 0 162 110l105 -61q-117 -128 -284 -128zM290 359q12 44 51 74.5t82 30.5t65.5 -30.5 t11.5 -74.5q-12 -44 -51 -74.5t-82 -30.5t-65.5 30.5t-11.5 74.5z" />
<glyph unicode="&#xc0;" horiz-adv-x="805" d="M486 677h172l127 -677h-200l-33 160h-320l-108 -160h-104zM479 525l-186 -274h240zM526 877h146l9 -144h-100z" />
<glyph unicode="&#xc1;" horiz-adv-x="805" d="M486 677h172l127 -677h-200l-33 160h-320l-108 -160h-104zM479 525l-186 -274h240zM573 877h147l-133 -144h-100z" />
<glyph unicode="&#xc2;" horiz-adv-x="805" d="M486 677h172l127 -677h-200l-33 160h-320l-108 -160h-104zM479 525l-186 -274h240zM526 843h175l35 -110h-112l-22 67l-58 -67h-113z" />
<glyph unicode="&#xc3;" horiz-adv-x="805" d="M486 677h172l127 -677h-200l-33 160h-320l-108 -160h-104zM479 525l-186 -274h240zM636 733q-36 2 -64 25q-40 34 -94 -20l-42 38q48 48 99 57t88 -23q40 -34 94 20l42 -37q-62 -62 -123 -60z" />
<glyph unicode="&#xc4;" horiz-adv-x="805" d="M486 677h172l127 -677h-200l-33 160h-320l-108 -160h-104zM479 525l-186 -274h240zM584 811q-8 -32 -37.5 -55t-61.5 -23t-49 23t-8 55t38 55t61 23t49 -23t8 -55zM782 811q-9 -32 -38 -55t-61 -23q-33 0 -49.5 23t-8.5 55q9 32 38 55t61 23q33 0 49.5 -23t8.5 -55z" />
<glyph unicode="&#xc5;" horiz-adv-x="805" d="M486 677h172l127 -677h-200l-33 160h-320l-108 -160h-104zM479 525l-186 -274h240zM577 693q36 0 49 47q6 23 0 38t-22 15t-30 -15t-20 -38q-13 -47 23 -47zM617 843q49 0 82 -26.5t20 -73.5t-59 -73.5t-96 -26.5t-82.5 26.5t-19.5 73.5q12 47 59 73.5t96 26.5z" />
<glyph unicode="&#xc6;" horiz-adv-x="1117" d="M575 677h683l-24 -90h-388l-51 -191h217l-24 -90h-217l-58 -214h388l-25 -92h-579l44 166h-279l-135 -166h-107zM606 587l-270 -331h230l88 331h-48z" />
<glyph unicode="&#xc7;" horiz-adv-x="746" d="M588 599q-89 0 -160 -69t-104 -192q-33 -122 1 -192t122 -70q115 0 228 91l59 -55q-150 -126 -311 -126q-82 0 -146.5 20.5t-109.5 63t-57 109t11 159.5q32 119 109.5 200.5t173.5 116.5t208 35q100 0 162 -47t80 -123l-92 -40q-20 63 -62 91t-112 28zM378 -38h12 q42 0 65.5 -25.5t13.5 -61.5q-10 -37 -46.5 -62.5t-78.5 -25.5h-148l17 64h61q43 0 53 34q4 17 -6 25.5t-29 8.5h-61l91 136h119z" />
<glyph unicode="&#xc8;" horiz-adv-x="661" d="M221 677h581l-24 -90h-390l-51 -191h216l-25 -90h-215l-58 -216h390l-24 -90h-581zM474 877h146l9 -144h-100z" />
<glyph unicode="&#xc9;" horiz-adv-x="661" d="M221 677h581l-24 -90h-390l-51 -191h216l-25 -90h-215l-58 -216h390l-24 -90h-581zM521 877h147l-133 -144h-100z" />
<glyph unicode="&#xca;" horiz-adv-x="661" d="M221 677h581l-24 -90h-390l-51 -191h216l-25 -90h-215l-58 -216h390l-24 -90h-581zM474 843h175l35 -110h-112l-22 67l-58 -67h-113z" />
<glyph unicode="&#xcb;" horiz-adv-x="661" d="M221 677h581l-24 -90h-390l-51 -191h216l-25 -90h-215l-58 -216h390l-24 -90h-581zM532 811q-8 -32 -37.5 -55t-61.5 -23t-49 23t-8 55t38 55t61 23t49 -23t8 -55zM730 811q-9 -32 -38 -55t-61 -23q-33 0 -49.5 23t-8.5 55q9 32 38 55t61 23q33 0 49.5 -23t8.5 -55z" />
<glyph unicode="&#xcc;" horiz-adv-x="271" d="M40 0l181 677h191l-181 -677h-191zM274 877h146l9 -144h-100z" />
<glyph unicode="&#xcd;" horiz-adv-x="271" d="M40 0l181 677h191l-181 -677h-191zM321 877h147l-133 -144h-100z" />
<glyph unicode="&#xce;" horiz-adv-x="271" d="M40 0l181 677h191l-181 -677h-191zM274 843h175l35 -110h-112l-22 67l-58 -67h-113z" />
<glyph unicode="&#xcf;" horiz-adv-x="271" d="M40 0l181 677h191l-181 -677h-191zM332 811q-8 -32 -37.5 -55t-61.5 -23t-49 23t-8 55t38 55t61 23t49 -23t8 -55zM530 811q-9 -32 -38 -55t-61 -23q-33 0 -49.5 23t-8.5 55q9 32 38 55t61 23q33 0 49.5 -23t8.5 -55z" />
<glyph unicode="&#xd0;" horiz-adv-x="772" d="M255 90h110q104 0 174 64t102 184q33 120 -3.5 184.5t-143.5 64.5h-106zM221 677h349q166 0 236.5 -84.5t25.5 -253.5q-47 -170 -162 -254.5t-281 -84.5h-349zM74 313l24 90h334l-24 -90h-334z" />
<glyph unicode="&#xd1;" horiz-adv-x="685" d="M221 677h180l208 -475l127 475h90l-181 -677h-174l-209 491l-132 -491h-90zM581 733q-36 2 -64 25q-40 34 -94 -20l-42 38q48 48 99 57t88 -23q40 -34 94 20l42 -37q-62 -62 -123 -60z" />
<glyph unicode="&#xd2;" horiz-adv-x="855" d="M448 76q193 0 265 262q70 261 -125 261q-194 0 -265 -261q-70 -262 125 -262zM424 -14q-81 0 -146.5 23.5t-108 68.5t-56.5 110.5t8 149.5q44 161 183.5 256.5t307.5 95.5q167 0 256 -95.5t47 -256.5q-30 -108 -106 -189.5t-176 -122t-209 -40.5zM535 877h147l9 -144 h-100z" />
<glyph unicode="&#xd3;" horiz-adv-x="855" d="M448 76q193 0 265 262q70 261 -125 261q-194 0 -265 -261q-70 -262 125 -262zM424 -14q-81 0 -146.5 23.5t-108 68.5t-56.5 110.5t8 149.5q44 161 183.5 256.5t307.5 95.5q167 0 256 -95.5t47 -256.5q-30 -108 -106 -189.5t-176 -122t-209 -40.5zM583 877h146l-132 -144 h-100z" />
<glyph unicode="&#xd4;" horiz-adv-x="855" d="M448 76q193 0 265 262q70 261 -125 261q-194 0 -265 -261q-70 -262 125 -262zM424 -14q-81 0 -146.5 23.5t-108 68.5t-56.5 110.5t8 149.5q44 161 183.5 256.5t307.5 95.5q167 0 256 -95.5t47 -256.5q-30 -108 -106 -189.5t-176 -122t-209 -40.5zM535 843h175l36 -110 h-113l-22 67l-58 -67h-112z" />
<glyph unicode="&#xd5;" horiz-adv-x="855" d="M448 76q193 0 265 262q70 261 -125 261q-194 0 -265 -261q-70 -262 125 -262zM424 -14q-81 0 -146.5 23.5t-108 68.5t-56.5 110.5t8 149.5q44 161 183.5 256.5t307.5 95.5q167 0 256 -95.5t47 -256.5q-30 -108 -106 -189.5t-176 -122t-209 -40.5zM646 733q-38 2 -64 25 q-41 35 -94 -20l-42 38q48 48 99 57t88 -23q40 -34 94 20l41 -37q-60 -62 -122 -60z" />
<glyph unicode="&#xd6;" horiz-adv-x="855" d="M448 76q193 0 265 262q70 261 -125 261q-194 0 -265 -261q-70 -262 125 -262zM424 -14q-81 0 -146.5 23.5t-108 68.5t-56.5 110.5t8 149.5q44 161 183.5 256.5t307.5 95.5q167 0 256 -95.5t47 -256.5q-30 -108 -106 -189.5t-176 -122t-209 -40.5zM594 811q-9 -32 -38 -55 t-61 -23t-49 23t-8 55q8 32 37 55t62 23q32 0 48.5 -23t8.5 -55zM791 811q-8 -32 -37.5 -55t-61.5 -23t-49 23t-8 55q8 32 37.5 55t61.5 23t49 -23t8 -55z" />
<glyph unicode="&#xd7;" horiz-adv-x="381" d="M407 488l47 -64l-109 -86l63 -86l-81 -64l-63 86l-109 -86l-47 64l109 86l-63 86l81 64l63 -86z" />
<glyph unicode="&#xd8;" horiz-adv-x="855" d="M448 76q193 0 265 262q70 261 -125 261q-194 0 -265 -261q-70 -262 125 -262zM424 -14q-81 0 -146.5 23.5t-108 68.5t-56.5 110.5t8 149.5q44 161 183.5 256.5t307.5 95.5q167 0 256 -95.5t47 -256.5q-30 -108 -106 -189.5t-176 -122t-209 -40.5zM802 676h182l-790 -676 h-182z" />
<glyph unicode="&#xd9;" horiz-adv-x="777" d="M384 -14q-101 0 -162.5 26t-88 57t-25.5 101.5t10 111.5t34 136v1l69 258h191l-109 -408q-12 -52 -10.5 -94.5t31.5 -69t85 -26.5q82 0 134 53t74 137l110 408h190l-69 -258q-17 -65 -27 -97.5t-31 -87t-41 -83t-55 -65.5t-76.5 -55.5t-101 -31.5t-132.5 -13zM528 877 h146l9 -144h-100z" />
<glyph unicode="&#xda;" horiz-adv-x="777" d="M384 -14q-101 0 -162.5 26t-88 57t-25.5 101.5t10 111.5t34 136v1l69 258h191l-109 -408q-12 -52 -10.5 -94.5t31.5 -69t85 -26.5q82 0 134 53t74 137l110 408h190l-69 -258q-17 -65 -27 -97.5t-31 -87t-41 -83t-55 -65.5t-76.5 -55.5t-101 -31.5t-132.5 -13zM575 877 h147l-133 -144h-100z" />
<glyph unicode="&#xdb;" horiz-adv-x="777" d="M384 -14q-101 0 -162.5 26t-88 57t-25.5 101.5t10 111.5t34 136v1l69 258h191l-109 -408q-12 -52 -10.5 -94.5t31.5 -69t85 -26.5q82 0 134 53t74 137l110 408h190l-69 -258q-17 -65 -27 -97.5t-31 -87t-41 -83t-55 -65.5t-76.5 -55.5t-101 -31.5t-132.5 -13zM528 843 h175l35 -110h-112l-22 67l-58 -67h-113z" />
<glyph unicode="&#xdc;" horiz-adv-x="777" d="M384 -14q-101 0 -162.5 26t-88 57t-25.5 101.5t10 111.5t34 136v1l69 258h191l-109 -408q-12 -52 -10.5 -94.5t31.5 -69t85 -26.5q82 0 134 53t74 137l110 408h190l-69 -258q-17 -65 -27 -97.5t-31 -87t-41 -83t-55 -65.5t-76.5 -55.5t-101 -31.5t-132.5 -13zM586 811 q-8 -32 -37.5 -55t-61.5 -23t-49 23t-8 55t38 55t61 23t49 -23t8 -55zM784 811q-9 -32 -38 -55t-61 -23q-33 0 -49.5 23t-8.5 55q9 32 38 55t61 23q33 0 49.5 -23t8.5 -55z" />
<glyph unicode="&#xdd;" horiz-adv-x="795" d="M441 677l124 -292l279 292h112l-367 -389l-77 -288h-191l73 272l-193 405h240zM645 877h146l-132 -144h-100z" />
<glyph unicode="&#xde;" horiz-adv-x="681" d="M298 254h131q43 0 78 27t48 75t-8 74.5t-64 26.5h-130zM746 356q-23 -86 -92 -139t-150 -53h-230l-44 -164h-190l181 677h192l-35 -130h228q81 0 122 -53t18 -138z" />
<glyph unicode="&#xdf;" horiz-adv-x="656" d="M276 55l84 45q11 -26 37 -29.5t52 17t36 58.5q9 32 6 56.5t-14.5 39.5t-26.5 29t-30.5 25t-26.5 27.5t-15 36t4 51.5q13 45 48.5 81t44.5 70q7 26 -2.5 43t-29.5 17q-45 0 -68 -81l-145 -542h-190l138 515q20 72 91.5 128.5t191.5 56.5q97 0 147 -43.5t34 -102.5 q-9 -34 -33.5 -60.5t-47.5 -50t-30 -49.5q-6 -22 10.5 -39.5t41.5 -30t50 -34t36.5 -49.5t-0.5 -78q-48 -176 -252 -176q-55 0 -93.5 19.5t-47.5 49.5z" />
<glyph unicode="&#xe0;" horiz-adv-x="648" d="M338 55q93 0 141 177q46 176 -47 176t-141 -176q-48 -177 47 -177zM530 422l11 43h191l-125 -465h-190l9 33q-65 -47 -148 -47q-111 0 -164 64t-22 181t119 181.5t199 64.5q82 0 120 -55zM416 664h146l9 -144h-100z" />
<glyph unicode="&#xe1;" horiz-adv-x="648" d="M338 55q93 0 141 177q46 176 -47 176t-141 -176q-48 -177 47 -177zM530 422l11 43h191l-125 -465h-190l9 33q-65 -47 -148 -47q-111 0 -164 64t-22 181t119 181.5t199 64.5q82 0 120 -55zM463 664h147l-133 -144h-100z" />
<glyph unicode="&#xe2;" horiz-adv-x="648" d="M338 55q93 0 141 177q46 176 -47 176t-141 -176q-48 -177 47 -177zM530 422l11 43h191l-125 -465h-190l9 33q-65 -47 -148 -47q-111 0 -164 64t-22 181t119 181.5t199 64.5q82 0 120 -55zM416 630h175l35 -110h-112l-22 67l-58 -67h-113z" />
<glyph unicode="&#xe3;" horiz-adv-x="648" d="M338 55q93 0 141 177q46 176 -47 176t-141 -176q-48 -177 47 -177zM530 422l11 43h191l-125 -465h-190l9 33q-65 -47 -148 -47q-111 0 -164 64t-22 181t119 181.5t199 64.5q82 0 120 -55zM526 520q-36 2 -64 25q-40 34 -94 -20l-42 38q48 48 99 57t88 -23q40 -34 94 20 l42 -37q-62 -62 -123 -60z" />
<glyph unicode="&#xe4;" horiz-adv-x="648" d="M338 55q93 0 141 177q46 176 -47 176t-141 -176q-48 -177 47 -177zM530 422l11 43h191l-125 -465h-190l9 33q-65 -47 -148 -47q-111 0 -164 64t-22 181t119 181.5t199 64.5q82 0 120 -55zM474 598q-8 -32 -37.5 -55t-61.5 -23t-49 23t-8 55t38 55t61 23t49 -23t8 -55z M672 598q-9 -32 -38 -55t-62 -23q-32 0 -48.5 23t-8.5 55q9 32 38 55t61 23q33 0 49.5 -23t8.5 -55z" />
<glyph unicode="&#xe5;" horiz-adv-x="648" d="M338 55q93 0 141 177q46 176 -47 176t-141 -176q-48 -177 47 -177zM530 422l11 43h191l-125 -465h-190l9 33q-65 -47 -148 -47q-111 0 -164 64t-22 181t119 181.5t199 64.5q82 0 120 -55zM497 570q36 0 49 47q6 23 0 38t-22 15t-30 -15t-20 -38q-13 -47 23 -47zM537 720 q49 0 82 -26.5t20 -73.5t-59 -73.5t-96 -26.5t-82.5 26.5t-19.5 73.5q12 47 59 73.5t96 26.5z" />
<glyph unicode="&#xe6;" horiz-adv-x="946" d="M615 262h164q37 136 -45 136q-40 0 -69.5 -31.5t-49.5 -104.5zM245 121q1 -31 27 -42.5t58.5 -6t66.5 20.5q-3 17 1 34l25 91q-89 4 -134.5 -23.5t-43.5 -73.5zM977 230l-14 -52h-370q-13 -48 5.5 -80.5t65.5 -32.5q82 0 147 63l85 -45q-88 -97 -263 -97q-61 0 -118 15.5 t-89 43.5q-93 -59 -199 -59q-93 0 -137 36.5t-25 106.5q22 84 122 125.5t252 23.5l17 63q6 22 -8.5 35.5t-41.5 13.5t-49 -14t-28 -35l-181 -4q17 41 67 82q72 58 219 58q103 0 154 -36q78 36 167 36q127 0 188.5 -70.5t33.5 -176.5z" />
<glyph unicode="&#xe7;" horiz-adv-x="541" d="M459 135l81 -28q-44 -64 -101.5 -92.5t-138.5 -28.5q-55 0 -98.5 13.5t-75.5 42.5t-40.5 76.5t7.5 114.5q34 126 126 185t212 59q73 0 115.5 -27.5t60.5 -85.5l-91 -49q-27 81 -92 81q-42 0 -84.5 -43t-63.5 -122q-19 -85 -1 -125.5t61 -40.5q76 0 123 70zM297 -38h12 q42 0 65 -25.5t14 -61.5q-10 -37 -47 -62.5t-79 -25.5h-148l17 64h61q44 0 53 34q5 17 -5.5 25.5t-29.5 8.5h-61l92 136h119z" />
<glyph unicode="&#xe8;" d="M306 262h164q37 136 -45 136t-119 -136zM446 477q127 0 188.5 -70.5t33.5 -175.5l-14 -53h-370q-13 -48 5.5 -80.5t65.5 -32.5q81 0 147 63l85 -45q-90 -97 -263 -97q-62 0 -110.5 14t-83 44t-44.5 76.5t6 110.5q28 105 127.5 175.5t226.5 70.5zM407 664h146l9 -144h-100 z" />
<glyph unicode="&#xe9;" d="M306 262h164q37 136 -45 136t-119 -136zM446 477q127 0 188.5 -70.5t33.5 -175.5l-14 -53h-370q-13 -48 5.5 -80.5t65.5 -32.5q81 0 147 63l85 -45q-90 -97 -263 -97q-62 0 -110.5 14t-83 44t-44.5 76.5t6 110.5q28 105 127.5 175.5t226.5 70.5zM454 664h147l-133 -144 h-100z" />
<glyph unicode="&#xea;" d="M306 262h164q37 136 -45 136t-119 -136zM446 477q127 0 188.5 -70.5t33.5 -175.5l-14 -53h-370q-13 -48 5.5 -80.5t65.5 -32.5q81 0 147 63l85 -45q-90 -97 -263 -97q-62 0 -110.5 14t-83 44t-44.5 76.5t6 110.5q28 105 127.5 175.5t226.5 70.5zM407 630h175l35 -110 h-112l-22 67l-58 -67h-113z" />
<glyph unicode="&#xeb;" d="M306 262h164q37 136 -45 136t-119 -136zM446 477q127 0 188.5 -70.5t33.5 -175.5l-14 -53h-370q-13 -48 5.5 -80.5t65.5 -32.5q81 0 147 63l85 -45q-90 -97 -263 -97q-62 0 -110.5 14t-83 44t-44.5 76.5t6 110.5q28 105 127.5 175.5t226.5 70.5zM465 598 q-8 -32 -37.5 -55t-61.5 -23t-49 23t-8 55t38 55t61 23t49 -23t8 -55zM663 598q-9 -32 -38 -55t-62 -23q-32 0 -48.5 23t-8.5 55q9 32 38 55t61 23q33 0 49.5 -23t8.5 -55z" />
<glyph unicode="&#xec;" horiz-adv-x="272" d="M41 0l124 464h191l-125 -464h-190zM218 664h147l9 -144h-100z" />
<glyph unicode="&#xed;" horiz-adv-x="272" d="M41 0l124 464h191l-125 -464h-190zM266 664h146l-133 -144h-100z" />
<glyph unicode="&#xee;" horiz-adv-x="272" d="M41 0l124 464h191l-125 -464h-190zM218 630h175l36 -110h-113l-22 67l-58 -67h-112z" />
<glyph unicode="&#xef;" horiz-adv-x="272" d="M41 0l124 464h191l-125 -464h-190zM277 598q-9 -32 -38 -55t-61 -23t-49 23t-9 55q9 32 38 55t62 23q32 0 48.5 -23t8.5 -55zM474 598q-8 -32 -37.5 -55t-61.5 -23t-49 23t-8 55q8 32 37.5 55t61.5 23t49 -23t8 -55z" />
<glyph unicode="&#xf0;" horiz-adv-x="639" d="M644 703l49 -67l-251 -129l-49 67zM480 232q48 177 -47 177q-93 0 -141 -177q-48 -176 47 -176q93 0 141 176zM690 302q-41 -152 -142 -234t-249 -82q-131 0 -185 63t-21 183q31 118 118.5 182t199.5 64q85 0 122 -47q-2 6 -5 17.5t-15.5 42t-26.5 56.5t-37 55.5 t-48 45.5l159 72q2 -3 6.5 -7.5t16.5 -20t24 -32t26.5 -42t26.5 -51.5t22.5 -59t15 -65t3 -69t-10.5 -72z" />
<glyph unicode="&#xf1;" horiz-adv-x="635" d="M658 238l-63 -238h-200l75 279q16 63 4.5 89.5t-55.5 26.5q-37 0 -66.5 -26t-43.5 -78l-78 -291h-191l124 464h191l-13 -47q79 61 174 61q207 0 142 -240zM479 520q-36 2 -64 25q-40 34 -94 -20l-42 38q48 48 99 57t88 -23q40 -34 94 20l42 -37q-62 -62 -123 -60z" />
<glyph unicode="&#xf2;" d="M334 55q86 0 131 165l6 24q45 164 -43 164q-86 0 -131 -164l-6 -24q-45 -165 43 -165zM447 477q120 0 187 -63t35 -182q-31 -117 -132.5 -181.5t-221.5 -64.5q-119 0 -186 64.5t-36 181.5q32 119 133 182t221 63zM405 664h146l9 -144h-100z" />
<glyph unicode="&#xf3;" d="M334 55q86 0 131 165l6 24q45 164 -43 164q-86 0 -131 -164l-6 -24q-45 -165 43 -165zM447 477q120 0 187 -63t35 -182q-31 -117 -132.5 -181.5t-221.5 -64.5q-119 0 -186 64.5t-36 181.5q32 119 133 182t221 63zM452 664h147l-133 -144h-100z" />
<glyph unicode="&#xf4;" d="M334 55q86 0 131 165l6 24q45 164 -43 164q-86 0 -131 -164l-6 -24q-45 -165 43 -165zM447 477q120 0 187 -63t35 -182q-31 -117 -132.5 -181.5t-221.5 -64.5q-119 0 -186 64.5t-36 181.5q32 119 133 182t221 63zM405 630h175l35 -110h-112l-22 67l-58 -67h-113z" />
<glyph unicode="&#xf5;" d="M334 55q86 0 131 165l6 24q45 164 -43 164q-86 0 -131 -164l-6 -24q-45 -165 43 -165zM447 477q120 0 187 -63t35 -182q-31 -117 -132.5 -181.5t-221.5 -64.5q-119 0 -186 64.5t-36 181.5q32 119 133 182t221 63zM515 520q-36 2 -64 25q-40 34 -94 -20l-42 38 q48 48 99 57t88 -23q40 -34 94 20l42 -37q-62 -62 -123 -60z" />
<glyph unicode="&#xf6;" d="M334 55q86 0 131 165l6 24q45 164 -43 164q-86 0 -131 -164l-6 -24q-45 -165 43 -165zM447 477q120 0 187 -63t35 -182q-31 -117 -132.5 -181.5t-221.5 -64.5q-119 0 -186 64.5t-36 181.5q32 119 133 182t221 63zM462 598q-8 -32 -37.5 -55t-61.5 -23t-49 23t-8 55t38 55 t61 23t49 -23t8 -55zM660 598q-9 -32 -38 -55t-62 -23q-32 0 -48.5 23t-8.5 55q9 32 38 55t61 23q33 0 49.5 -23t8.5 -55z" />
<glyph unicode="&#xf7;" horiz-adv-x="415" d="M119 293l25 90h334l-25 -90h-334zM396 489q-6 -24 -27.5 -41t-44.5 -17q-24 0 -36.5 17t-5.5 41q6 23 27.5 40t44.5 17q24 0 36.5 -17t5.5 -40zM315 187q-6 -23 -27.5 -40t-44.5 -17q-24 0 -36.5 17t-5.5 40q6 24 27.5 41t44.5 17q24 0 36.5 -17t5.5 -41z" />
<glyph unicode="&#xf8;" d="M334 55q86 0 131 165l6 24q45 164 -43 164q-86 0 -131 -164l-6 -24q-45 -165 43 -165zM447 477q120 0 187 -63t35 -182q-31 -117 -132.5 -181.5t-221.5 -64.5q-119 0 -186 64.5t-36 181.5q32 119 133 182t221 63zM582 464h92l-499 -464h-92z" />
<glyph unicode="&#xf9;" horiz-adv-x="635" d="M101 226l64 238h200l-75 -279q-17 -62 -5 -89t56 -27q37 0 66.5 26t43.5 78l78 291h190l-124 -464h-190l12 48q-77 -61 -173 -61q-208 0 -143 239zM409 664h147l9 -144h-100z" />
<glyph unicode="&#xfa;" horiz-adv-x="635" d="M101 226l64 238h200l-75 -279q-17 -62 -5 -89t56 -27q37 0 66.5 26t43.5 78l78 291h190l-124 -464h-190l12 48q-77 -61 -173 -61q-208 0 -143 239zM457 664h146l-133 -144h-100z" />
<glyph unicode="&#xfb;" horiz-adv-x="635" d="M101 226l64 238h200l-75 -279q-17 -62 -5 -89t56 -27q37 0 66.5 26t43.5 78l78 291h190l-124 -464h-190l12 48q-77 -61 -173 -61q-208 0 -143 239zM409 630h175l36 -110h-113l-22 67l-58 -67h-112z" />
<glyph unicode="&#xfc;" horiz-adv-x="635" d="M101 226l64 238h200l-75 -279q-17 -62 -5 -89t56 -27q37 0 66.5 26t43.5 78l78 291h190l-124 -464h-190l12 48q-77 -61 -173 -61q-208 0 -143 239zM468 598q-9 -32 -38 -55t-61 -23t-49 23t-9 55q9 32 38 55t62 23q32 0 48.5 -23t8.5 -55zM665 598q-8 -32 -37.5 -55 t-61.5 -23t-49 23t-8 55q8 32 37.5 55t61.5 23t49 -23t8 -55z" />
<glyph unicode="&#xfd;" horiz-adv-x="636" d="M720 465l-120 -447q-32 -121 -124.5 -187t-229.5 -66q-179 0 -198 133l140 26q0 -32 19.5 -54t58.5 -22q99 0 135 138l17 62q-79 -61 -173 -61q-208 0 -143 240l64 238h199l-74 -279q-17 -63 -5 -89.5t56 -26.5q37 0 66.5 26t43.5 78l78 291h190zM451 664h146l-133 -144 h-100z" />
<glyph unicode="&#xfe;" horiz-adv-x="649" d="M294 234q-46 -176 47 -176t141 176t-47 176q-93 0 -141 -176zM-15 -210l237 887h191l-68 -253q67 55 150 55q112 0 165 -62t21 -183q-31 -117 -119 -181.5t-199 -64.5q-83 0 -122 47l-66 -245h-190z" />
<glyph unicode="&#xff;" horiz-adv-x="636" d="M720 465l-120 -447q-32 -121 -124.5 -187t-229.5 -66q-179 0 -198 133l140 26q0 -32 19.5 -54t58.5 -22q99 0 135 138l17 62q-79 -61 -173 -61q-208 0 -143 240l64 238h199l-74 -279q-17 -63 -5 -89.5t56 -26.5q37 0 66.5 26t43.5 78l78 291h190zM462 598q-9 -32 -38 -55 t-61 -23t-49 23t-9 55q9 32 38 55t62 23q32 0 48.5 -23t8.5 -55zM659 598q-8 -32 -37.5 -55t-61.5 -23t-49 23t-8 55q8 32 37.5 55t61.5 23t49 -23t8 -55z" />
<glyph unicode="&#x152;" horiz-adv-x="1188" d="M323 338q-70 -261 125 -261q98 0 158 68l103 386q-11 32 -43 50.5t-78 18.5q-195 0 -265 -262zM1329 677l-24 -90h-390l-51 -191h216l-25 -90h-215l-58 -216h390l-24 -90h-604q-61 -14 -120 -14q-168 0 -257 95.5t-46 257.5q44 161 183.5 256.5t307.5 95.5q59 0 113 -14 h604z" />
<glyph unicode="&#x153;" horiz-adv-x="1007" d="M677 262h164q18 77 6 106.5t-52 29.5t-69.5 -31t-48.5 -105zM465 220l6 24q45 164 -43 164t-131 -164l-7 -24q-43 -165 43 -165q87 0 132 165zM1039 231l-14 -53h-370q-13 -48 5 -80.5t65 -32.5q80 0 148 63l84 -45q-90 -97 -262 -97q-112 0 -180 63q-101 -63 -200 -63 q-119 0 -186 64.5t-36 181.5q32 119 133 182t221 63q112 0 171 -61q87 61 199 61q127 0 188.5 -70.5t33.5 -175.5z" />
<glyph unicode="&#x178;" horiz-adv-x="795" d="M441 677l124 -292l279 292h112l-367 -389l-77 -288h-191l73 272l-193 405h240zM656 811q-9 -32 -38 -55t-61 -23t-49 23t-8 55q8 32 37 55t62 23q32 0 48.5 -23t8.5 -55zM853 811q-8 -32 -37.5 -55t-61.5 -23t-49 23t-8 55q8 32 37.5 55t61.5 23t49 -23t8 -55z" />
<glyph unicode="&#x2c6;" horiz-adv-x="246" d="M204 630h175l36 -110h-113l-22 67l-58 -67h-112z" />
<glyph unicode="&#x2dc;" horiz-adv-x="318" d="M351 520q-38 2 -64 25q-41 35 -94 -20l-42 38q48 48 98.5 57t87.5 -23q42 -34 94 20l42 -37q-60 -62 -122 -60z" />
<glyph unicode="&#x2000;" horiz-adv-x="444" />
<glyph unicode="&#x2001;" horiz-adv-x="889" />
<glyph unicode="&#x2002;" horiz-adv-x="444" />
<glyph unicode="&#x2003;" horiz-adv-x="889" />
<glyph unicode="&#x2004;" horiz-adv-x="296" />
<glyph unicode="&#x2005;" horiz-adv-x="222" />
<glyph unicode="&#x2006;" horiz-adv-x="148" />
<glyph unicode="&#x2007;" horiz-adv-x="148" />
<glyph unicode="&#x2008;" horiz-adv-x="111" />
<glyph unicode="&#x2009;" horiz-adv-x="177" />
<glyph unicode="&#x200a;" horiz-adv-x="49" />
<glyph unicode="&#x2010;" horiz-adv-x="415" d="M111 263l24 90h334l-24 -90h-334z" />
<glyph unicode="&#x2011;" horiz-adv-x="415" d="M111 263l24 90h334l-24 -90h-334z" />
<glyph unicode="&#x2012;" horiz-adv-x="415" d="M111 263l24 90h334l-24 -90h-334z" />
<glyph unicode="&#x2013;" horiz-adv-x="500" d="M112 268l21 80h420l-22 -80h-419z" />
<glyph unicode="&#x2014;" horiz-adv-x="696" d="M133 348h616l-21 -80h-616z" />
<glyph unicode="&#x2018;" horiz-adv-x="170" d="M284 465h-149l114 212h92z" />
<glyph unicode="&#x2019;" horiz-adv-x="170" d="M192 677h149l-114 -212h-92z" />
<glyph unicode="&#x201a;" horiz-adv-x="190" d="M36 60h149l-114 -212h-91z" />
<glyph unicode="&#x201c;" horiz-adv-x="339" d="M284 465h-149l114 212h92zM453 465h-149l114 212h92z" />
<glyph unicode="&#x201d;" horiz-adv-x="339" d="M192 676h149l-114 -212h-92zM361 676h149l-114 -212h-92z" />
<glyph unicode="&#x201e;" horiz-adv-x="359" d="M36 60h149l-114 -212h-91zM205 60h150l-115 -212h-91z" />
<glyph unicode="&#x2022;" horiz-adv-x="395" d="M455 338q-19 -69 -81 -118t-131 -49t-105 49t-17 118q18 69 80 118t132 49q69 0 105 -49t17 -118z" />
<glyph unicode="&#x2026;" horiz-adv-x="796" d="M278 105q-12 -44 -51 -74.5t-82 -30.5t-65.5 30.5t-11.5 74.5q12 44 51 74.5t82 30.5t65.5 -30.5t11.5 -74.5zM531 105q-12 -44 -51 -74.5t-82 -30.5t-65.5 30.5t-11.5 74.5q12 44 51 74.5t82 30.5t65.5 -30.5t11.5 -74.5zM784 105q-12 -44 -51 -74.5t-82 -30.5 t-65.5 30.5t-11.5 74.5q12 44 51 74.5t82 30.5t65.5 -30.5t11.5 -74.5z" />
<glyph unicode="&#x202f;" horiz-adv-x="177" />
<glyph unicode="&#x2039;" horiz-adv-x="270" d="M200 318h115l-107 -85l61 -85h-115l-62 85z" />
<glyph unicode="&#x203a;" horiz-adv-x="270" d="M125 318h115l62 -85l-107 -85h-115l107 85z" />
<glyph unicode="&#x205f;" horiz-adv-x="222" />
<glyph unicode="&#x20ac;" horiz-adv-x="728" d="M491 76q98 0 161 79h88l-22 -26q-122 -143 -271 -143q-118 0 -185 63.5t-64 178.5h-107l69 90h50q4 15 5 20q1 3 3 9.5t3 10.5h-82l69 90h49q59 115 159.5 178.5t218.5 63.5q102 0 143 -49t54 -142h-93q-6 50 -30 75t-78 25q-104 0 -174 -151h250l-69 -90h-214 q-1 -4 -3 -10t-3 -10q-1 -5 -5 -20h194l-69 -90h-140q-5 -74 19.5 -113t73.5 -39z" />
<glyph unicode="&#x2122;" horiz-adv-x="921" d="M941 677h121l-102 -382h-137l46 171l-111 -144h-73l-47 146l-46 -173h-81l80 301h-122l-80 -301h-138l81 301h-132l21 81h500l64 -203z" />
<glyph unicode="&#x25fc;" horiz-adv-x="465" d="M0 465h465v-465h-465v465z" />
</font>
</defs>
</svg>
