<?xml version="1.0" standalone="no"?>
<!DOCTYPE svg PUBLIC "-//W3C//DTD SVG 1.1//EN" "http://www.w3.org/Graphics/SVG/1.1/DTD/svg11.dtd" >
<svg xmlns="http://www.w3.org/2000/svg" xmlns:xlink="http://www.w3.org/1999/xlink" version="1.1">
<metadata></metadata>
<defs>
<font id="sentasansitalic" horiz-adv-x="577" >
<font-face units-per-em="1000" ascent="750" descent="-250" />
<missing-glyph horiz-adv-x="370" />
<glyph horiz-adv-x="0" />
<glyph horiz-adv-x="0" />
<glyph unicode="&#xd;" horiz-adv-x="250" />
<glyph unicode=" "  horiz-adv-x="370" />
<glyph unicode="&#x09;" horiz-adv-x="370" />
<glyph unicode="&#xa0;" horiz-adv-x="370" />
<glyph unicode="!" horiz-adv-x="229" d="M222 678h148l-155 -466h-88zM204 71q-7 -29 -34 -50t-56 -21t-44.5 21t-7.5 50t34.5 50t55.5 21t44.5 -21t7.5 -50z" />
<glyph unicode="&#x22;" horiz-adv-x="307" d="M202 677h119l-122 -242h-62zM349 677h119l-122 -242h-62z" />
<glyph unicode="#" horiz-adv-x="770" d="M721 676h135l-112 -199h123l-34 -60h-123l-89 -158h129l-34 -60h-128l-112 -199h-135l112 199h-111l-112 -199h-135l112 199h-124l35 60h122l89 158h-128l34 60h128l112 199h135l-112 -199h111zM464 417l-89 -158h111l89 158h-111z" />
<glyph unicode="$" horiz-adv-x="610" d="M411 325l-69 -258q59 8 101 45t57 92q13 50 -11 77t-78 44zM319 539q-20 -74 61 -105l56 207q-45 -8 -76 -36t-41 -66zM636 213q-25 -95 -111.5 -150t-199.5 -62l-13 -48h-60l13 48q-153 10 -199 131l74 38q9 -40 46 -68.5t96 -34.5l73 273q-101 25 -134 46 q-65 41 -42 128q21 78 95.5 129.5t177.5 58.5l13 48l60 1l-13 -49q67 -6 114 -38.5t64 -93.5l-63 -29q-21 88 -131 101l-60 -224q8 -2 25 -6l45 -10.5t41 -12.5t39.5 -18t29.5 -24t21.5 -33t6 -44t-7.5 -57z" />
<glyph unicode="%" horiz-adv-x="892" d="M382 662q-86 0 -117 -114q-15 -56 -1 -91t53 -35q40 0 73 34.5t48 91.5q31 114 -56 114zM309 391q-67 0 -109 43.5t-25 107.5q18 64 82 107.5t133 43.5q70 0 111 -43.5t23 -107.5q-17 -64 -82 -107.5t-133 -43.5zM690 15q87 0 118 114q15 56 0.5 91t-53.5 35t-72.5 -35 t-48.5 -91q-31 -114 56 -114zM763 286q68 0 109.5 -43.5t24.5 -107.5t-81 -107.5t-134 -43.5q-69 0 -110 43.5t-24 107.5t82.5 107.5t132.5 43.5zM851 677h162l-791 -677h-162z" />
<glyph unicode="&#x26;" horiz-adv-x="685" d="M296 79q71 3 165 48q-13 33 -92 241q-88 -58 -130.5 -104.5t-44.5 -94.5q-1 -44 28 -68t74 -22zM589 689q-26 26 -58.5 24t-54.5 -24t-34 -53t2 -64l28 -76q51 34 82.5 66t41 56t7.5 41.5t-14 29.5zM695 295l22 -60q-67 -60 -114 -96l51 -139h-145q-9 23 -23 58 q-145 -87 -262 -87q-92 0 -131.5 55.5t-18.5 134.5q20 74 86 133.5t188 129.5q-30 79 -33 87q-38 96 22 169q72 85 183 87q46 0 81 -17.5t48 -50.5q24 -56 -21 -122t-138 -131l91 -247q61 43 114 96z" />
<glyph unicode="'" horiz-adv-x="160" d="M202 677h119l-122 -242h-62z" />
<glyph unicode="(" horiz-adv-x="299" d="M135 353q25 94 65 172.5t80.5 126.5t83.5 82t74.5 48.5t54.5 16.5l-18 -68q-124 -53 -212 -378q-87 -324 9 -378l-18 -69q-17 2 -36.5 13t-42 32t-38 57t-25 82.5t-4 115t26.5 147.5z" />
<glyph unicode=")" horiz-adv-x="299" d="M354 353q-31 -116 -83 -207t-106 -139.5t-97 -72.5t-73 -28l19 69q125 53 211 378q88 326 -9 378l19 68q15 -2 31.5 -9.5t35 -24t34.5 -40t28 -60t16.5 -80t-2 -104t-24.5 -128.5z" />
<glyph unicode="*" horiz-adv-x="307" d="M365 677l44 -30l-44 -53h61l-16 -60h-61l16 -52l-60 -30l-16 52l-45 -52l-44 30l45 52h-61l16 60h61l-16 53l60 30l16 -53z" />
<glyph unicode="+" horiz-adv-x="415" d="M305 475h60l-37 -137h137l-16 -60h-137l-37 -137h-60l37 137h-137l16 60h137z" />
<glyph unicode="," horiz-adv-x="223" d="M90 4q-20 7 -28.5 25.5t-1.5 41.5q8 29 34 50t56 21q29 0 44.5 -21t7.5 -50q-18 -66 -71.5 -111.5t-113.5 -45.5l13 48q15 0 34 12t26 30z" />
<glyph unicode="-" horiz-adv-x="415" d="M115 278l16 60h334l-16 -60h-334z" />
<glyph unicode="." horiz-adv-x="223" d="M201 71q-7 -29 -34 -50t-56 -21t-44.5 21t-7.5 50t34.5 50t55.5 21q30 0 45 -21t7 -50z" />
<glyph unicode="/" horiz-adv-x="811" d="M810 676h162l-790 -676h-162z" />
<glyph unicode="0" horiz-adv-x="637" d="M330 42q37 0 67.5 15t52 38t42 65t33.5 79.5t32 98.5q19 71 26.5 120.5t3 91.5t-29 62.5t-69.5 20.5t-80.5 -20.5t-62 -62.5t-46 -91.5t-38.5 -120.5q-10 -43 -15.5 -71t-10.5 -62.5t-4 -56t5.5 -44t16 -34.5t31 -20t46.5 -8zM315 -14q-133 0 -187.5 87t-6.5 265 q48 177 150 263.5t233 88.5q287 -4 193 -352q-95 -352 -382 -352z" />
<glyph unicode="1" horiz-adv-x="238" d="M297 677h82l-181 -677h-132l141 527h-56l16 58q33 11 69.5 36.5t60.5 55.5z" />
<glyph unicode="2" horiz-adv-x="571" d="M256 515l-55 40q113 135 262 135q106 0 169 -49t40 -138q-10 -39 -32.5 -71.5t-47 -54t-64 -42t-67.5 -32t-74 -27.5q-124 -44 -166 -69q-64 -40 -80 -99h429l-29 -108h-511v1l20 75q19 70 69.5 120t111.5 80t122 58.5t110 73.5t66 107q15 55 -6.5 86.5t-77.5 31.5 q-55 0 -99.5 -30.5t-89.5 -87.5z" />
<glyph unicode="3" horiz-adv-x="603" d="M290 -14q-83 0 -142.5 37t-82.5 105l81 36q18 -52 60 -85.5t101 -33.5q62 0 107 44.5t63 110.5q18 65 -10.5 105t-96.5 40l17 65q59 0 102 29.5t55 75.5q13 51 -8.5 86t-81.5 35q-52 0 -93 -30.5t-87 -88.5l-59 30q108 143 270 143q112 0 166 -48.5t35 -119.5 q-31 -110 -152 -140q48 -12 74 -41t27.5 -61t-5.5 -66q-28 -104 -124.5 -166t-215.5 -62z" />
<glyph unicode="4" horiz-adv-x="572" d="M562 677h132l-111 -414h59l-16 -60h-59l-55 -203h-130l54 203h-362l17 60zM537 582l-362 -319h277z" />
<glyph unicode="5" horiz-adv-x="576" d="M59 107l73 32q17 -46 46.5 -70t82.5 -24q70 0 126.5 47.5t78.5 125.5q13 48 -2.5 81.5t-49.5 48t-79 18.5t-90.5 -3t-83.5 -21l90 335h467l-29 -110h-408l-41 -151q54 10 121 10q52 0 99 -12.5t86.5 -39.5t53 -70t-0.5 -105q-25 -93 -112.5 -153t-211.5 -60 q-99 0 -151.5 35.5t-64.5 85.5z" />
<glyph unicode="6" horiz-adv-x="623" d="M338 44q136 0 178 157q28 93 8.5 138.5t-95.5 45.5q-135 0 -185 -184q-42 -157 94 -157zM721 592l-62 -45q-41 88 -143 88q-107 0 -164 -70.5t-97 -219.5q83 99 206 99q95 0 157 -57.5t34 -161.5q-28 -105 -115.5 -172t-201.5 -67q-141 0 -202.5 83.5t-14.5 256.5 q43 159 150.5 261.5t259.5 102.5q142 0 193 -98z" />
<glyph unicode="7" horiz-adv-x="584" d="M201 677h544l-16 -60l-490 -617h-94l452 569h-425z" />
<glyph unicode="8" horiz-adv-x="634" d="M512 151q30 72 -7.5 118.5t-177.5 73.5q-85 -41 -118 -162q-16 -61 9.5 -100t109.5 -39q72 0 118 31t66 78zM484 633q-62 0 -103.5 -34t-55.5 -85q-5 -20 2.5 -35.5t29 -26t41 -17t51.5 -15.5t48 -14q33 21 52 43t29 60q15 53 -8 88.5t-86 35.5zM561 377q62 -19 88 -63.5 t9 -111.5q-59 -216 -345 -216q-71 0 -120.5 14t-74 35t-35 51t-9 57t9.5 59q35 127 184 174q-87 51 -62 145q19 72 92 120.5t201 48.5q130 0 176 -49t27 -120q-27 -101 -141 -144z" />
<glyph unicode="9" horiz-adv-x="623" d="M466 633q-136 0 -178 -157q-27 -93 -8 -138.5t95 -45.5q137 0 186 184q42 157 -95 157zM83 85l62 44q41 -87 143 -87q107 0 164.5 70.5t96.5 218.5q-84 -99 -205 -99q-44 0 -83 13.5t-70 40.5t-41.5 68.5t2.5 97.5q28 105 115.5 171.5t201.5 66.5q142 0 203 -83t14 -256 q-42 -159 -149.5 -262t-259.5 -103q-143 0 -194 99z" />
<glyph unicode=":" horiz-adv-x="223" d="M201 71q-7 -29 -34 -50t-56 -21t-44.5 21t-7.5 50t34.5 50t55.5 21q30 0 45 -21t7 -50zM294 416q-8 -29 -34.5 -50t-55.5 -21q-30 0 -45.5 21t-7.5 50t34.5 50t56.5 21q29 0 44.5 -21t7.5 -50z" />
<glyph unicode=";" horiz-adv-x="223" d="M294 416q-8 -29 -34 -50t-56 -21q-29 0 -44.5 21t-7.5 50t34.5 50t55.5 21q30 0 45 -21t7 -50zM90 4q-20 7 -28.5 25.5t-1.5 41.5q7 29 34 50t56 21t44.5 -21t7.5 -50q-18 -66 -71.5 -111.5t-112.5 -45.5l13 48q15 0 33.5 12t25.5 30z" />
<glyph unicode="&#x3c;" horiz-adv-x="381" d="M512 641l-22 -85l-286 -226l165 -225l-23 -85l-227 310z" />
<glyph unicode="=" horiz-adv-x="415" d="M151 411h334l-16 -60h-334zM95 204l16 60h334l-16 -60h-334z" />
<glyph unicode="&#x3e;" horiz-adv-x="381" d="M189 556l23 85l227 -311l-394 -310l23 85l286 225z" />
<glyph unicode="?" horiz-adv-x="527" d="M340 71q-7 -29 -34 -50t-56 -21t-44.5 21t-7.5 50q7 29 34 50t56 21t44.5 -21t7.5 -50zM442 678q105 0 158.5 -45.5t29.5 -135.5q-15 -55 -56 -96t-82 -62t-79.5 -54t-49.5 -73h-116q12 46 39.5 80t59 55t63 41.5t58 53t38.5 75.5q17 64 -10 88t-87 24q-50 0 -95 -31 t-71 -82l-66 31q102 131 266 131z" />
<glyph unicode="@" horiz-adv-x="801" d="M429 128q42 0 73.5 33.5t48.5 95.5q18 63 5.5 102t-54.5 40q-43 -1 -75.5 -39t-49.5 -103q-16 -61 -2.5 -95t54.5 -34zM565 635q176 0 248 -103.5t29 -261.5q-53 -202 -198 -202q-37 0 -59 19t-25 38l-4 19q-7 -6 -19.5 -14t-48.5 -22t-68 -14q-20 0 -40.5 4t-45 15 t-38.5 30t-21.5 49t5.5 72q13 50 42 86t64 53t66 24t60 7q64 0 83 -19l5 19h97l-70 -263q-14 -51 34 -51q56 0 96 150q13 48 15.5 90t-8.5 80.5t-36.5 65.5t-71.5 43t-110 16q-141 0 -232.5 -84t-125.5 -211q-10 -37 -12 -76.5t8.5 -81.5t34.5 -75t72 -54t114 -22 q107 -2 195 52l111 1q-84 -60 -157.5 -89t-165.5 -29q-77 0 -136 22t-92.5 59t-53.5 85.5t-18 101t14 106.5q40 151 176 258t287 107z" />
<glyph unicode="A" horiz-adv-x="715" d="M486 677h81l128 -677h-140l-40 180h-303l-122 -180h-70zM446 529l-193 -288h251z" />
<glyph unicode="B" horiz-adv-x="700" d="M187 60h191q85 0 137 37t67 94t-16.5 93.5t-117.5 36.5h-191zM470 617h-134l-63 -236h133q64 0 113.5 34t63.5 84q13 52 -15 85t-98 33zM723 198q-23 -87 -103.5 -142.5t-207.5 -55.5h-372l181 677h279q124 0 172.5 -53t26.5 -137q-19 -67 -67 -107q60 -19 84 -69t7 -113 z" />
<glyph unicode="C" horiz-adv-x="716" d="M570 629q-110 0 -191 -82t-115 -209q-20 -82 -15.5 -147t46 -105t114.5 -40q77 0 133.5 23t108.5 70l53 -27q-75 -67 -146 -96.5t-165 -29.5q-158 0 -234.5 102t-37.5 250q40 148 171.5 250t289.5 102q94 0 156.5 -43.5t85.5 -126.5l-74 -23q-14 71 -59 101.5t-121 30.5z " />
<glyph unicode="D" horiz-adv-x="712" d="M187 60h178q202 0 276 278q76 279 -131 279h-174zM221 677h289q161 0 232 -91t30 -247q-43 -157 -162.5 -248t-280.5 -91h-289z" />
<glyph unicode="E" horiz-adv-x="631" d="M221 677h551l-16 -60h-420l-63 -236h246l-17 -60h-245l-70 -261h420l-16 -60h-551z" />
<glyph unicode="F" horiz-adv-x="620" d="M221 677h550l-16 -60h-421l-64 -236h247l-16 -60h-247l-86 -321h-128z" />
<glyph unicode="G" horiz-adv-x="739" d="M582 690q94 0 156.5 -43t86.5 -127l-74 -23q-15 71 -59.5 101.5t-121.5 30.5q-110 0 -191.5 -82t-115.5 -209t2 -209t145 -82q94 0 183 49l56 212h-98l16 61h230l-98 -369h-132l7 26q-86 -40 -180 -40q-159 0 -236 102t-37 250q39 148 170.5 250t290.5 102z" />
<glyph unicode="H" horiz-adv-x="703" d="M713 677h131l-181 -677h-131l86 321h-361l-86 -321h-131l181 677h131l-79 -296h361z" />
<glyph unicode="I" horiz-adv-x="211" d="M40 0l181 677h131l-181 -677h-131z" />
<glyph unicode="J" horiz-adv-x="666" d="M548 195l129 482h130l-115 -429q-34 -128 -137.5 -195t-232.5 -66q-122 0 -183.5 59.5t-45.5 189.5l114 28q-29 -106 10 -161.5t121 -55.5q75 0 133.5 41t76.5 107z" />
<glyph unicode="K" horiz-adv-x="737" d="M743 677h92l-332 -235l213 -442h-156l-170 362l-151 -107l-68 -255h-131l181 677h131l-91 -342z" />
<glyph unicode="L" horiz-adv-x="634" d="M221 677h131l-165 -617h433l-17 -60h-563z" />
<glyph unicode="M" horiz-adv-x="840" d="M851 677h130l-182 -677h-131l140 522l-388 -522h-64l-131 465l-125 -465h-60l181 677h106l144 -511z" />
<glyph unicode="N" horiz-adv-x="665" d="M221 677h120l264 -524l141 524h60l-181 -677h-114l-266 540l-145 -540h-60z" />
<glyph unicode="O" horiz-adv-x="795" d="M410 46q108 0 188 82.5t114 209.5q20 82 15 147t-46.5 104.5t-114.5 39.5q-109 0 -189 -82t-114 -209q-20 -82 -15 -147t47 -105t115 -40zM393 -14q-159 0 -235 101.5t-37 250.5q40 148 171 250t290 102t235.5 -102t37.5 -250q-40 -148 -171.5 -250t-290.5 -102z" />
<glyph unicode="P" horiz-adv-x="641" d="M266 355h126q91 0 146 34.5t71 96.5q18 65 -13.5 98t-132.5 33h-127zM250 295l-79 -295h-131l181 677h282q145 0 203.5 -52t34.5 -139q-23 -88 -110 -139.5t-231 -51.5h-150z" />
<glyph unicode="Q" horiz-adv-x="796" d="M263 338q-20 -82 -15 -147t47 -105t115 -40q65 0 125 33l-126 174h171l57 -79q49 66 76 164q34 127 -2 209t-145 82t-188.5 -82t-114.5 -209zM696 98l70 -98h-169l-19 25q-89 -39 -184 -39q-159 0 -236 102t-37 250t171.5 250t290.5 102t235 -102t37 -250 q-40 -145 -159 -240z" />
<glyph unicode="R" horiz-adv-x="708" d="M266 355h126q91 0 146 34.5t71 96.5q18 65 -13.5 98t-133.5 33h-126zM559 317l119 -317h-157l-107 295h-164l-79 -295h-131l181 677h282q144 0 198 -51.5t30 -139.5q-34 -125 -172 -169z" />
<glyph unicode="S" horiz-adv-x="702" d="M342 526q-9 -32 5.5 -55t44 -35t69 -23t81.5 -18.5t80.5 -22.5t66 -35t38.5 -54.5t-2 -82.5q-28 -103 -135 -158.5t-259 -55.5q-99 0 -167.5 34t-103.5 92l73 34q61 -94 218 -94q184 0 220 139q13 50 -27 80t-105 44.5t-129 31.5t-102.5 54.5t-21.5 99.5q22 83 120.5 136 t227.5 53q83 0 145.5 -34t92.5 -98l-68 -31q-40 103 -186 103q-64 0 -114 -31t-62 -73z" />
<glyph unicode="T" horiz-adv-x="715" d="M211 677h654l-16 -60h-261l-166 -617h-130l165 617h-262z" />
<glyph unicode="U" horiz-adv-x="719" d="M355 -14q-67 0 -116 13t-77 33t-42.5 52.5t-17.5 63.5t3 73.5t14.5 75.5t20.5 76q3 10 4.5 16t4 14.5t4.5 15.5l69 258h131l-120 -448q-21 -78 16.5 -129t122.5 -51t150 51t86 129l120 448h130l-69 -258q-4 -15 -11 -45q-36 -144 -74 -211q-96 -170 -329 -177h-20z" />
<glyph unicode="V" horiz-adv-x="715" d="M805 677h71l-466 -677h-81l-128 677h144l105 -530z" />
<glyph unicode="W" horiz-adv-x="1093" d="M1183 677h71l-465 -677h-82l-53 382l-244 -382h-81l-128 677h144l105 -530l192 319l-27 211h143l71 -530z" />
<glyph unicode="X" horiz-adv-x="727" d="M790 677h79l-344 -315l171 -362h-163l-125 264l-287 -264h-82l345 315l-173 362h164l125 -265z" />
<glyph unicode="Y" horiz-adv-x="738" d="M381 677l137 -323l309 323h72l-371 -393l-76 -284h-131l73 272l-193 405h180z" />
<glyph unicode="Z" horiz-adv-x="717" d="M221 677h637l-8 -33l-615 -584h458l-16 -60h-637l11 42l604 575h-450z" />
<glyph unicode="[" horiz-adv-x="300" d="M254 799h300l-16 -60h-172l-207 -772h172l-17 -60h-299z" />
<glyph unicode="\" horiz-adv-x="811" d="M201 676h162l428 -676h-162z" />
<glyph unicode="]" horiz-adv-x="300" d="M174 799h300l-240 -892h-299l16 60h171l207 772h-171z" />
<glyph unicode="^" horiz-adv-x="364" d="M363 677l78 -275h-69l-42 150l-124 -150h-68z" />
<glyph unicode="_" horiz-adv-x="533" d="M-30 -116l16 60h532l-16 -60h-532z" />
<glyph unicode="`" horiz-adv-x="145" d="M178 664h97l9 -144h-50z" />
<glyph unicode="a" horiz-adv-x="589" d="M469 196q11 33 17 62q18 84 -8.5 126t-69.5 42q-55 0 -98 -46.5t-72 -128.5q-5 -15 -15 -55q-15 -88 7.5 -128.5t83.5 -30.5q45 7 87 48.5t68 110.5zM673 464l-125 -464h-130l9 33q-65 -47 -153 -47q-107 0 -158 69.5t-23 176.5q28 106 120.5 175.5t197.5 69.5 q82 0 120 -55l11 42h131z" />
<glyph unicode="b" horiz-adv-x="588" d="M470 196q10 26 15 55q16 81 -3 128t-74 47q-42 0 -90.5 -42t-76.5 -126q-7 -20 -16 -62q-12 -70 8 -111t61 -48q57 -11 104 31.5t72 127.5zM40 0l181 677h131l-68 -255q68 55 149 55q104 0 159 -70t27 -176t-116.5 -175.5t-195.5 -69.5q-88 0 -127 47l-9 -33h-131z" />
<glyph unicode="c" horiz-adv-x="533" d="M470 124l60 -21q-43 -60 -102 -88.5t-147 -28.5q-108 0 -161.5 73t-26.5 174q26 99 123.5 171.5t204.5 72.5q143 0 182 -104l-67 -36q-21 83 -118 83q-63 0 -113.5 -53.5t-73.5 -143.5q-25 -96 -3.5 -139t89.5 -43q102 0 153 83z" />
<glyph unicode="d" horiz-adv-x="588" d="M237 251q-4 -12 -15 -55q-21 -85 4 -127.5t88 -31.5q45 7 86.5 48.5t66.5 110.5q10 23 18 62q17 84 -9 126t-68 42q-55 0 -99.5 -47t-71.5 -128zM530 422l68 255h131l-182 -677h-130l9 33q-64 -47 -153 -47q-106 0 -157.5 69.5t-23.5 175.5q29 106 121.5 176t196.5 70 q82 0 120 -55z" />
<glyph unicode="e" d="M241 242h224q23 94 6 140t-68 46q-50 0 -93.5 -47.5t-68.5 -138.5zM608 231l-11 -43h-369q-19 -70 2.5 -111.5t77.5 -41.5q97 0 178 92l47 -38q-54 -51 -109.5 -77t-128.5 -26q-110 0 -172.5 62.5t-30.5 182.5q27 102 123 174t201 72t162.5 -71.5t29.5 -174.5z" />
<glyph unicode="f" horiz-adv-x="352" d="M518 699l-13 -49q-54 6 -92 -21.5t-54 -86.5l-21 -78h90l-17 -60h-89l-109 -404h-130l108 404h-63l16 60h63l17 61q23 87 101 135t193 39z" />
<glyph unicode="g" d="M443 164q19 37 33 103q30 152 -58 160q-119 11 -177 -159q-10 -31 -21 -95q-13 -136 83 -136q79 0 140 127zM19 -104l95 17q-6 -97 110 -97q39 0 70.5 15t48.5 32t31.5 47t17.5 41l9 33l16 57q-68 -55 -139 -55q-104 0 -159 70t-27 176q29 107 117.5 176t195.5 69 q79 0 116 -47l9 34h131l-120 -448q-26 -96 -113 -174t-212 -78q-112 0 -156 37t-41 95z" />
<glyph unicode="h" horiz-adv-x="575" d="M599 238l-64 -238h-139l66 248q25 96 9.5 136.5t-73.5 40.5q-55 0 -95.5 -42t-54.5 -96l-77 -287h-131l181 677h131l-72 -270q19 27 62.5 47.5t83.5 22.5q61 3 102 -10.5t59.5 -36t24 -57.5t1.5 -66t-14 -69z" />
<glyph unicode="i" horiz-adv-x="211" d="M40 0l124 464h131l-125 -464h-130zM338 605q-8 -29 -34 -50t-56 -21q-29 0 -44.5 21t-7.5 50q8 30 34.5 51t55.5 21q30 0 45 -21t7 -51z" />
<glyph unicode="j" horiz-adv-x="213" d="M250 534q-29 0 -44.5 21t-7.5 50q8 30 34.5 51t56.5 21q29 0 44.5 -21t7.5 -51q-8 -29 -34.5 -50t-56.5 -21zM19 -78l146 542h130l-141 -524q-21 -78 -87 -127t-172 -49l13 48q84 8 111 110z" />
<glyph unicode="k" horiz-adv-x="557" d="M221 677h131l-117 -439l266 226h86l-182 -155l122 -309h-156l-81 210l-81 -68l-38 -142h-131z" />
<glyph unicode="l" horiz-adv-x="211" d="M40 0l181 677h131l-181 -677h-131z" />
<glyph unicode="m" horiz-adv-x="939" d="M962 238l-64 -238h-139l66 248q25 96 9.5 136.5t-73.5 40.5q-52 0 -92 -39.5t-56 -92.5l-78 -293h-140l66 248q25 96 9.5 136.5t-73.5 40.5q-54 0 -94.5 -41.5t-55.5 -96.5l-76 -287h-131l124 464h131l-16 -57q19 27 62.5 47.5t83.5 22.5q168 9 186 -105h1q20 31 52 56 q54 44 125 49q61 3 102 -10.5t59.5 -36t24 -57.5t1.5 -66t-14 -69z" />
<glyph unicode="n" horiz-adv-x="575" d="M598 238l-63 -238h-140l66 248q25 96 9.5 136.5t-73.5 40.5q-54 0 -94.5 -41.5t-55.5 -96.5l-76 -287h-131l124 464h131l-16 -57q19 27 62.5 47.5t83.5 22.5q61 3 102 -10.5t59.5 -36t24 -57.5t1.5 -66t-14 -69z" />
<glyph unicode="o" d="M465 219l7 26q26 97 9.5 140t-77.5 43t-101 -43t-66 -140l-7 -26q-26 -98 -9.5 -141t77.5 -43t101 43.5t66 140.5zM285 -14q-102 0 -161 71.5t-31 174.5q28 105 124.5 175t199.5 70t161.5 -70t30.5 -175q-28 -103 -125 -174.5t-199 -71.5z" />
<glyph unicode="p" horiz-adv-x="589" d="M476 212q11 39 14 55q19 86 -5 127.5t-86 31.5q-45 -7 -86 -48t-68 -111q-11 -28 -17 -62q-16 -86 9.5 -127t67.5 -41q56 0 100 46.5t71 128.5zM182 41l-68 -255h-131l182 678h131l-9 -34q64 47 152 47q107 0 158 -69t23 -176q-28 -106 -120.5 -176t-196.5 -70 q-83 0 -121 55z" />
<glyph unicode="q" horiz-adv-x="589" d="M227 212q-18 -81 1.5 -128t75.5 -47q42 0 89.5 41t77.5 127q10 30 16 62q11 70 -8.5 111t-60.5 48q-56 11 -102.5 -31t-74.5 -128q-7 -23 -14 -55zM360 -214l69 255q-68 -55 -150 -55q-105 0 -160 70t-26 176q28 107 116.5 176t195.5 69q88 0 127 -47l9 34h131l-181 -678 h-131z" />
<glyph unicode="r" horiz-adv-x="368" d="M465 477l-19 -71q-66 20 -123.5 -15.5t-75.5 -103.5l-76 -287h-131l124 464h131l-15 -57q25 35 78 55t107 15z" />
<glyph unicode="s" horiz-adv-x="536" d="M291 363q-6 -24 21 -41.5t69.5 -31t84 -30t64.5 -49t11 -79.5q-12 -44 -45.5 -75t-77 -45.5t-80 -20t-71.5 -5.5q-76 0 -138.5 31.5t-80.5 86.5l80 35q10 -39 51 -67.5t91 -28.5q45 0 77.5 20t40.5 51q5 17 -8 30.5t-37 23.5t-53.5 20t-58.5 23t-51 29.5t-32 42t-1 58.5 q16 60 91 98t161 38q135 0 176 -93l-75 -38q-11 36 -39.5 56t-66.5 20q-39 0 -67.5 -16t-35.5 -43z" />
<glyph unicode="t" horiz-adv-x="342" d="M144 464h27q43 0 81.5 30.5t49.5 73.5l5 17h60l-32 -121h100l-16 -60h-100l-74 -275q-6 -23 0 -38t21.5 -21t29 -8t31.5 -2l-16 -60h-94q-60 0 -87.5 41.5t-11.5 101.5l70 261h-60z" />
<glyph unicode="u" horiz-adv-x="576" d="M660 464l-125 -464h-130l16 58q-20 -27 -63 -47.5t-83 -22.5q-61 -4 -102 9.5t-60 36.5t-24.5 57.5t-1.5 65.5t14 69l64 238h140l-66 -247q-25 -96 -10 -137t74 -41q54 0 94.5 42.5t54.5 96.5l77 286h131z" />
<glyph unicode="v" horiz-adv-x="576" d="M611 464h69l-297 -464h-175l-64 464h141l58 -418z" />
<glyph unicode="w" horiz-adv-x="940" d="M974 464h70l-297 -464h-175l-34 243l-155 -243h-175l-64 464h141l58 -418l183 286l-18 132h141l57 -418z" />
<glyph unicode="x" horiz-adv-x="571" d="M584 464h71l-240 -207l126 -257h-154l-83 165l-191 -165h-73l243 208l-129 256h159l81 -164z" />
<glyph unicode="y" horiz-adv-x="558" d="M26 -122l76 22q4 -40 35 -61t69 -21q39 0 70.5 15t48.5 32t31.5 46.5t18 41t9.5 32.5l12 46q-59 -45 -151 -45q-84 0 -129.5 61t-14.5 178l63 239h140l-68 -254q-23 -88 -6 -124.5t75 -36.5q95 0 127 119l79 296h131l-120 -446q-26 -97 -112 -175t-211 -78q-82 0 -126 33 t-47 80z" />
<glyph unicode="z" horiz-adv-x="540" d="M164 464h460l-17 -65l-395 -345h302l-14 -54h-460l17 65l396 345h-303z" />
<glyph unicode="{" horiz-adv-x="330" d="M411 683l-58 -219q-8 -31 -36.5 -59t-52.5 -40l-25 -12l7.5 -5t17 -14t18.5 -23t12.5 -31t-1.5 -38l-59 -219q-6 -23 6.5 -39.5t35.5 -16.5h85l-17 -60h-156q-46 0 -70.5 32.5t-12.5 79.5l56 209q10 32 3 55.5t-37 40.5l16 58q39 17 57.5 39.5t27.5 56.5l56 209 q13 46 54.5 79t88.5 33h157l-16 -60h-85q-23 0 -44 -16.5t-28 -39.5z" />
<glyph unicode="|" horiz-adv-x="141" d="M255 799h60l-239 -893h-60z" />
<glyph unicode="}" horiz-adv-x="330" d="M226 464l59 219q6 23 -6 39.5t-35 16.5h-85l16 60h157q47 0 71 -33t11 -79l-56 -209q-10 -32 -2.5 -55.5t36.5 -40.5l-16 -58q-38 -17 -57 -39.5t-28 -56.5l-56 -209q-12 -46 -54 -79t-89 -33h-156l16 60h85q23 0 44 16.5t27 39.5l59 219q8 31 36.5 59t52.5 40l24 12 l-7.5 5t-17 14t-18.5 23t-12.5 31t1.5 38z" />
<glyph unicode="~" horiz-adv-x="410" d="M461 338l-17 -62q-45 -23 -82 -23t-62.5 12.5l-51 25t-59.5 11.5t-75 -26l17 62q45 25 81 26.5t61 -10.5t49.5 -24.5t59.5 -13t79 21.5z" />
<glyph unicode="&#xa1;" horiz-adv-x="229" d="M131 -214h-148l154 466h89zM148 393q8 29 34.5 50t55.5 21q30 0 45 -21t7 -50t-34 -50t-56 -21q-29 0 -44.5 21t-7.5 50z" />
<glyph unicode="&#xa2;" horiz-adv-x="534" d="M318 42q100 0 153 83l60 -21q-76 -105 -210 -115l-21 -80h-61l22 79q-99 7 -146.5 78.5t-21.5 167.5q25 92 112 161.5t187 80.5l21 80h60l-21 -79q117 -10 152 -103l-67 -36q-21 82 -118 82q-63 0 -113.5 -53t-74.5 -143q-24 -96 -2.5 -139t89.5 -43z" />
<glyph unicode="&#xa3;" horiz-adv-x="640" d="M208 60h418l-16 -60h-570l16 61q138 89 167 198q9 31 9 73h-103l16 60h85q2 40 11 73q16 58 50.5 104t80.5 73.5t97 41.5t103 14q86 0 144 -45l-20 -73q-112 69 -206.5 31.5t-125.5 -153.5q-8 -27 -12 -66h204l-16 -60h-192q-4 -60 -12 -89q-27 -103 -128 -183z" />
<glyph unicode="&#xa4;" horiz-adv-x="463" d="M215 202q21 -29 62 -29t79 29q37 29 48 71t-10 71q-22 29 -63 29t-79 -29q-37 -29 -48 -71t11 -71zM418 176l37 -51l-54 -43l-37 51q-52 -30 -105.5 -30t-88.5 30l-65 -51l-32 43l66 51q-19 43 -5 97t57 97l-38 52l54 42l38 -51q52 30 105 30t89 -30l65 51l31 -42 l-65 -52q19 -44 4.5 -97t-56.5 -97z" />
<glyph unicode="&#xa5;" horiz-adv-x="676" d="M764 676h63l-316 -376h196l-46 -60h-176l-12 -43h206l-46 -60h-176l-36 -137h-130l36 137h-206l46 60h176l12 43h-206l46 60h158l-142 376h171l105 -323z" />
<glyph unicode="&#xa6;" horiz-adv-x="141" d="M255 799h60l-91 -341h-60zM107 248h60l-91 -342h-60z" />
<glyph unicode="&#xa7;" horiz-adv-x="498" d="M256 353q9 -7 156 -133q22 25 22.5 53.5t-14.5 37.5q-63 55 -156 132q-22 -25 -22.5 -52.5t14.5 -37.5zM502 246l-52 -64q29 -42 10 -104q-22 -73 -84.5 -120t-141.5 -44q-80 3 -126 42t-50 109l60 23q8 -109 114 -113q27 -1 51 13t37.5 34.5t13.5 43.5t-17 38l-154 130 q-34 33 -31 84.5t42 99.5l52 64q-29 42 -10 104q22 73 84.5 120t141.5 44q80 -3 126 -42t50 -109l-59 -23q-9 109 -115 113q-56 1 -88 -48t3 -81l154 -130q34 -33 31 -84.5t-42 -99.5z" />
<glyph unicode="&#xa8;" horiz-adv-x="334" d="M301 591q-7 -29 -34 -50t-56 -21t-44.5 21t-7.5 50q7 29 34 50t56 21t44.5 -21t7.5 -50zM492 591q-7 -29 -34 -50t-56 -21t-44.5 21t-7.5 50q7 29 34 50t56 21t44.5 -21t7.5 -50z" />
<glyph unicode="&#xa9;" horiz-adv-x="575" d="M431 189l32 -20q-61 -71 -142 -71q-64 0 -97 42q-30 43 -14 103q17 61 69 102q56 42 120 42q47 0 76.5 -28t26.5 -72l-46 -9q-8 66 -64 66q-37 1 -67 -30t-41 -71t2.5 -71t51.5 -31q55 0 93 48zM296 31q88 0 167.5 62t102.5 150q24 88 -22 150.5t-134 62.5t-167 -62.5 t-103 -150.5q-23 -88 22.5 -150t133.5 -62zM422 500q106 0 161.5 -75t26.5 -182q-28 -106 -123.5 -181.5t-202.5 -75.5q-106 0 -161.5 75t-26.5 182q28 106 123.5 181.5t202.5 75.5z" />
<glyph unicode="&#xaa;" horiz-adv-x="305" d="M309 477q1 1 6.5 4t8.5 5q0 3 2 11l15 56q-119 0 -120 -56q0 -27 34 -29.5t54 9.5zM416 591l-23 -87q-9 -35 17 -35l-8 -30h-29q-32 0 -44 24q-51 -31 -102 -31q-39 0 -60.5 17.5t-11.5 53.5q12 44 67.5 62t124.5 11l9 33q5 20 -6 32.5t-31 12.5q-20 -1 -38 -13t-23 -32 l-61 -2q7 26 28 42q36 28 105 28q43 0 70 -22.5t16 -63.5z" />
<glyph unicode="&#xab;" horiz-adv-x="378" d="M230 233l108 85h85l-107 -85l61 -85h-85zM200 318h85l-107 -85l61 -85h-85l-62 85z" />
<glyph unicode="&#xac;" horiz-adv-x="586" d="M152 418h506l-70 -260h-128l53 200h-377z" />
<glyph unicode="&#xad;" horiz-adv-x="415" d="M115 278l16 60h334l-16 -60h-334z" />
<glyph unicode="&#xae;" horiz-adv-x="575" d="M295 31q88 0 167 62t103 150q23 88 -22.5 150.5t-133.5 62.5t-167 -62.5t-102 -150.5q-24 -88 21.5 -150t133.5 -62zM421 500q106 0 161.5 -75t26.5 -182q-28 -106 -123.5 -181.5t-202.5 -75.5q-106 0 -161.5 75t-26.5 182q28 106 123.5 181.5t202.5 75.5zM312 262h58 q11 0 21 11t14 27q10 35 -15 35h-59zM300 220l-28 -106h-66l70 263h145q30 0 45.5 -21t7.5 -51l-2 -7q-12 -45 -57 -67l43 -117h-80l-38 106h-40z" />
<glyph unicode="&#xaf;" horiz-adv-x="268" d="M139 520l18 67h268l-18 -67h-268z" />
<glyph unicode="&#xb0;" horiz-adv-x="389" d="M303 405q87 0 117 114q15 56 0.5 91t-53.5 35t-72 -35t-48 -91q-31 -114 56 -114zM510 525q-18 -64 -82 -107.5t-133 -43.5q-70 0 -111 43.5t-23 107.5q17 64 82 107.5t133 43.5q67 0 109 -43.5t25 -107.5z" />
<glyph unicode="&#xb1;" horiz-adv-x="415" d="M422 180l-16 -60h-334l17 60h333zM350 419h136l-16 -60h-137l-36 -137h-60l36 137h-137l16 60h137l37 137h60z" />
<glyph unicode="&#xb4;" horiz-adv-x="145" d="M226 664h96l-132 -144h-50z" />
<glyph unicode="&#xb6;" horiz-adv-x="581" d="M387 647h327l-208 -776h-120l179 670h-86l-179 -670h-121l105 390q-80 0 -121.5 56.5t-20.5 136.5q22 80 93.5 136.5t151.5 56.5z" />
<glyph unicode="&#xb7;" horiz-adv-x="223" d="M273 338q-8 -29 -34.5 -50t-55.5 -21q-30 0 -45 21t-7 50t34 50t56 21q29 0 44.5 -21t7.5 -50z" />
<glyph unicode="&#xb8;" horiz-adv-x="306" d="M150 -38h12q42 0 65 -25.5t13 -61.5q-10 -37 -46.5 -62.5t-78.5 -25.5h-128l11 44h81q18 0 35 13t21 31q5 18 -4.5 31t-27.5 13h-81l70 104h99z" />
<glyph unicode="&#xba;" horiz-adv-x="299" d="M354 548l4 13q13 49 4.5 70.5t-38.5 21.5q-59 0 -83 -92l-4 -13q-12 -50 -4 -71t38 -21t50 21.5t33 70.5zM427 554q-14 -51 -62.5 -86.5t-99.5 -35.5q-52 0 -81.5 35t-14.5 87q13 51 61.5 87t99.5 36q52 0 81.5 -35t15.5 -88z" />
<glyph unicode="&#xbb;" horiz-adv-x="378" d="M210 318l62 -85l-107 -85h-85l107 85l-62 85h85zM263 318h85l62 -85l-107 -85h-85l107 85z" />
<glyph unicode="&#xbf;" horiz-adv-x="527" d="M311 393q7 29 34 50t56 21t44.5 -21t7.5 -50q-7 -29 -34 -50t-56 -21t-44.5 21t-7.5 50zM209 -214q-105 0 -158.5 45.5t-29.5 135.5q12 45 41 80t63 56.5t67.5 41.5t60.5 47t36 60h115q-12 -46 -39 -80t-59 -55t-63.5 -41.5t-58 -53t-38.5 -75.5q-17 -64 10 -88t87 -24 q50 0 95 31t71 82l66 -31q-102 -131 -266 -131z" />
<glyph unicode="&#xc0;" horiz-adv-x="715" d="M486 677h81l128 -677h-140l-40 180h-303l-122 -180h-70zM446 529l-193 -288h251zM511 877h96l9 -144h-50z" />
<glyph unicode="&#xc1;" horiz-adv-x="715" d="M486 677h81l128 -677h-140l-40 180h-303l-122 -180h-70zM446 529l-193 -288h251zM558 877h97l-133 -144h-50z" />
<glyph unicode="&#xc2;" horiz-adv-x="715" d="M486 677h81l128 -677h-140l-40 180h-303l-122 -180h-70zM446 529l-193 -288h251zM666 733h-77l-25 76l-65 -76h-78l95 110h115z" />
<glyph unicode="&#xc3;" horiz-adv-x="715" d="M486 677h81l128 -677h-140l-40 180h-303l-122 -180h-70zM446 529l-193 -288h251zM596 733q-36 2 -64 25q-40 34 -94 -20l-42 38q48 48 99 57t88 -23q40 -34 94 20l42 -37q-62 -62 -123 -60z" />
<glyph unicode="&#xc4;" horiz-adv-x="715" d="M486 677h81l128 -677h-140l-40 180h-303l-122 -180h-70zM446 529l-193 -288h251zM539 804q-8 -29 -34.5 -50t-56.5 -21q-29 0 -44.5 21t-7.5 50t34.5 50t56.5 21q29 0 44.5 -21t7.5 -50zM730 804q-8 -29 -34.5 -50t-56.5 -21q-29 0 -44.5 21t-7.5 50t34.5 50t55.5 21 q30 0 45.5 -21t7.5 -50z" />
<glyph unicode="&#xc5;" horiz-adv-x="715" d="M486 677h81l128 -677h-140l-40 180h-303l-122 -180h-70zM446 529l-193 -288h251zM533 706q30 0 41 40q5 20 0 32t-19 12q-13 0 -25 -12t-17 -32q-11 -40 20 -40zM567 833q42 0 69.5 -22.5t16.5 -62.5q-10 -40 -49.5 -62.5t-82.5 -22.5q-42 0 -69.5 22.5t-17.5 62.5 q11 40 51 62.5t82 22.5z" />
<glyph unicode="&#xc6;" horiz-adv-x="1107" d="M575 677h673l-16 -60h-418l-63 -236h247l-16 -60h-247l-70 -259h418l-17 -62h-549l48 181h-327l-145 -181h-73zM596 617l-308 -376h293l101 376h-86z" />
<glyph unicode="&#xc7;" horiz-adv-x="716" d="M570 629q-110 0 -191 -82t-115 -209q-20 -82 -15.5 -147t46 -105t114.5 -40q77 0 133.5 23t108.5 70l53 -27q-75 -67 -146 -96.5t-165 -29.5q-158 0 -234.5 102t-37.5 250q40 148 171.5 250t289.5 102q94 0 156.5 -43.5t85.5 -126.5l-74 -23q-14 71 -59 101.5t-121 30.5z M369 -38h12q42 0 65 -25.5t14 -61.5q-10 -37 -47 -62.5t-79 -25.5h-128l12 44h81q18 0 34.5 13t21.5 31t-5 31t-28 13h-81l70 104h99z" />
<glyph unicode="&#xc8;" horiz-adv-x="631" d="M221 677h551l-16 -60h-420l-63 -236h246l-17 -60h-245l-70 -261h420l-16 -60h-551zM479 877h96l9 -144h-50z" />
<glyph unicode="&#xc9;" horiz-adv-x="631" d="M221 677h551l-16 -60h-420l-63 -236h246l-17 -60h-245l-70 -261h420l-16 -60h-551zM526 877h97l-133 -144h-50z" />
<glyph unicode="&#xca;" horiz-adv-x="631" d="M221 677h551l-16 -60h-420l-63 -236h246l-17 -60h-245l-70 -261h420l-16 -60h-551zM634 733h-77l-25 76l-65 -76h-78l95 110h115z" />
<glyph unicode="&#xcb;" horiz-adv-x="631" d="M221 677h551l-16 -60h-420l-63 -236h246l-17 -60h-245l-70 -261h420l-16 -60h-551zM507 804q-8 -29 -34.5 -50t-56.5 -21q-29 0 -44.5 21t-7.5 50t34.5 50t56.5 21q29 0 44.5 -21t7.5 -50zM698 804q-8 -29 -34.5 -50t-56.5 -21q-29 0 -44.5 21t-7.5 50t34.5 50t55.5 21 q30 0 45.5 -21t7.5 -50z" />
<glyph unicode="&#xcc;" horiz-adv-x="211" d="M40 0l181 677h131l-181 -677h-131zM269 877h96l9 -144h-50z" />
<glyph unicode="&#xcd;" horiz-adv-x="211" d="M40 0l181 677h131l-181 -677h-131zM316 877h97l-133 -144h-50z" />
<glyph unicode="&#xce;" horiz-adv-x="211" d="M40 0l181 677h131l-181 -677h-131zM424 733h-77l-25 76l-65 -76h-78l95 110h115z" />
<glyph unicode="&#xcf;" horiz-adv-x="211" d="M40 0l181 677h131l-181 -677h-131zM297 804q-8 -29 -34.5 -50t-56.5 -21q-29 0 -44.5 21t-7.5 50t34.5 50t56.5 21q29 0 44.5 -21t7.5 -50zM488 804q-8 -29 -34.5 -50t-56.5 -21q-29 0 -44.5 21t-7.5 50t34.5 50t55.5 21q30 0 45.5 -21t7.5 -50z" />
<glyph unicode="&#xd0;" horiz-adv-x="712" d="M187 60h178q202 0 276 278q76 279 -131 279h-174zM221 677h289q161 0 232 -91t30 -247q-43 -157 -162.5 -248t-280.5 -91h-289zM78 328l16 60h334l-16 -60h-334z" />
<glyph unicode="&#xd1;" horiz-adv-x="665" d="M221 677h120l264 -524l141 524h60l-181 -677h-114l-266 540l-145 -540h-60zM581 733q-36 2 -64 25q-40 34 -94 -20l-42 38q48 48 99 57t88 -23q40 -34 94 20l42 -37q-62 -62 -123 -60z" />
<glyph unicode="&#xd2;" horiz-adv-x="794" d="M410 46q108 0 188 82.5t114 209.5q20 82 15 147t-46.5 104.5t-114.5 39.5q-109 0 -189 -82t-114 -209q-20 -82 -15 -147t47 -105t115 -40zM393 -14q-159 0 -235 101.5t-37 250.5q40 148 171 250t290 102t235.5 -102t37.5 -250q-40 -148 -171.5 -250t-290.5 -102zM560 877 h96l9 -144h-50z" />
<glyph unicode="&#xd3;" horiz-adv-x="794" d="M410 46q108 0 188 82.5t114 209.5q20 82 15 147t-46.5 104.5t-114.5 39.5q-109 0 -189 -82t-114 -209q-20 -82 -15 -147t47 -105t115 -40zM393 -14q-159 0 -235 101.5t-37 250.5q40 148 171 250t290 102t235.5 -102t37.5 -250q-40 -148 -171.5 -250t-290.5 -102zM608 877 h96l-133 -144h-50z" />
<glyph unicode="&#xd4;" horiz-adv-x="794" d="M410 46q108 0 188 82.5t114 209.5q20 82 15 147t-46.5 104.5t-114.5 39.5q-109 0 -189 -82t-114 -209q-20 -82 -15 -147t47 -105t115 -40zM393 -14q-159 0 -235 101.5t-37 250.5q40 148 171 250t290 102t235.5 -102t37.5 -250q-40 -148 -171.5 -250t-290.5 -102zM716 733 h-78l-24 76l-66 -76h-77l94 110h115z" />
<glyph unicode="&#xd5;" horiz-adv-x="794" d="M410 46q108 0 188 82.5t114 209.5q20 82 15 147t-46.5 104.5t-114.5 39.5q-109 0 -189 -82t-114 -209q-20 -82 -15 -147t47 -105t115 -40zM393 -14q-159 0 -235 101.5t-37 250.5q40 148 171 250t290 102t235.5 -102t37.5 -250q-40 -148 -171.5 -250t-290.5 -102zM646 733 q-38 2 -64 25q-41 35 -94 -20l-42 38q48 48 99 57t88 -23q40 -34 94 20l41 -37q-60 -62 -122 -60z" />
<glyph unicode="&#xd6;" horiz-adv-x="794" d="M410 46q108 0 188 82.5t114 209.5q20 82 15 147t-46.5 104.5t-114.5 39.5q-109 0 -189 -82t-114 -209q-20 -82 -15 -147t47 -105t115 -40zM393 -14q-159 0 -235 101.5t-37 250.5q40 148 171 250t290 102t235.5 -102t37.5 -250q-40 -148 -171.5 -250t-290.5 -102zM588 804 q-7 -29 -34 -50t-56 -21t-44.5 21t-7.5 50q7 29 34 50t56 21t44.5 -21t7.5 -50zM779 804q-7 -29 -34 -50t-56 -21t-44.5 21t-7.5 50q7 29 34 50t56 21t44.5 -21t7.5 -50z" />
<glyph unicode="&#xd7;" horiz-adv-x="359" d="M312 338l71 -97l-54 -42l-71 96l-122 -96l-31 42l122 97l-70 97l53 42l71 -96l123 96l31 -42z" />
<glyph unicode="&#xd8;" horiz-adv-x="794" d="M410 46q108 0 188 82.5t114 209.5q20 82 15 147t-46.5 104.5t-114.5 39.5q-109 0 -189 -82t-114 -209q-20 -82 -15 -147t47 -105t115 -40zM393 -14q-159 0 -235 101.5t-37 250.5q40 148 171 250t290 102t235.5 -102t37.5 -250q-40 -148 -171.5 -250t-290.5 -102zM802 676 h162l-790 -676h-162z" />
<glyph unicode="&#xd9;" horiz-adv-x="719" d="M355 -14q-67 0 -116 13t-77 33t-42.5 52.5t-17.5 63.5t3 73.5t14.5 75.5t20.5 76q3 10 4.5 16t4 14.5t4.5 15.5l69 258h131l-120 -448q-21 -78 16.5 -129t122.5 -51t150 51t86 129l120 448h130l-69 -258q-4 -15 -11 -45q-36 -144 -74 -211q-96 -170 -329 -177h-20z M523 877h96l9 -144h-50z" />
<glyph unicode="&#xda;" horiz-adv-x="719" d="M355 -14q-67 0 -116 13t-77 33t-42.5 52.5t-17.5 63.5t3 73.5t14.5 75.5t20.5 76q3 10 4.5 16t4 14.5t4.5 15.5l69 258h131l-120 -448q-21 -78 16.5 -129t122.5 -51t150 51t86 129l120 448h130l-69 -258q-4 -15 -11 -45q-36 -144 -74 -211q-96 -170 -329 -177h-20z M570 877h97l-133 -144h-50z" />
<glyph unicode="&#xdb;" horiz-adv-x="719" d="M355 -14q-67 0 -116 13t-77 33t-42.5 52.5t-17.5 63.5t3 73.5t14.5 75.5t20.5 76q3 10 4.5 16t4 14.5t4.5 15.5l69 258h131l-120 -448q-21 -78 16.5 -129t122.5 -51t150 51t86 129l120 448h130l-69 -258q-4 -15 -11 -45q-36 -144 -74 -211q-96 -170 -329 -177h-20z M678 733h-77l-25 76l-65 -76h-78l95 110h115z" />
<glyph unicode="&#xdc;" horiz-adv-x="719" d="M355 -14q-67 0 -116 13t-77 33t-42.5 52.5t-17.5 63.5t3 73.5t14.5 75.5t20.5 76q3 10 4.5 16t4 14.5t4.5 15.5l69 258h131l-120 -448q-21 -78 16.5 -129t122.5 -51t150 51t86 129l120 448h130l-69 -258q-4 -15 -11 -45q-36 -144 -74 -211q-96 -170 -329 -177h-20z M551 804q-8 -29 -34.5 -50t-56.5 -21q-29 0 -44.5 21t-7.5 50t34.5 50t56.5 21q29 0 44.5 -21t7.5 -50zM742 804q-8 -29 -34.5 -50t-56.5 -21q-29 0 -44.5 21t-7.5 50t34.5 50t55.5 21q30 0 45.5 -21t7.5 -50z" />
<glyph unicode="&#xdd;" horiz-adv-x="738" d="M381 677l137 -323l309 323h72l-371 -393l-76 -284h-131l73 272l-193 405h180zM620 877h96l-133 -144h-50z" />
<glyph unicode="&#xde;" horiz-adv-x="621" d="M230 224h191q42 0 80.5 38.5t54.5 97.5q15 58 -3.5 92.5t-61.5 34.5h-190zM318 547h246q72 0 109 -51t18 -122l-5 -18q-21 -80 -91.5 -136t-150.5 -56h-230l-44 -164h-130l181 677h132z" />
<glyph unicode="&#xdf;" horiz-adv-x="586" d="M232 61l68 34q13 -38 49.5 -42.5t71 20.5t45.5 64q9 35 -2.5 63t-33.5 48.5t-44 41.5t-33 52t0 70q8 29 28.5 53t41 37t40.5 34t26 44q8 29 -5.5 50.5t-56.5 21.5q-81 0 -112 -111l-145 -541h-130l138 514q50 183 263 185q76 2 128 -36.5t37 -93.5q-8 -29 -27.5 -50 t-38 -30t-36 -24.5t-22.5 -34.5q-7 -26 6.5 -47.5t37 -37.5t45.5 -40.5t31.5 -56.5t-3.5 -86q-21 -79 -87 -127.5t-165 -48.5q-91 0 -115 75z" />
<glyph unicode="&#xe0;" horiz-adv-x="589" d="M469 196q11 33 17 62q18 84 -8.5 126t-69.5 42q-55 0 -98 -46.5t-72 -128.5q-5 -15 -15 -55q-15 -88 7.5 -128.5t83.5 -30.5q45 7 87 48.5t68 110.5zM673 464l-125 -464h-130l9 33q-65 -47 -153 -47q-107 0 -158 69.5t-23 176.5q28 106 120.5 175.5t197.5 69.5 q82 0 120 -55l11 42h131zM400 664h97l9 -144h-50z" />
<glyph unicode="&#xe1;" horiz-adv-x="589" d="M469 196q11 33 17 62q18 84 -8.5 126t-69.5 42q-55 0 -98 -46.5t-72 -128.5q-5 -15 -15 -55q-15 -88 7.5 -128.5t83.5 -30.5q45 7 87 48.5t68 110.5zM673 464l-125 -464h-130l9 33q-65 -47 -153 -47q-107 0 -158 69.5t-23 176.5q28 106 120.5 175.5t197.5 69.5 q82 0 120 -55l11 42h131zM448 664h96l-132 -144h-50z" />
<glyph unicode="&#xe2;" horiz-adv-x="589" d="M469 196q11 33 17 62q18 84 -8.5 126t-69.5 42q-55 0 -98 -46.5t-72 -128.5q-5 -15 -15 -55q-15 -88 7.5 -128.5t83.5 -30.5q45 7 87 48.5t68 110.5zM673 464l-125 -464h-130l9 33q-65 -47 -153 -47q-107 0 -158 69.5t-23 176.5q28 106 120.5 175.5t197.5 69.5 q82 0 120 -55l11 42h131zM556 520h-77l-25 76l-65 -76h-78l95 110h115z" />
<glyph unicode="&#xe3;" horiz-adv-x="589" d="M469 196q11 33 17 62q18 84 -8.5 126t-69.5 42q-55 0 -98 -46.5t-72 -128.5q-5 -15 -15 -55q-15 -88 7.5 -128.5t83.5 -30.5q45 7 87 48.5t68 110.5zM673 464l-125 -464h-130l9 33q-65 -47 -153 -47q-107 0 -158 69.5t-23 176.5q28 106 120.5 175.5t197.5 69.5 q82 0 120 -55l11 42h131zM486 520q-36 2 -64 25q-40 34 -94 -20l-42 38q48 48 99 57t88 -23q40 -34 94 20l42 -37q-62 -62 -123 -60z" />
<glyph unicode="&#xe4;" horiz-adv-x="589" d="M469 196q11 33 17 62q18 84 -8.5 126t-69.5 42q-55 0 -98 -46.5t-72 -128.5q-5 -15 -15 -55q-15 -88 7.5 -128.5t83.5 -30.5q45 7 87 48.5t68 110.5zM673 464l-125 -464h-130l9 33q-65 -47 -153 -47q-107 0 -158 69.5t-23 176.5q28 106 120.5 175.5t197.5 69.5 q82 0 120 -55l11 42h131zM429 591q-8 -29 -34.5 -50t-56.5 -21q-29 0 -44.5 21t-7.5 50t34.5 50t55.5 21q30 0 45.5 -21t7.5 -50zM620 591q-8 -29 -34.5 -50t-56.5 -21q-29 0 -44.5 21t-7.5 50t34.5 50t55.5 21q30 0 45.5 -21t7.5 -50z" />
<glyph unicode="&#xe5;" horiz-adv-x="589" d="M469 196q11 33 17 62q18 84 -8.5 126t-69.5 42q-55 0 -98 -46.5t-72 -128.5q-5 -15 -15 -55q-15 -88 7.5 -128.5t83.5 -30.5q45 7 87 48.5t68 110.5zM673 464l-125 -464h-130l9 33q-65 -47 -153 -47q-107 0 -158 69.5t-23 176.5q28 106 120.5 175.5t197.5 69.5 q82 0 120 -55l11 42h131zM455 563q31 0 42 40q5 19 0 31.5t-19 12.5q-13 0 -25 -12t-17 -32q-11 -40 19 -40zM489 690q42 0 69.5 -22.5t17.5 -62.5t-50 -62.5t-82 -22.5q-43 0 -70 22t-17 63q11 40 51 62.5t81 22.5z" />
<glyph unicode="&#xe6;" horiz-adv-x="915" d="M572 242h243l5 18q14 62 11 97q-7 71 -89 71q-89 0 -133 -84q-22 -42 -36 -99zM371 78q5 2 31 16q0 8 4 24l29 111q-236 0 -239 -112q0 -29 19.5 -44t48.5 -15.5t57.5 5t49.5 15.5zM755 477q103 0 162 -69.5t31 -174.5l-1 -3q-7 -23 -16 -42h-373q-16 -80 3 -116.5 t75 -36.5q91 0 138 81h111q-50 -59 -121.5 -94.5t-140.5 -35.5q-55 0 -100.5 22.5t-71.5 62.5q-111 -85 -244 -85q-78 0 -120 35t-22 108q16 59 76.5 96t139.5 48t167 2l17 66q11 40 -12 65t-62 24q-40 -1 -75.5 -25t-46.5 -64l-121 -3q14 52 55 83q74 56 211 56 q108 0 156 -61q88 61 185 61z" />
<glyph unicode="&#xe7;" horiz-adv-x="533" d="M470 124l60 -21q-43 -60 -102 -88.5t-147 -28.5q-108 0 -161.5 73t-26.5 174q26 99 123.5 171.5t204.5 72.5q143 0 182 -104l-67 -36q-21 83 -118 83q-63 0 -113.5 -53.5t-73.5 -143.5q-25 -96 -3.5 -139t89.5 -43q102 0 153 83zM287 -38h12q42 0 65.5 -25.5t13.5 -61.5 q-10 -37 -47 -62.5t-79 -25.5h-128l12 44h81q18 0 35 13t21 31q5 18 -4.5 31t-27.5 13h-81l70 104h99z" />
<glyph unicode="&#xe8;" d="M241 242h224q23 94 6 140t-68 46q-50 0 -93.5 -47.5t-68.5 -138.5zM608 231l-11 -43h-369q-19 -70 2.5 -111.5t77.5 -41.5q97 0 178 92l47 -38q-54 -51 -109.5 -77t-128.5 -26q-110 0 -172.5 62.5t-30.5 182.5q27 102 123 174t201 72t162.5 -71.5t29.5 -174.5zM394 664 h97l9 -144h-50z" />
<glyph unicode="&#xe9;" d="M241 242h224q23 94 6 140t-68 46q-50 0 -93.5 -47.5t-68.5 -138.5zM608 231l-11 -43h-369q-19 -70 2.5 -111.5t77.5 -41.5q97 0 178 92l47 -38q-54 -51 -109.5 -77t-128.5 -26q-110 0 -172.5 62.5t-30.5 182.5q27 102 123 174t201 72t162.5 -71.5t29.5 -174.5zM442 664 h96l-132 -144h-50z" />
<glyph unicode="&#xea;" d="M241 242h224q23 94 6 140t-68 46q-50 0 -93.5 -47.5t-68.5 -138.5zM608 231l-11 -43h-369q-19 -70 2.5 -111.5t77.5 -41.5q97 0 178 92l47 -38q-54 -51 -109.5 -77t-128.5 -26q-110 0 -172.5 62.5t-30.5 182.5q27 102 123 174t201 72t162.5 -71.5t29.5 -174.5zM550 520 h-77l-25 76l-65 -76h-78l95 110h115z" />
<glyph unicode="&#xeb;" d="M241 242h224q23 94 6 140t-68 46q-50 0 -93.5 -47.5t-68.5 -138.5zM608 231l-11 -43h-369q-19 -70 2.5 -111.5t77.5 -41.5q97 0 178 92l47 -38q-54 -51 -109.5 -77t-128.5 -26q-110 0 -172.5 62.5t-30.5 182.5q27 102 123 174t201 72t162.5 -71.5t29.5 -174.5zM423 591 q-8 -29 -34.5 -50t-56.5 -21q-29 0 -44.5 21t-7.5 50t34.5 50t55.5 21q30 0 45.5 -21t7.5 -50zM614 591q-8 -29 -34.5 -50t-56.5 -21q-29 0 -44.5 21t-7.5 50t34.5 50t55.5 21q30 0 45.5 -21t7.5 -50z" />
<glyph unicode="&#xec;" horiz-adv-x="212" d="M41 0l124 464h131l-125 -464h-130zM212 664h96l9 -144h-50z" />
<glyph unicode="&#xed;" horiz-adv-x="212" d="M41 0l124 464h131l-125 -464h-130zM260 664h96l-133 -144h-50z" />
<glyph unicode="&#xee;" horiz-adv-x="212" d="M41 0l124 464h131l-125 -464h-130zM368 520h-78l-24 76l-66 -76h-77l94 110h115z" />
<glyph unicode="&#xef;" horiz-adv-x="212" d="M41 0l124 464h131l-125 -464h-130zM240 591q-7 -29 -34 -50t-56 -21t-44.5 21t-7.5 50q7 29 34 50t56 21t44.5 -21t7.5 -50zM431 591q-8 -29 -34.5 -50t-55.5 -21t-44.5 21t-7.5 50q7 29 34 50t56 21t44.5 -21t7.5 -50z" />
<glyph unicode="&#xf0;" horiz-adv-x="578" d="M646 644l7 -63l-65 -22q68 -151 31 -289q-35 -130 -128 -207t-218 -77q-107 0 -158 69t-23 176q28 106 120.5 176t196.5 70q82 0 120 -55q-3 49 -31 107l-94 -32l-6 63l68 23q-19 26 -40 43q43 34 96 51q4 -6 11.5 -18t14 -23t12.5 -21zM236 251q-1 -3 -14 -55 q-21 -86 3.5 -128t87.5 -31q45 7 86.5 48t67.5 111q11 34 17 62q17 84 -8.5 126t-68.5 42q-55 0 -99 -47t-72 -128z" />
<glyph unicode="&#xf1;" horiz-adv-x="575" d="M598 238l-63 -238h-140l66 248q25 96 9.5 136.5t-73.5 40.5q-54 0 -94.5 -41.5t-55.5 -96.5l-76 -287h-131l124 464h131l-16 -57q19 27 62.5 47.5t83.5 22.5q61 3 102 -10.5t59.5 -36t24 -57.5t1.5 -66t-14 -69zM479 520q-36 2 -64 25q-40 34 -94 -20l-42 38q48 48 99 57 t88 -23q40 -34 94 20l42 -37q-62 -62 -123 -60z" />
<glyph unicode="&#xf2;" d="M465 219l7 26q26 97 9.5 140t-77.5 43t-101 -43t-66 -140l-7 -26q-26 -98 -9.5 -141t77.5 -43t101 43.5t66 140.5zM285 -14q-102 0 -161 71.5t-31 174.5q28 105 124.5 175t199.5 70t161.5 -70t30.5 -175q-28 -103 -125 -174.5t-199 -71.5zM394 664h97l9 -144h-50z" />
<glyph unicode="&#xf3;" d="M465 219l7 26q26 97 9.5 140t-77.5 43t-101 -43t-66 -140l-7 -26q-26 -98 -9.5 -141t77.5 -43t101 43.5t66 140.5zM285 -14q-102 0 -161 71.5t-31 174.5q28 105 124.5 175t199.5 70t161.5 -70t30.5 -175q-28 -103 -125 -174.5t-199 -71.5zM442 664h96l-132 -144h-50z" />
<glyph unicode="&#xf4;" d="M465 219l7 26q26 97 9.5 140t-77.5 43t-101 -43t-66 -140l-7 -26q-26 -98 -9.5 -141t77.5 -43t101 43.5t66 140.5zM285 -14q-102 0 -161 71.5t-31 174.5q28 105 124.5 175t199.5 70t161.5 -70t30.5 -175q-28 -103 -125 -174.5t-199 -71.5zM550 520h-77l-25 76l-65 -76 h-78l95 110h115z" />
<glyph unicode="&#xf5;" d="M465 219l7 26q26 97 9.5 140t-77.5 43t-101 -43t-66 -140l-7 -26q-26 -98 -9.5 -141t77.5 -43t101 43.5t66 140.5zM285 -14q-102 0 -161 71.5t-31 174.5q28 105 124.5 175t199.5 70t161.5 -70t30.5 -175q-28 -103 -125 -174.5t-199 -71.5zM480 520q-36 2 -64 25 q-40 34 -94 -20l-42 38q48 48 99 57t88 -23q40 -34 94 20l42 -37q-62 -62 -123 -60z" />
<glyph unicode="&#xf6;" d="M465 219l7 26q26 97 9.5 140t-77.5 43t-101 -43t-66 -140l-7 -26q-26 -98 -9.5 -141t77.5 -43t101 43.5t66 140.5zM285 -14q-102 0 -161 71.5t-31 174.5q28 105 124.5 175t199.5 70t161.5 -70t30.5 -175q-28 -103 -125 -174.5t-199 -71.5zM423 591q-8 -29 -34.5 -50 t-56.5 -21q-29 0 -44.5 21t-7.5 50t34.5 50t55.5 21q30 0 45.5 -21t7.5 -50zM614 591q-8 -29 -34.5 -50t-56.5 -21q-29 0 -44.5 21t-7.5 50t34.5 50t55.5 21q30 0 45.5 -21t7.5 -50z" />
<glyph unicode="&#xf7;" horiz-adv-x="414" d="M473 368l-17 -60h-333l16 60h334zM380 489q-4 -18 -20 -30t-33 -12q-18 0 -27 12t-4 30q4 17 20 29.5t33 12.5t26.5 -12.5t4.5 -29.5zM299 187q-4 -17 -20 -29.5t-33 -12.5t-26.5 12.5t-4.5 29.5q4 18 20 30t33 12q18 0 27 -12t4 -30z" />
<glyph unicode="&#xf8;" d="M465 219l7 26q26 97 9.5 140t-77.5 43t-101 -43t-66 -140l-7 -26q-26 -98 -9.5 -141t77.5 -43t101 43.5t66 140.5zM285 -14q-102 0 -161 71.5t-31 174.5q28 105 124.5 175t199.5 70t161.5 -70t30.5 -175q-28 -103 -125 -174.5t-199 -71.5zM552 464h92l-499 -464h-92z" />
<glyph unicode="&#xf9;" horiz-adv-x="576" d="M660 464l-125 -464h-130l16 58q-20 -27 -63 -47.5t-83 -22.5q-61 -4 -102 9.5t-60 36.5t-24.5 57.5t-1.5 65.5t14 69l64 238h140l-66 -247q-25 -96 -10 -137t74 -41q54 0 94.5 42.5t54.5 96.5l77 286h131zM394 664h96l9 -144h-50z" />
<glyph unicode="&#xfa;" horiz-adv-x="576" d="M660 464l-125 -464h-130l16 58q-20 -27 -63 -47.5t-83 -22.5q-61 -4 -102 9.5t-60 36.5t-24.5 57.5t-1.5 65.5t14 69l64 238h140l-66 -247q-25 -96 -10 -137t74 -41q54 0 94.5 42.5t54.5 96.5l77 286h131zM442 664h96l-133 -144h-50z" />
<glyph unicode="&#xfb;" horiz-adv-x="576" d="M660 464l-125 -464h-130l16 58q-20 -27 -63 -47.5t-83 -22.5q-61 -4 -102 9.5t-60 36.5t-24.5 57.5t-1.5 65.5t14 69l64 238h140l-66 -247q-25 -96 -10 -137t74 -41q54 0 94.5 42.5t54.5 96.5l77 286h131zM550 520h-78l-24 76l-66 -76h-77l94 110h115z" />
<glyph unicode="&#xfc;" horiz-adv-x="576" d="M660 464l-125 -464h-130l16 58q-20 -27 -63 -47.5t-83 -22.5q-61 -4 -102 9.5t-60 36.5t-24.5 57.5t-1.5 65.5t14 69l64 238h140l-66 -247q-25 -96 -10 -137t74 -41q54 0 94.5 42.5t54.5 96.5l77 286h131zM422 591q-7 -29 -34 -50t-56 -21t-44.5 21t-7.5 50q7 29 34 50 t56 21t44.5 -21t7.5 -50zM613 591q-8 -29 -34.5 -50t-55.5 -21t-44.5 21t-7.5 50q7 29 34 50t56 21t44.5 -21t7.5 -50z" />
<glyph unicode="&#xfd;" horiz-adv-x="558" d="M26 -122l76 22q4 -40 35 -61t69 -21q39 0 70.5 15t48.5 32t31.5 46.5t18 41t9.5 32.5l12 46q-59 -45 -151 -45q-84 0 -129.5 61t-14.5 178l63 239h140l-68 -254q-23 -88 -6 -124.5t75 -36.5q95 0 127 119l79 296h131l-120 -446q-26 -97 -112 -175t-211 -78q-82 0 -126 33 t-47 80zM433 664h96l-133 -144h-50z" />
<glyph unicode="&#xfe;" horiz-adv-x="587" d="M475 215q8 20 16 56q18 86 -5.5 127.5t-86.5 31.5q-45 -7 -86.5 -48.5t-66.5 -110.5q-13 -33 -18 -62q-18 -86 8.5 -127.5t69.5 -41.5q55 0 99 47t70 128zM440 480q107 0 157.5 -69t22.5 -176q-28 -106 -120 -175.5t-197 -69.5q-81 0 -120 55l-68 -255h-130l237 887h130 l-65 -244q63 47 153 47z" />
<glyph unicode="&#xff;" horiz-adv-x="558" d="M26 -122l76 22q4 -40 35 -61t69 -21q39 0 70.5 15t48.5 32t31.5 46.5t18 41t9.5 32.5l12 46q-59 -45 -151 -45q-84 0 -129.5 61t-14.5 178l63 239h140l-68 -254q-23 -88 -6 -124.5t75 -36.5q95 0 127 119l79 296h131l-120 -446q-26 -97 -112 -175t-211 -78q-82 0 -126 33 t-47 80zM413 591q-7 -29 -34 -50t-56 -21t-44.5 21t-7.5 50q7 29 34 50t56 21t44.5 -21t7.5 -50zM604 591q-8 -29 -34.5 -50t-55.5 -21t-44.5 21t-7.5 50q7 29 34 50t56 21t44.5 -21t7.5 -50z" />
<glyph unicode="&#x152;" horiz-adv-x="1134" d="M263 337q-34 -127 2 -209.5t144 -82.5q89 0 160 57q1 3 3 7.5t3 6.5l119 444q0 2 0.5 5.5t1.5 5.5q-43 57 -130 57q-109 0 -189 -82t-114 -209zM690 60h420l-16 -60h-587q-55 -15 -114 -15q-159 0 -235.5 102t-36.5 250t171 250t290 102q57 0 100 -13h593l-16 -60h-420 l-63 -235h246l-16 -61h-246z" />
<glyph unicode="&#x153;" horiz-adv-x="953" d="M610 242h243q20 77 15 116q-6 70 -89 70q-88 0 -132 -84q-20 -37 -37 -102zM464 219l8 26q25 97 8.5 140t-76.5 43q-61 0 -101 -43t-66 -140l-7 -26q-26 -98 -9.5 -141t77.5 -43t101 43.5t65 140.5zM93 232q27 102 124.5 173.5t199.5 71.5q111 0 168 -78q97 78 208 78 q103 0 161.5 -69.5t30.5 -174.5l-1 -2q-3 -17 -15 -42h-373q-17 -81 2.5 -117.5t75.5 -36.5q89 0 137 81h112q-51 -59 -122 -94.5t-140 -35.5q-111 0 -168 78q-101 -78 -208 -78q-102 0 -161 70.5t-31 175.5z" />
<glyph unicode="&#x178;" horiz-adv-x="738" d="M381 677l137 -323l309 323h72l-371 -393l-76 -284h-131l73 272l-193 405h180zM600 804q-7 -29 -34 -50t-56 -21t-44.5 21t-7.5 50q7 29 34 50t56 21t44.5 -21t7.5 -50zM791 804q-7 -29 -34 -50t-56 -21t-44.5 21t-7.5 50q7 29 34 50t56 21t44.5 -21t7.5 -50z" />
<glyph unicode="&#x2c6;" horiz-adv-x="246" d="M385 520h-78l-24 76l-66 -76h-77l94 110h115z" />
<glyph unicode="&#x2dc;" horiz-adv-x="318" d="M351 520q-38 2 -64 25q-41 35 -94 -20l-42 38q48 48 98.5 57t87.5 -23q42 -34 94 20l42 -37q-60 -62 -122 -60z" />
<glyph unicode="&#x2000;" horiz-adv-x="438" />
<glyph unicode="&#x2001;" horiz-adv-x="877" />
<glyph unicode="&#x2002;" horiz-adv-x="438" />
<glyph unicode="&#x2003;" horiz-adv-x="877" />
<glyph unicode="&#x2004;" horiz-adv-x="292" />
<glyph unicode="&#x2005;" horiz-adv-x="219" />
<glyph unicode="&#x2006;" horiz-adv-x="146" />
<glyph unicode="&#x2007;" horiz-adv-x="146" />
<glyph unicode="&#x2008;" horiz-adv-x="109" />
<glyph unicode="&#x2009;" horiz-adv-x="175" />
<glyph unicode="&#x200a;" horiz-adv-x="48" />
<glyph unicode="&#x2010;" horiz-adv-x="415" d="M115 278l16 60h334l-16 -60h-334z" />
<glyph unicode="&#x2011;" horiz-adv-x="415" d="M115 278l16 60h334l-16 -60h-334z" />
<glyph unicode="&#x2012;" horiz-adv-x="415" d="M115 278l16 60h334l-16 -60h-334z" />
<glyph unicode="&#x2013;" horiz-adv-x="500" d="M115 278l16 60h419l-16 -60h-419z" />
<glyph unicode="&#x2014;" horiz-adv-x="696" d="M131 338h615l-16 -60h-615z" />
<glyph unicode="&#x2018;" horiz-adv-x="140" d="M249 677h62l-57 -213h-119z" />
<glyph unicode="&#x2019;" horiz-adv-x="140" d="M192 677h119l-114 -212h-62z" />
<glyph unicode="&#x201a;" horiz-adv-x="160" d="M-18 -142l54 202h119l-111 -202h-62z" />
<glyph unicode="&#x201c;" horiz-adv-x="287" d="M401 465h-119l114 212h62zM254 465h-119l114 212h62z" />
<glyph unicode="&#x201d;" horiz-adv-x="287" d="M192 677h119l-114 -213h-62zM339 677h119l-115 -213h-61z" />
<glyph unicode="&#x201e;" horiz-adv-x="307" d="M36 60h119l-108 -192h-62zM183 60h119l-108 -192h-62z" />
<glyph unicode="&#x2022;" horiz-adv-x="301" d="M351 338q-13 -48 -55.5 -81.5t-90.5 -33.5t-72.5 33.5t-11.5 81.5t55.5 81.5t90.5 33.5t72.5 -33.5t11.5 -81.5z" />
<glyph unicode="&#x2026;" horiz-adv-x="669" d="M201 71q-7 -29 -34 -50t-56 -21t-44.5 21t-7.5 50t34.5 50t55.5 21q30 0 45 -21t7 -50zM424 71q-7 -29 -34 -50t-56 -21t-44.5 21t-7.5 50t34.5 50t55.5 21q30 0 45 -21t7 -50zM647 71q-7 -29 -34 -50t-56 -21t-44.5 21t-7.5 50t34.5 50t55.5 21q30 0 45 -21t7 -50z" />
<glyph unicode="&#x202f;" horiz-adv-x="175" />
<glyph unicode="&#x2039;" horiz-adv-x="240" d="M200 318h85l-107 -85l61 -85h-85l-62 85z" />
<glyph unicode="&#x203a;" horiz-adv-x="240" d="M125 318h85l62 -85l-107 -85h-85l107 85z" />
<glyph unicode="&#x205f;" horiz-adv-x="219" />
<glyph unicode="&#x20ac;" horiz-adv-x="685" d="M425 46q57 0 115 29.5t99 79.5h58l-22 -26q-122 -143 -266 -143q-100 0 -163 73.5t-53 196.5h-104l46 61h67q1 3 2.5 10t2.5 11q4 14 7 21h-97l46 61h74q55 123 157.5 196.5t202.5 73.5q165 0 192 -191h-63q-15 130 -145 130q-129 0 -205 -209h349l-46 -61h-323l-6 -21 q-1 -4 -2.5 -11t-2.5 -10h302l-46 -61h-269q-37 -210 93 -210z" />
<glyph unicode="&#x2122;" horiz-adv-x="901" d="M951 677h91l-102 -382h-97l62 231l-157 -204h-49l-61 182l-56 -209h-61l86 321h-152l-86 -321h-98l86 321h-152l16 61h480l75 -228z" />
<glyph unicode="&#x25fc;" horiz-adv-x="465" d="M0 465h465v-465h-465v465z" />
</font>
</defs>
</svg>
