<?xml version="1.0" standalone="no"?>
<!DOCTYPE svg PUBLIC "-//W3C//DTD SVG 1.1//EN" "http://www.w3.org/Graphics/SVG/1.1/DTD/svg11.dtd" >
<svg xmlns="http://www.w3.org/2000/svg" xmlns:xlink="http://www.w3.org/1999/xlink" version="1.1">
<metadata></metadata>
<defs>
<font id="sentasansregular" horiz-adv-x="577" >
<font-face units-per-em="1000" ascent="750" descent="-250" />
<missing-glyph horiz-adv-x="370" />
<glyph horiz-adv-x="0" />
<glyph horiz-adv-x="0" />
<glyph unicode="&#xd;" horiz-adv-x="250" />
<glyph unicode=" "  horiz-adv-x="370" />
<glyph unicode="&#x09;" horiz-adv-x="370" />
<glyph unicode="&#xa0;" horiz-adv-x="370" />
<glyph unicode="!" horiz-adv-x="229" d="M40 678h148l-30 -466h-88zM185 71q0 -29 -21 -50t-50 -21t-50 21t-21 50t21 50t50 21t50 -21t21 -50z" />
<glyph unicode="&#x22;" horiz-adv-x="307" d="M20 677h119l-57 -242h-62v242zM167 677h119l-57 -242h-62v242z" />
<glyph unicode="#" horiz-adv-x="770" d="M540 676h135l-59 -199h123l-18 -60h-122l-47 -158h128l-18 -60h-128l-58 -199h-135l58 199h-111l-58 -199h-135l58 199h-123l18 60h123l47 158h-129l18 60h128l59 199h135l-59 -199h111zM353 417l-47 -158h111l47 158h-111z" />
<glyph unicode="$" horiz-adv-x="610" d="M324 325v-258q57 8 89 45t32 92q0 50 -31.5 77t-89.5 44zM174 539q0 -74 90 -105v207q-42 -8 -66 -36.5t-24 -65.5zM579 213q0 -95 -71.5 -150t-183.5 -62v-48h-60v48q-154 10 -234 131l64 38q21 -40 65.5 -68.5t104.5 -34.5v273q-111 26 -150 48q-73 42 -73 126 q0 78 61 129.5t162 58.5v48l60 1v-49q149 -12 213 -132l-55 -29q-45 88 -158 101v-224l27 -6q31 -7 47 -10.5t44.5 -12.5t44 -18t36 -24t31 -33t18 -44t7.5 -57z" />
<glyph unicode="%" horiz-adv-x="892" d="M204 662q-86 0 -86 -114q0 -56 23.5 -91t62.5 -35q40 0 63.5 34.5t23.5 91.5q0 114 -87 114zM204 391q-67 0 -120.5 43.5t-53.5 107.5t52.5 107.5t121.5 43.5q70 0 122.5 -43.5t52.5 -107.5t-53.5 -107.5t-121.5 -43.5zM686 15q87 0 87 114q0 56 -24 91t-63 35t-63 -35 t-24 -91q0 -114 87 -114zM686 286q68 0 121.5 -43.5t53.5 -107.5t-52.5 -107.5t-122.5 -43.5q-69 0 -121.5 43.5t-52.5 107.5t53.5 107.5t120.5 43.5zM669 677h162l-609 -677h-162z" />
<glyph unicode="&#x26;" horiz-adv-x="685" d="M275 79q70 3 152 48q-25 37 -78.5 120.5t-78.5 120.5q-72 -58 -102 -104.5t-19 -94.5q10 -44 45.5 -68t80.5 -22zM404 689q-33 26 -65 24t-48 -24t-19.5 -53t19.5 -64l48 -76q55 44 76.5 85.5t15.5 66.5t-27 41zM616 295l38 -60q-43 -51 -88 -96l88 -139h-145 q-15 23 -38 58q-123 -87 -239 -87q-92 0 -146.5 55.5t-54.5 134.5q0 74 50.5 133.5t152.5 129.5q-51 79 -56 87q-64 96 -23 169q24 42 67 64t93 23q46 0 85 -17.5t61 -50.5q28 -38 21.5 -82.5t-34.5 -86.5t-77 -84l157 -247q49 43 88 96z" />
<glyph unicode="'" horiz-adv-x="160" d="M20 677h119l-57 -242h-62v242z" />
<glyph unicode="(" horiz-adv-x="299" d="M40 353q0 94 19 172.5t46.5 126.5t61.5 82t62 48.5t50 16.5v-68q-110 -52 -110 -378t110 -378v-69q-22 3 -50 17.5t-62 48.5t-61.5 82t-46.5 126.5t-19 172.5z" />
<glyph unicode=")" horiz-adv-x="299" d="M259 353q0 -116 -27.5 -207t-68 -139.5t-77.5 -72.5t-66 -28v69q111 53 111 378t-111 378v68q22 -2 50 -16.5t62.5 -48.5t62 -82t46 -126.5t18.5 -172.5z" />
<glyph unicode="*" horiz-adv-x="307" d="M184 677l52 -30l-30 -53h60v-60h-60l30 -52l-52 -30l-30 52l-31 -52l-52 30l31 52h-61v60h61l-31 53l52 30l31 -53z" />
<glyph unicode="+" horiz-adv-x="415" d="M178 475h60v-137h137v-60h-137v-137h-60v137h-137v60h137v137z" />
<glyph unicode="," horiz-adv-x="223" d="M89 4q-21 7 -34.5 25.5t-13.5 41.5q0 29 20.5 50t50.5 21q29 0 50 -21t21 -50q0 -66 -41.5 -111.5t-100.5 -45.5v48q15 0 30.5 12t17.5 30z" />
<glyph unicode="-" horiz-adv-x="415" d="M41 278v60h334v-60h-334z" />
<glyph unicode="." horiz-adv-x="223" d="M182 71q0 -29 -21 -50t-50 -21t-50 21t-21 50t21 50t50 21t50 -21t21 -50z" />
<glyph unicode="/" horiz-adv-x="811" d="M629 676h162l-609 -676h-162z" />
<glyph unicode="0" horiz-adv-x="637" d="M319 42q31 0 54.5 9t39 30t25.5 43.5t16 60.5t8.5 70.5t4.5 82.5q0 56 -3.5 98t-13 80.5t-26 63t-43 39t-62.5 14.5t-63 -14.5t-43 -39t-26 -63t-13.5 -80.5t-3.5 -98q3 -62 6 -98.5t12.5 -79t24.5 -65t41.5 -38t64.5 -15.5zM319 -14q-133 0 -210.5 87t-77.5 265 q0 177 78.5 263.5t209.5 88.5q287 -4 287 -352q0 -352 -287 -352z" />
<glyph unicode="1" horiz-adv-x="238" d="M116 677h82v-677h-132v527h-56v58q30 11 60 36.5t46 55.5z" />
<glyph unicode="2" horiz-adv-x="571" d="M118 515l-66 40q77 135 226 135q106 0 182.5 -49t76.5 -138q0 -39 -13.5 -71.5t-32.5 -54t-52.5 -42t-59 -32t-66.5 -27.5q-108 -42 -142 -66q-59 -41 -59 -102h429v-108h-511v76q0 51 20 91.5t51.5 67t70 49t77.5 44t70.5 45.5t51.5 60t20 82q0 55 -30 86.5t-86 31.5 q-55 0 -91 -30.5t-66 -87.5z" />
<glyph unicode="3" horiz-adv-x="603" d="M294 -14q-83 0 -152.5 37t-110.5 105l71 36q33 -53 83.5 -86t109.5 -33q62 0 95 44.5t33 110.5q0 65 -39 105t-107 40v65q59 0 94 29.5t35 75.5q0 51 -31 86t-91 35q-52 0 -84.5 -30.5t-63.5 -88.5l-67 30q69 143 231 143q112 0 179 -48.5t67 -119.5q0 -110 -115 -140 q75 -17 108.5 -64.5t33.5 -103.5q0 -104 -80 -166t-199 -62z" />
<glyph unicode="4" horiz-adv-x="572" d="M381 677h131v-414h60v-60h-60v-203h-130v203h-362v60zM382 582l-278 -319h278v319z" />
<glyph unicode="5" horiz-adv-x="576" d="M30 107l64 32q30 -46 66 -70t89 -24q70 0 113.5 47.5t44.5 125.5q1 48 -23.5 81.5t-62.5 48t-84 18.5t-89.5 -3t-78.5 -21v335h468v-110h-408v-151q51 10 118 10q52 0 102.5 -12.5t96 -38.5t73 -71.5t27.5 -104.5q0 -93 -71.5 -153t-195.5 -60q-100 0 -161.5 35.5 t-87.5 85.5z" />
<glyph unicode="6" horiz-adv-x="623" d="M326 44q137 0 137 157q0 96 -30.5 140t-106.5 44q-136 0 -136 -184q0 -157 136 -157zM563 592l-51 -45q-63 88 -166 88q-107 0 -145.5 -71t-38.5 -219q57 99 180 99q60 0 115 -22.5t95 -74t40 -122.5q0 -105 -69.5 -172t-183.5 -67q-142 0 -225 83.5t-83 256.5 q0 160 80 262t232 102q142 0 220 -98z" />
<glyph unicode="7" horiz-adv-x="584" d="M20 677h544v-60l-325 -617h-94l300 569h-425v108z" />
<glyph unicode="8" horiz-adv-x="634" d="M471 151q6 35 -1.5 62t-32.5 52t-75.5 44.5t-126.5 33.5q-74 -41 -74 -162q0 -61 36 -100t120 -39q72 0 109.5 31t44.5 78zM314 633q-62 0 -94.5 -34t-32.5 -85q0 -20 12 -35.5t36 -26t45.5 -17t56.5 -15.5t52 -14q27 22 40 43.5t13 59.5q0 53 -32.5 88.5t-95.5 35.5z M460 377q67 -19 105 -63.5t38 -111.5q0 -40 -11 -73.5t-39.5 -68t-88.5 -54.5t-147 -20q-287 0 -287 216q0 67 38 110t99 64q-101 52 -101 145q0 72 60 120.5t188 48.5q130 0 189 -49t59 -120q0 -101 -102 -144z" />
<glyph unicode="9" horiz-adv-x="623" d="M297 633q-137 0 -137 -157q0 -96 30.5 -140t106.5 -44q136 0 136 184q0 157 -136 157zM60 85l51 44q63 -87 166 -87q107 0 145.5 70.5t38.5 218.5q-58 -99 -180 -99q-59 0 -114 22.5t-95.5 74.5t-40.5 123q0 105 69.5 171.5t183.5 66.5q142 0 225 -83t83 -256 q0 -160 -80 -262.5t-232 -102.5q-142 0 -220 99z" />
<glyph unicode=":" horiz-adv-x="223" d="M182 71q0 -29 -21 -50t-50 -21t-50 21t-21 50t21 50t50 21t50 -21t21 -50zM182 416q0 -29 -21 -50t-50 -21t-50 21t-21 50t21 50t50 21t50 -21t21 -50z" />
<glyph unicode=";" horiz-adv-x="223" d="M183 416q0 -29 -21 -50t-50 -21t-50 21t-21 50t21 50t50 21t50 -21t21 -50zM89 4q-21 7 -34.5 25.5t-13.5 41.5q0 29 21 50t50 21t50 -21t21 -50q0 -66 -41 -111.5t-101 -45.5v48q15 0 30.5 12t17.5 30z" />
<glyph unicode="&#x3c;" horiz-adv-x="381" d="M341 641v-85l-226 -226l226 -225v-85l-311 310z" />
<glyph unicode="=" horiz-adv-x="415" d="M41 411h334v-60h-334v60zM41 204v60h334v-60h-334z" />
<glyph unicode="&#x3e;" horiz-adv-x="381" d="M40 556v85l311 -311l-311 -310v85l225 225z" />
<glyph unicode="?" horiz-adv-x="527" d="M321 71q0 -29 -21 -50t-50 -21t-50 21t-21 50t21 50t50 21t50 -21t21 -50zM261 678q104 0 170 -45.5t66 -135.5q0 -38 -14 -69t-35.5 -50t-46 -38.5t-46 -35.5t-35.5 -40t-14 -52h-116q0 34 10 61t25.5 45t34 34t37.5 31.5t34.5 33t25.5 43t10 57.5q0 64 -33.5 88 t-93.5 24q-50 0 -87 -31t-49 -82l-74 31q65 131 231 131z" />
<glyph unicode="@" horiz-adv-x="801" d="M395 128q42 0 64.5 33.5t22.5 95.5q0 65 -22.5 103t-64.5 39q-42 -1 -64.5 -39t-22.5 -103q0 -61 23 -95t64 -34zM395 635q176 0 275.5 -103.5t99.5 -261.5q0 -43 -6.5 -77t-21.5 -63t-44.5 -45t-72.5 -16q-37 0 -63.5 18.5t-35.5 37.5l-8 19q-6 -6 -16 -14t-42.5 -22 t-64.5 -14q-20 0 -42 4t-48.5 15.5t-47 29t-34.5 49.5t-14 72q0 41 13.5 72t33 49t46 29.5t49 15.5t45.5 4q61 0 88 -19v19h97v-263q0 -51 48 -51q56 0 56 150q0 61 -15 111.5t-47.5 93t-90.5 66.5t-137 24q-141 0 -210.5 -84t-69.5 -211q0 -37 8.5 -76.5t31 -81.5t55 -75 t86.5 -54t120 -22q107 -2 181 52l111 1q-69 -60 -134.5 -89t-157.5 -29q-95 0 -171.5 33.5t-122 88t-69 119.5t-23.5 133q0 152 107 258.5t258 106.5z" />
<glyph unicode="A" horiz-adv-x="715" d="M305 677h81l309 -677h-140l-88 180h-303l-74 -180h-70zM304 529l-116 -288h251z" />
<glyph unicode="B" horiz-adv-x="700" d="M171 60h191q85 0 127 37t42 94t-41.5 93.5t-127.5 36.5h-191v-261zM304 617h-133v-236h133q64 0 104.5 34t40.5 84q0 52 -37 85t-108 33zM670 198q0 -87 -65.5 -142.5t-192.5 -55.5h-372v677h278q124 0 187 -53t63 -137q0 -66 -38 -107q65 -19 102.5 -69t37.5 -113z" />
<glyph unicode="C" horiz-adv-x="716" d="M401 629q-110 0 -169 -82t-59 -209q0 -128 57.5 -210t166.5 -82q76 0 126.5 23t90.5 70l60 -27q-58 -67 -120.5 -96.5t-156.5 -29.5q-158 0 -262 102t-105 250q1 148 105 250t262 102q94 0 168 -43.5t120 -126.5l-68 -23q-33 71 -86 101.5t-130 30.5z" />
<glyph unicode="D" horiz-adv-x="712" d="M171 60h178q202 0 202 278q0 279 -206 279h-174v-557zM40 677h289q161 0 256 -91t96 -247q-1 -157 -96 -248t-256 -91h-289v677z" />
<glyph unicode="E" horiz-adv-x="631" d="M40 677h551v-60h-420v-236h246v-60h-246v-261h420v-60h-551v677z" />
<glyph unicode="F" horiz-adv-x="620" d="M40 677h549v-60h-421v-236h247v-60h-247v-321h-128v677z" />
<glyph unicode="G" horiz-adv-x="739" d="M397 690q195 0 289 -170l-68 -23q-34 71 -87 101.5t-130 30.5q-110 0 -169.5 -81.5t-59.5 -209.5q0 -127 58 -209t167 -82q96 0 170 49v212h-99v61h231v-369h-132v26q-75 -40 -170 -40q-158 0 -262 102t-105 250q1 148 104.5 250t262.5 102z" />
<glyph unicode="H" horiz-adv-x="703" d="M532 677h131v-677h-131v321h-361v-321h-131v677h131v-296h361v296z" />
<glyph unicode="I" horiz-adv-x="211" d="M40 0v677h131v-677h-131z" />
<glyph unicode="J" horiz-adv-x="666" d="M496 195v482h129v-429q0 -128 -85 -195t-215 -66q-122 0 -199.5 59.5t-95.5 189.5l106 28q0 -106 53.5 -161.5t135.5 -55.5q75 0 123 41t48 107z" />
<glyph unicode="K" horiz-adv-x="737" d="M562 677h92l-270 -235l332 -442h-156l-267 362l-122 -107v-255h-131v677h131v-342z" />
<glyph unicode="L" horiz-adv-x="634" d="M40 677h131v-617h432v-60h-563v677z" />
<glyph unicode="M" horiz-adv-x="840" d="M670 677h129v-677h-131v522l-248 -522h-64l-256 465v-465h-60v677h105l281 -511z" />
<glyph unicode="N" horiz-adv-x="665" d="M40 677h119l405 -524v524h61v-677h-114l-411 540v-540h-60v677z" />
<glyph unicode="O" horiz-adv-x="795" d="M397 46q109 0 167 82.5t58 209.5t-58 209t-167 82t-166.5 -82t-57.5 -209q0 -128 57.5 -210t166.5 -82zM397 -14q-159 0 -262.5 102t-104.5 250q1 148 104.5 250t262.5 102t262.5 -102t104.5 -250q-1 -148 -104.5 -250t-262.5 -102z" />
<glyph unicode="P" horiz-adv-x="641" d="M171 355h126q91 0 136.5 34.5t45.5 96.5q0 65 -40 98t-142 33h-126v-262zM171 295v-295h-131v677h281q145 0 217.5 -52t72.5 -139q0 -88 -73 -139.5t-217 -51.5h-150z" />
<glyph unicode="Q" horiz-adv-x="796" d="M173 338q0 -127 58 -209.5t167 -82.5q66 0 115 33l-172 174h171l78 -79q32 67 32 164q0 127 -58 209t-166 82q-109 0 -167 -82t-58 -209zM670 98l96 -98h-169l-25 25q-80 -39 -174 -39q-159 0 -263 102t-104 250t104 250t263 102t262.5 -102t104.5 -250q-2 -143 -95 -240 z" />
<glyph unicode="R" horiz-adv-x="708" d="M171 355h126q91 0 136.5 34.5t45.5 96.5q0 65 -40 98t-142 33h-126v-262zM474 317l204 -317h-157l-186 295h-164v-295h-131v677h281q144 0 212 -51.5t68 -139.5q0 -125 -127 -169z" />
<glyph unicode="S" horiz-adv-x="702" d="M201 526q0 -36 26 -60.5t67.5 -37t91.5 -22.5t100 -23.5t91.5 -33t67.5 -57.5t26 -92q0 -103 -92.5 -158.5t-244.5 -55.5q-195 0 -304 126l64 34q86 -94 243 -94q95 0 139 37t44 102q0 50 -48.5 80t-117 44.5t-137.5 31.5t-117.5 54.5t-48.5 99.5q0 83 84.5 136t213.5 53 q83 0 154.5 -34t119.5 -98l-60 -31q-67 103 -214 103q-64 0 -106 -31t-42 -73z" />
<glyph unicode="T" horiz-adv-x="715" d="M30 677h654v-60h-262v-617h-130v617h-262v60z" />
<glyph unicode="U" horiz-adv-x="719" d="M359 -14q-68 0 -120 12.5t-86 34t-57 51.5t-34 64.5t-16 72.5t-6 76t0 76q1 31 1 46v258h131v-448q0 -78 51 -129t136 -51t136 51t51 129v448h131v-258q0 -15 1 -46q2 -144 -17 -210q-46 -155 -242 -174q-28 -3 -60 -3z" />
<glyph unicode="V" horiz-adv-x="715" d="M624 677h71l-285 -677h-81l-309 677h143l247 -530z" />
<glyph unicode="W" horiz-adv-x="1093" d="M1002 677h71l-284 -677h-82l-155 382l-142 -382h-81l-309 677h143l247 -530l107 319l-83 211h142l213 -530z" />
<glyph unicode="X" horiz-adv-x="727" d="M609 677h78l-259 -315l268 -362h-163l-195 264l-217 -264h-82l260 315l-269 362h163l197 -265z" />
<glyph unicode="Y" horiz-adv-x="738" d="M200 677l223 -323l222 323h73l-266 -393v-284h-131v272l-301 405h180z" />
<glyph unicode="Z" horiz-adv-x="717" d="M40 677h637v-33l-458 -584h458v-60h-637v42l450 575h-450v60z" />
<glyph unicode="[" horiz-adv-x="300" d="M40 799h299v-60h-171v-772h171v-60h-299v892z" />
<glyph unicode="\" horiz-adv-x="811" d="M20 676h162l609 -676h-162z" />
<glyph unicode="]" horiz-adv-x="300" d="M-40 799h299v-892h-299v60h171v772h-171v60z" />
<glyph unicode="^" horiz-adv-x="364" d="M182 677l151 -275h-68l-83 150l-83 -150h-69z" />
<glyph unicode="_" horiz-adv-x="533" d="M1 -116v60h532v-60h-532z" />
<glyph unicode="`" horiz-adv-x="145" d="M0 664h97l47 -144h-50z" />
<glyph unicode="a" horiz-adv-x="589" d="M416 196q3 26 1 62q-4 84 -42 126t-81 42q-108 0 -123 -175q-1 -7 -1 -28t1 -27q8 -87 41 -128t92 -31q43 7 74 48.5t38 110.5zM548 464v-464h-130v33q-52 -47 -140 -47q-107 0 -177 69.5t-70 176.5q0 106 73.5 175.5t178.5 69.5q81 0 135 -55v42h130z" />
<glyph unicode="b" horiz-adv-x="588" d="M418 196q0 2 0.5 11t0.5 20.5t-1 23.5q-5 81 -37 128t-87 47q-42 0 -79.5 -42t-42.5 -126q-2 -33 1 -62q7 -70 37.5 -111t73.5 -48q60 -11 96 31t38 128zM40 0v677h131v-255q52 55 134 55q105 0 178.5 -70t73.5 -176t-70 -175.5t-177 -69.5q-89 0 -139 47v-33h-131z" />
<glyph unicode="c" horiz-adv-x="533" d="M437 124l66 -21q-28 -60 -79.5 -88.5t-138.5 -28.5q-109 0 -182 73t-73 174q0 100 78 172t185 72q144 0 210 -104l-57 -36q-43 83 -140 83q-63 0 -99 -53.5t-36 -143.5q0 -95 33.5 -138.5t101.5 -43.5q101 0 131 83z" />
<glyph unicode="d" horiz-adv-x="588" d="M170 251q-2 -35 0 -55q2 -86 38 -128t96 -31q43 7 73.5 48t37.5 111q3 29 1 62q-5 84 -42.5 126t-79.5 42q-55 0 -87 -47t-37 -128zM417 422v255h130v-677h-130v33q-52 -47 -140 -47q-107 0 -177 69.5t-70 175.5t74 176t178 70q81 0 135 -55z" />
<glyph unicode="e" d="M176 242h224q0 91 -30.5 138.5t-81.5 47.5q-50 0 -81 -47.5t-31 -138.5zM546 231v-43h-369q0 -70 33 -111.5t88 -41.5q98 0 154 92l58 -38q-41 -51 -90 -77t-122 -26q-51 0 -98 14.5t-85.5 43.5t-61.5 77t-23 110q0 102 76.5 174t181.5 72t181.5 -71.5t76.5 -174.5z" />
<glyph unicode="f" horiz-adv-x="352" d="M331 699v-49q-56 6 -86.5 -21.5t-30.5 -86.5v-78h89v-60h-90v-404h-130v404h-63v60h63v61q0 87 65.5 135t182.5 39z" />
<glyph unicode="g" d="M399 164q10 44 5 103q-10 152 -100 160q-60 5 -94 -34.5t-40 -124.5q-4 -46 4 -95q11 -64 41 -100t78 -36q35 0 63.5 30.5t42.5 96.5zM47 -104l91 17q18 -97 135 -97q133 0 132 163v5v57q-52 -55 -123 -55q-104 0 -178 70t-74 176q0 107 70 176t177 69q79 0 128 -47v34 h131v-448q0 -44 -15 -86.5t-44.5 -80.5t-80.5 -61.5t-116 -23.5q-203 0 -233 132z" />
<glyph unicode="h" horiz-adv-x="575" d="M535 238v-238h-139v248q0 95 -27 136t-85 41q-54 0 -83.5 -41.5t-29.5 -96.5v-287h-131v677h131v-270q12 27 49.5 47.5t77.5 22.5q60 3 104.5 -10.5t69.5 -36t39.5 -57.5t19 -66t4.5 -69z" />
<glyph unicode="i" horiz-adv-x="211" d="M40 0v464h130v-464h-130zM176 605q0 -29 -21 -50t-50 -21t-50 21t-21 50q0 30 21 51t50 21t50 -21t21 -51z" />
<glyph unicode="j" horiz-adv-x="213" d="M107 534q-29 0 -50 21t-21 50q0 30 21 51t50 21q30 0 50.5 -21t20.5 -51q0 -29 -20.5 -50t-50.5 -21zM40 -78v542h130v-524q0 -78 -53 -127t-159 -49v48q82 8 82 110z" />
<glyph unicode="k" horiz-adv-x="557" d="M40 677h131v-439l205 226h87l-141 -155l205 -309h-156l-138 210l-62 -68v-142h-131v677z" />
<glyph unicode="l" horiz-adv-x="211" d="M40 0v677h131v-677h-131z" />
<glyph unicode="m" horiz-adv-x="939" d="M898 238v-238h-139v248q0 95 -26.5 136t-85.5 41q-52 0 -81 -39.5t-31 -92.5v-293h-140v248q0 95 -26.5 136t-85.5 41q-54 0 -83 -41.5t-29 -96.5v-287h-131v464h130v-57q13 27 50.5 47.5t76.5 22.5q165 9 215 -105q16 35 37 56q44 44 112 49q60 3 104.5 -10.5t69.5 -36 t39.5 -57.5t19 -66t4.5 -69z" />
<glyph unicode="n" horiz-adv-x="575" d="M535 238v-238h-140v248q0 95 -26.5 136t-85.5 41q-54 0 -83 -41.5t-29 -96.5v-287h-131v464h130v-57q13 27 50.5 47.5t76.5 22.5q60 3 104.5 -10.5t69.5 -36t40 -57.5t19.5 -66t4.5 -69z" />
<glyph unicode="o" d="M406 219v26q0 97 -28 140t-89 43t-89 -43t-28 -140v-26q0 -98 28 -141t89 -43t89 43.5t28 140.5zM289 -14q-102 0 -180 71.5t-78 174.5q0 105 77.5 175t180.5 70q102 0 180 -70t78 -175q0 -103 -78 -174.5t-180 -71.5z" />
<glyph unicode="p" horiz-adv-x="589" d="M419 212q1 26 0 55q-4 86 -39.5 128t-94.5 31q-43 -7 -73 -48t-38 -111q-4 -31 -1 -62q7 -86 43.5 -127t78.5 -41q56 0 87.5 47t36.5 128zM171 41v-255h-130v678h131v-34q50 47 139 47q107 0 177 -69t70 -176q0 -106 -74 -176t-178 -70q-81 0 -135 55z" />
<glyph unicode="q" horiz-adv-x="589" d="M170 212q5 -81 36.5 -128t87.5 -47q42 0 78.5 41t43.5 127q3 31 -1 62q-8 70 -38 111t-73 48q-59 11 -94.5 -31t-39.5 -128q-1 -29 0 -55zM417 -214v255q-52 -55 -135 -55q-104 0 -177.5 70t-73.5 176q0 107 70 176t176 69q88 0 140 -47v34h131v-678h-131z" />
<glyph unicode="r" horiz-adv-x="368" d="M337 477v-71q-71 20 -118.5 -15.5t-47.5 -103.5v-287h-131v464h131v-57q15 35 63.5 55t102.5 15z" />
<glyph unicode="s" horiz-adv-x="536" d="M194 363q0 -24 32 -41.5t77.5 -31t91.5 -30t78 -49t32 -79.5q0 -44 -25 -75t-64.5 -45.5t-74.5 -20t-70 -5.5q-76 0 -147 31.5t-104 86.5l71 35q20 -39 68.5 -67.5t98.5 -28.5q46 0 73 20t27 51q0 20 -22.5 35.5t-56 25.5t-73 24t-73 30t-56 45t-22.5 67q0 60 65 98 t151 38q136 0 202 -93l-66 -38q-20 36 -53.5 56t-72.5 20t-63 -16t-24 -43z" />
<glyph unicode="t" horiz-adv-x="342" d="M20 464h26q43 0 73.5 30.5t30.5 73.5v17h61v-121h100v-60h-100v-275q0 -69 100 -69v-60h-94q-60 0 -98.5 41.5t-38.5 101.5v261h-60v60z" />
<glyph unicode="u" horiz-adv-x="576" d="M535 464v-464h-130v58q-12 -27 -49.5 -47.5t-77.5 -22.5q-60 -4 -104.5 9.5t-69.5 36.5t-39.5 57.5t-19 65.5t-4.5 69v238h140v-247q0 -95 26.5 -136.5t84.5 -41.5q54 0 83.5 42t29.5 97v286h130z" />
<glyph unicode="v" horiz-adv-x="576" d="M486 464h70l-173 -464h-175l-188 464h141l169 -418z" />
<glyph unicode="w" horiz-adv-x="940" d="M850 464h70l-173 -464h-175l-99 243l-90 -243h-175l-188 464h141l169 -418l107 286l-53 132h141l169 -418z" />
<glyph unicode="x" horiz-adv-x="571" d="M460 464h70l-184 -207l195 -257h-154l-127 165l-147 -165h-73l187 208l-197 256h159l124 -164z" />
<glyph unicode="y" horiz-adv-x="558" d="M58 -122l71 22q15 -40 51.5 -61t74.5 -21q28 0 50.5 8t36 18t23.5 28.5t14 30.5t6.5 33t2.5 27.5v21.5v46q-47 -45 -139 -45q-84 0 -146.5 61t-62.5 178v239h140l-1 -254q0 -86 27 -123.5t85 -37.5q96 0 96 119v296h131v-446q0 -44 -15 -87t-44.5 -81t-80.5 -61.5 t-116 -23.5q-82 0 -134.5 33t-69.5 80z" />
<glyph unicode="z" horiz-adv-x="540" d="M40 464h460v-65l-303 -345h303v-54h-460v65l303 345h-303v54z" />
<glyph unicode="{" horiz-adv-x="330" d="M228 683v-219q0 -31 -21 -59t-42 -40l-21 -12q3 -2 9 -5t20.5 -14t25.5 -23t20 -30.5t9 -38.5v-219q0 -23 16.5 -39.5t40.5 -16.5h84v-60h-156q-47 0 -80 33t-33 79v209q0 34 -13 56.5t-46 39.5v58q33 17 46 39.5t13 56.5v209q0 46 33 79t80 33h156v-60h-84 q-24 0 -40.5 -16.5t-16.5 -39.5z" />
<glyph unicode="|" horiz-adv-x="141" d="M41 799h60v-893h-60v893z" />
<glyph unicode="}" horiz-adv-x="330" d="M102 464v219q0 23 -16.5 39.5t-39.5 16.5h-85v60h156q47 0 80 -32.5t33 -79.5v-209q0 -34 13 -56.5t46 -39.5v-58q-33 -17 -46 -39.5t-13 -56.5v-209q0 -47 -33 -79.5t-80 -32.5h-156v60h85q23 0 39.5 16.5t16.5 39.5v219q0 31 21 59t42 40l21 12q-3 2 -9 5t-20.5 14 t-25.5 23t-20 30.5t-9 38.5z" />
<glyph unicode="~" horiz-adv-x="410" d="M370 338v-62q-39 -23 -76 -23t-66 12.5t-57.5 25t-62.5 11.5t-68 -26v62q39 25 74.5 26.5t63.5 -10.5t56 -24.5t63 -13t73 21.5z" />
<glyph unicode="&#xa1;" horiz-adv-x="229" d="M188 -214h-148l30 466h88zM43 393q0 29 21 50t50 21t50 -21t21 -50t-21 -50t-50 -21t-50 21t-21 50z" />
<glyph unicode="&#xa2;" horiz-adv-x="534" d="M307 42q99 0 131 83l65 -21q-25 -53 -67.5 -81.5t-111.5 -33.5v-80h-60v79q-100 7 -166.5 78.5t-66.5 167.5q0 92 68 161.5t165 80.5v80h60v-79q120 -10 179 -103l-57 -36q-42 82 -139 82q-64 0 -100 -53t-36 -143q0 -94 34 -138t102 -44z" />
<glyph unicode="&#xa3;" horiz-adv-x="640" d="M192 60h418v-60h-570v61q114 89 114 198q0 33 -11 73h-103v60h85q-9 38 -9 73q0 113 79 173.5t190 59.5q86 0 156 -45v-73q-131 69 -215.5 31.5t-84.5 -153.5q0 -34 6 -66h204v-60h-192q12 -60 12 -89q0 -103 -79 -183z" />
<glyph unicode="&#xa4;" horiz-adv-x="463" d="M160 202q29 -29 71 -29t71 29t29 71t-29 71t-71 29t-71 -29t-29 -71t29 -71zM371 176l51 -51l-42 -43l-52 51q-44 -30 -97 -30t-97 30l-51 -51l-43 43l51 51q-30 44 -30 97t30 97l-51 52l43 42l51 -51q43 30 97 30t97 -30l52 51l42 -42l-51 -52q30 -43 30 -96.5 t-30 -97.5z" />
<glyph unicode="&#xa5;" horiz-adv-x="676" d="M582 676h64l-215 -376h196l-30 -60h-176v-43h206l-30 -60h-176v-137h-130v137h-206l30 60h176v43h-206l30 60h158l-243 376h171l192 -323z" />
<glyph unicode="&#xa6;" horiz-adv-x="141" d="M41 799h60v-341h-60v341zM41 248h60v-342h-60v342z" />
<glyph unicode="&#xa7;" horiz-adv-x="498" d="M161 353q18 -13 86.5 -60t105.5 -73q14 28 8 53.5t-24 37.5q-25 18 -95 66t-96 66q-15 -27 -9 -52.5t24 -37.5zM436 246l-34 -64q39 -41 37 -104q-2 -73 -52 -120t-130 -44q-81 3 -137 42t-79 109l53 23q38 -109 145 -113q56 -2 75 47.5t-24 81.5l-190 130 q-43 32 -53.5 84.5t15.5 99.5l35 64q-40 41 -38 104q2 73 52 120t131 44t136.5 -42t78.5 -109l-53 -23q-37 109 -145 113q-36 1 -59 -22.5t-21 -55t30 -51.5l189 -130q43 -32 53.5 -84.5t-15.5 -99.5z" />
<glyph unicode="&#xa8;" horiz-adv-x="334" d="M143 591q0 -29 -21 -50t-50 -21q-30 0 -51 21t-21 50t21 50t51 21q29 0 50 -21t21 -50zM334 591q0 -29 -21 -50t-50 -21q-30 0 -51 21t-21 50t21 50t51 21q29 0 50 -21t21 -50z" />
<glyph unicode="&#xa9;" horiz-adv-x="575" d="M380 189l38 -20q-42 -71 -123 -71q-64 0 -108 42q-42 42 -42 103q0 60 42 102q44 42 108 42q47 0 84 -28t46 -72l-44 -9q-25 66 -81 66q-38 1 -59.5 -30t-21.5 -71t21.5 -71t59.5 -31q55 0 80 48zM288 31q88 0 150.5 62t62.5 150t-62.5 150.5t-150.5 62.5t-150.5 -62.5 t-62.5 -150.5t62.5 -150t150.5 -62zM288 500q106 0 181.5 -75t75.5 -182t-75.5 -182t-181.5 -75t-181.5 75t-75.5 182t75.5 182t181.5 75z" />
<glyph unicode="&#xaa;" horiz-adv-x="305" d="M181 477q11 7 13 9q-1 3 -1 11v56q-119 0 -105 -56q7 -27 41.5 -29.5t51.5 9.5zM258 591v-87q0 -35 26 -35v-30h-28q-32 0 -51 24q-42 -31 -94 -31q-39 0 -65 17.5t-26 53.5q0 44 51 62t122 11v33q0 20 -14.5 32.5t-34.5 12.5q-20 -1 -34.5 -13t-14.5 -32l-61 -2 q0 25 17 42q28 28 98 28q43 0 76 -22.5t33 -63.5z" />
<glyph unicode="&#xab;" horiz-adv-x="378" d="M168 233l85 85h85l-85 -85l85 -85h-85zM115 318h85l-85 -85l85 -85h-85l-85 85z" />
<glyph unicode="&#xac;" horiz-adv-x="586" d="M40 418h506v-260h-129v200h-377v60z" />
<glyph unicode="&#xad;" horiz-adv-x="415" d="M41 278v60h334v-60h-334z" />
<glyph unicode="&#xae;" horiz-adv-x="575" d="M287 31q88 0 150.5 62t62.5 150t-62.5 150.5t-150.5 62.5t-150.5 -62.5t-62.5 -150.5t62.5 -150t150.5 -62zM287 500q107 0 182 -75t75 -182t-75 -182t-182 -75t-182 75t-75 182t75 182t182 75zM241 262h59q11 0 18 11t7 27q0 35 -25 35h-59v-73zM241 220v-106h-66v263 h145q30 0 51 -21t21 -51v-7q0 -46 -39 -67l75 -117h-80l-67 106h-40z" />
<glyph unicode="&#xaf;" horiz-adv-x="268" d="M0 520v67h268v-67h-268z" />
<glyph unicode="&#xb0;" horiz-adv-x="389" d="M194 405q87 0 87 114q0 57 -23.5 91.5t-63.5 34.5q-39 0 -62.5 -35t-23.5 -91q0 -114 86 -114zM369 525q0 -64 -52.5 -107.5t-122.5 -43.5q-69 0 -121.5 43.5t-52.5 107.5t53.5 107.5t120.5 43.5q68 0 121.5 -43.5t53.5 -107.5z" />
<glyph unicode="&#xb1;" horiz-adv-x="415" d="M374 180v-60h-334v60h334zM237 419h137v-60h-137v-137h-60v137h-137v60h137v137h60v-137z" />
<glyph unicode="&#xb4;" horiz-adv-x="145" d="M48 664h96l-94 -144h-50z" />
<glyph unicode="&#xb6;" horiz-adv-x="581" d="M214 647h326v-776h-120v670h-86v-670h-120v390q-80 0 -136.5 56.5t-56.5 136.5t56.5 136.5t136.5 56.5z" />
<glyph unicode="&#xb7;" horiz-adv-x="223" d="M182 338q0 -29 -21 -50t-50 -21t-50 21t-21 50t21 50t50 21t50 -21t21 -50z" />
<glyph unicode="&#xb8;" horiz-adv-x="306" d="M160 -38h12q42 0 72 -25.5t30 -61.5q0 -37 -30 -62.5t-72 -25.5h-128v44h81q18 0 31 13t13 31t-13 31t-31 13h-81l42 104h99z" />
<glyph unicode="&#xba;" horiz-adv-x="299" d="M208 548v13q0 92 -59 92t-59 -92v-13q0 -49 14.5 -70.5t44.5 -21.5t44.5 21.5t14.5 70.5zM278 554q0 -51 -39 -86.5t-90 -35.5t-90 35t-39 87q0 51 39 87t90 36t90 -35.5t39 -87.5z" />
<glyph unicode="&#xbb;" horiz-adv-x="378" d="M125 318l85 -85l-85 -85h-85l85 85l-85 85h85zM178 318h85l85 -85l-85 -85h-85l85 85z" />
<glyph unicode="&#xbf;" horiz-adv-x="527" d="M206 393q0 29 21 50t50 21t50 -21t21 -50t-21 -50t-50 -21t-50 21t-21 50zM266 -214q-104 0 -170 45.5t-66 135.5q0 38 14 69t35.5 50t46 38.5t46 35.5t35.5 40t14 52h116q0 -34 -10 -61t-25.5 -45t-34.5 -34t-37.5 -31.5t-34 -33t-25.5 -43t-10 -57.5q0 -64 33.5 -88 t93.5 -24q50 0 87 31t49 82l74 -31q-65 -131 -231 -131z" />
<glyph unicode="&#xc0;" horiz-adv-x="715" d="M305 677h81l309 -677h-140l-88 180h-303l-74 -180h-70zM304 529l-116 -288h251zM275 877h97l48 -144h-50z" />
<glyph unicode="&#xc1;" horiz-adv-x="715" d="M305 677h81l309 -677h-140l-88 180h-303l-74 -180h-70zM304 529l-116 -288h251zM323 877h97l-95 -144h-50z" />
<glyph unicode="&#xc2;" horiz-adv-x="715" d="M305 677h81l309 -677h-140l-88 180h-303l-74 -180h-70zM304 529l-116 -288h251zM470 733h-78l-44 76l-45 -76h-78l65 110h115z" />
<glyph unicode="&#xc3;" horiz-adv-x="715" d="M305 677h81l309 -677h-140l-88 180h-303l-74 -180h-70zM304 529l-116 -288h251zM400 733q-37 2 -71 25q-50 34 -89 -20l-51 38q34 48 82.5 57t94.5 -23q50 -34 89 20l51 -37q-45 -62 -106 -60z" />
<glyph unicode="&#xc4;" horiz-adv-x="715" d="M305 677h81l309 -677h-140l-88 180h-303l-74 -180h-70zM304 529l-116 -288h251zM323 804q0 -29 -21 -50t-50 -21t-50 21t-21 50t21 50t50 21t50 -21t21 -50zM514 804q0 -29 -21 -50t-50 -21t-50 21t-21 50t21 50t50 21t50 -21t21 -50z" />
<glyph unicode="&#xc5;" horiz-adv-x="715" d="M305 677h81l309 -677h-140l-88 180h-303l-74 -180h-70zM304 529l-116 -288h251zM344 706q30 0 30 40q0 20 -8.5 32t-21.5 12q-14 0 -22.5 -12t-8.5 -32q0 -40 31 -40zM344 833q41 0 75 -22.5t34 -62.5t-33.5 -62.5t-75.5 -22.5q-43 0 -76.5 22.5t-33.5 62.5t34 62.5 t76 22.5z" />
<glyph unicode="&#xc6;" horiz-adv-x="1107" d="M394 677h672v-60h-417v-236h247v-60h-247v-259h417v-62h-549v181h-328l-96 -181h-73zM431 617l-207 -376h293v376h-86z" />
<glyph unicode="&#xc7;" horiz-adv-x="716" d="M401 629q-110 0 -169 -82t-59 -209q0 -128 57.5 -210t166.5 -82q76 0 126.5 23t90.5 70l60 -27q-58 -67 -120.5 -96.5t-156.5 -29.5q-158 0 -262 102t-105 250q1 148 105 250t262 102q94 0 168 -43.5t120 -126.5l-68 -23q-33 71 -86 101.5t-130 30.5zM379 -38h12 q42 0 72 -25.5t30 -61.5q0 -37 -30 -62.5t-72 -25.5h-128v44h81q18 0 31 13t13 31t-13 31t-31 13h-81l42 104h99z" />
<glyph unicode="&#xc8;" horiz-adv-x="631" d="M40 677h551v-60h-420v-236h246v-60h-246v-261h420v-60h-551v677zM243 877h97l48 -144h-50z" />
<glyph unicode="&#xc9;" horiz-adv-x="631" d="M40 677h551v-60h-420v-236h246v-60h-246v-261h420v-60h-551v677zM291 877h97l-95 -144h-50z" />
<glyph unicode="&#xca;" horiz-adv-x="631" d="M40 677h551v-60h-420v-236h246v-60h-246v-261h420v-60h-551v677zM438 733h-78l-44 76l-45 -76h-78l65 110h115z" />
<glyph unicode="&#xcb;" horiz-adv-x="631" d="M40 677h551v-60h-420v-236h246v-60h-246v-261h420v-60h-551v677zM291 804q0 -29 -21 -50t-50 -21t-50 21t-21 50t21 50t50 21t50 -21t21 -50zM482 804q0 -29 -21 -50t-50 -21t-50 21t-21 50t21 50t50 21t50 -21t21 -50z" />
<glyph unicode="&#xcc;" horiz-adv-x="211" d="M40 0v677h131v-677h-131zM33 877h97l48 -144h-50z" />
<glyph unicode="&#xcd;" horiz-adv-x="211" d="M40 0v677h131v-677h-131zM81 877h97l-95 -144h-50z" />
<glyph unicode="&#xce;" horiz-adv-x="211" d="M40 0v677h131v-677h-131zM228 733h-78l-44 76l-45 -76h-78l65 110h115z" />
<glyph unicode="&#xcf;" horiz-adv-x="211" d="M40 0v677h131v-677h-131zM81 804q0 -29 -21 -50t-50 -21t-50 21t-21 50t21 50t50 21t50 -21t21 -50zM272 804q0 -29 -21 -50t-50 -21t-50 21t-21 50t21 50t50 21t50 -21t21 -50z" />
<glyph unicode="&#xd0;" horiz-adv-x="712" d="M171 60h178q202 0 202 278q0 279 -206 279h-174v-557zM40 677h289q161 0 256 -91t96 -247q-1 -157 -96 -248t-256 -91h-289v677zM-10 328v60h334v-60h-334z" />
<glyph unicode="&#xd1;" horiz-adv-x="665" d="M40 677h119l405 -524v524h61v-677h-114l-411 540v-540h-60v677zM385 733q-37 2 -71 25q-50 34 -89 -20l-51 38q34 48 82.5 57t94.5 -23q50 -34 89 20l51 -37q-45 -62 -106 -60z" />
<glyph unicode="&#xd2;" horiz-adv-x="794" d="M397 46q109 0 167 82.5t58 209.5t-58 209t-167 82t-166.5 -82t-57.5 -209q0 -128 57.5 -210t166.5 -82zM397 -14q-159 0 -262.5 102t-104.5 250q1 148 104.5 250t262.5 102t262.5 -102t104.5 -250q-1 -148 -104.5 -250t-262.5 -102zM325 877h96l48 -144h-50z" />
<glyph unicode="&#xd3;" horiz-adv-x="794" d="M397 46q109 0 167 82.5t58 209.5t-58 209t-167 82t-166.5 -82t-57.5 -209q0 -128 57.5 -210t166.5 -82zM397 -14q-159 0 -262.5 102t-104.5 250q1 148 104.5 250t262.5 102t262.5 -102t104.5 -250q-1 -148 -104.5 -250t-262.5 -102zM373 877h96l-94 -144h-50z" />
<glyph unicode="&#xd4;" horiz-adv-x="794" d="M397 46q109 0 167 82.5t58 209.5t-58 209t-167 82t-166.5 -82t-57.5 -209q0 -128 57.5 -210t166.5 -82zM397 -14q-159 0 -262.5 102t-104.5 250q1 148 104.5 250t262.5 102t262.5 -102t104.5 -250q-1 -148 -104.5 -250t-262.5 -102zM520 733h-78l-45 76l-45 -76h-78 l66 110h114z" />
<glyph unicode="&#xd5;" horiz-adv-x="794" d="M397 46q109 0 167 82.5t58 209.5t-58 209t-167 82t-166.5 -82t-57.5 -209q0 -128 57.5 -210t166.5 -82zM397 -14q-159 0 -262.5 102t-104.5 250q1 148 104.5 250t262.5 102t262.5 -102t104.5 -250q-1 -148 -104.5 -250t-262.5 -102zM449 733q-36 2 -70 25q-50 34 -89 -20 l-52 38q35 48 83 57t94 -23q50 -34 89 20l52 -37q-45 -62 -107 -60z" />
<glyph unicode="&#xd6;" horiz-adv-x="794" d="M397 46q109 0 167 82.5t58 209.5t-58 209t-167 82t-166.5 -82t-57.5 -209q0 -128 57.5 -210t166.5 -82zM397 -14q-159 0 -262.5 102t-104.5 250q1 148 104.5 250t262.5 102t262.5 -102t104.5 -250q-1 -148 -104.5 -250t-262.5 -102zM373 804q0 -29 -21 -50t-50 -21 q-30 0 -51 21t-21 50t21 50t51 21q29 0 50 -21t21 -50zM564 804q0 -29 -21 -50t-51 -21q-29 0 -50 21t-21 50t21 50t50 21q30 0 51 -21t21 -50z" />
<glyph unicode="&#xd7;" horiz-adv-x="359" d="M222 338l97 -97l-43 -42l-97 96l-96 -96l-43 42l97 97l-97 97l43 42l96 -96l97 96l43 -42z" />
<glyph unicode="&#xd8;" horiz-adv-x="794" d="M397 46q109 0 167 82.5t58 209.5t-58 209t-167 82t-166.5 -82t-57.5 -209q0 -128 57.5 -210t166.5 -82zM397 -14q-159 0 -262.5 102t-104.5 250q1 148 104.5 250t262.5 102t262.5 -102t104.5 -250q-1 -148 -104.5 -250t-262.5 -102zM621 676h162l-609 -676h-162z" />
<glyph unicode="&#xd9;" horiz-adv-x="719" d="M359 -14q-68 0 -120 12.5t-86 34t-57 51.5t-34 64.5t-16 72.5t-6 76t0 76q1 31 1 46v258h131v-448q0 -78 51 -129t136 -51t136 51t51 129v448h131v-258q0 -15 1 -46q2 -144 -17 -210q-46 -155 -242 -174q-28 -3 -60 -3zM287 877h97l48 -144h-50z" />
<glyph unicode="&#xda;" horiz-adv-x="719" d="M359 -14q-68 0 -120 12.5t-86 34t-57 51.5t-34 64.5t-16 72.5t-6 76t0 76q1 31 1 46v258h131v-448q0 -78 51 -129t136 -51t136 51t51 129v448h131v-258q0 -15 1 -46q2 -144 -17 -210q-46 -155 -242 -174q-28 -3 -60 -3zM335 877h97l-95 -144h-50z" />
<glyph unicode="&#xdb;" horiz-adv-x="719" d="M359 -14q-68 0 -120 12.5t-86 34t-57 51.5t-34 64.5t-16 72.5t-6 76t0 76q1 31 1 46v258h131v-448q0 -78 51 -129t136 -51t136 51t51 129v448h131v-258q0 -15 1 -46q2 -144 -17 -210q-46 -155 -242 -174q-28 -3 -60 -3zM482 733h-78l-44 76l-45 -76h-78l65 110h115z" />
<glyph unicode="&#xdc;" horiz-adv-x="719" d="M359 -14q-68 0 -120 12.5t-86 34t-57 51.5t-34 64.5t-16 72.5t-6 76t0 76q1 31 1 46v258h131v-448q0 -78 51 -129t136 -51t136 51t51 129v448h131v-258q0 -15 1 -46q2 -144 -17 -210q-46 -155 -242 -174q-28 -3 -60 -3zM335 804q0 -29 -21 -50t-50 -21t-50 21t-21 50 t21 50t50 21t50 -21t21 -50zM526 804q0 -29 -21 -50t-50 -21t-50 21t-21 50t21 50t50 21t50 -21t21 -50z" />
<glyph unicode="&#xdd;" horiz-adv-x="738" d="M200 677l223 -323l222 323h73l-266 -393v-284h-131v272l-301 405h180zM385 877h96l-94 -144h-50z" />
<glyph unicode="&#xde;" horiz-adv-x="621" d="M170 224h190q42 0 71 38.5t29 97.5q0 58 -28.5 92.5t-71.5 34.5h-190v-263zM171 547h247q72 0 122.5 -51t50.5 -122v-18q0 -80 -55.5 -136t-135.5 -56h-230v-164h-130v677h131v-130z" />
<glyph unicode="&#xdf;" horiz-adv-x="586" d="M215 61l59 34q24 -38 61.5 -42.5t65.5 20.5t28 64q0 35 -19.5 63t-46.5 48.5t-54.5 41.5t-47 52t-19.5 70q0 24 9.5 43.5t23 33l26.5 26.5t22.5 29.5t9.5 35.5q0 29 -19 50.5t-62 21.5q-82 0 -82 -111v-541h-130v514q0 34 8.5 63.5t30 58t66 45.5t108.5 18 q76 2 138 -36.5t62 -93.5q0 -29 -13.5 -50t-30 -30t-30 -24.5t-13.5 -34.5q0 -26 19.5 -47t47 -38.5t55.5 -39t47.5 -58t19.5 -85.5q0 -79 -52.5 -127.5t-151.5 -48.5q-91 0 -136 75z" />
<glyph unicode="&#xe0;" horiz-adv-x="589" d="M416 196q3 26 1 62q-4 84 -42 126t-81 42q-108 0 -123 -175q-1 -7 -1 -28t1 -27q8 -87 41 -128t92 -31q43 7 74 48.5t38 110.5zM548 464v-464h-130v33q-52 -47 -140 -47q-107 0 -177 69.5t-70 176.5q0 106 73.5 175.5t178.5 69.5q81 0 135 -55v42h130zM222 664h97 l48 -144h-50z" />
<glyph unicode="&#xe1;" horiz-adv-x="589" d="M416 196q3 26 1 62q-4 84 -42 126t-81 42q-108 0 -123 -175q-1 -7 -1 -28t1 -27q8 -87 41 -128t92 -31q43 7 74 48.5t38 110.5zM548 464v-464h-130v33q-52 -47 -140 -47q-107 0 -177 69.5t-70 176.5q0 106 73.5 175.5t178.5 69.5q81 0 135 -55v42h130zM270 664h97 l-95 -144h-50z" />
<glyph unicode="&#xe2;" horiz-adv-x="589" d="M416 196q3 26 1 62q-4 84 -42 126t-81 42q-108 0 -123 -175q-1 -7 -1 -28t1 -27q8 -87 41 -128t92 -31q43 7 74 48.5t38 110.5zM548 464v-464h-130v33q-52 -47 -140 -47q-107 0 -177 69.5t-70 176.5q0 106 73.5 175.5t178.5 69.5q81 0 135 -55v42h130zM417 520h-78 l-44 76l-45 -76h-78l65 110h115z" />
<glyph unicode="&#xe3;" horiz-adv-x="589" d="M416 196q3 26 1 62q-4 84 -42 126t-81 42q-108 0 -123 -175q-1 -7 -1 -28t1 -27q8 -87 41 -128t92 -31q43 7 74 48.5t38 110.5zM548 464v-464h-130v33q-52 -47 -140 -47q-107 0 -177 69.5t-70 176.5q0 106 73.5 175.5t178.5 69.5q81 0 135 -55v42h130zM347 520 q-37 2 -71 25q-50 34 -89 -20l-51 38q34 48 82.5 57t94.5 -23q50 -34 89 20l51 -37q-45 -62 -106 -60z" />
<glyph unicode="&#xe4;" horiz-adv-x="589" d="M416 196q3 26 1 62q-4 84 -42 126t-81 42q-108 0 -123 -175q-1 -7 -1 -28t1 -27q8 -87 41 -128t92 -31q43 7 74 48.5t38 110.5zM548 464v-464h-130v33q-52 -47 -140 -47q-107 0 -177 69.5t-70 176.5q0 106 73.5 175.5t178.5 69.5q81 0 135 -55v42h130zM270 591 q0 -29 -21 -50t-50 -21t-50 21t-21 50t21 50t50 21t50 -21t21 -50zM461 591q0 -29 -21 -50t-50 -21t-50 21t-21 50t21 50t50 21t50 -21t21 -50z" />
<glyph unicode="&#xe5;" horiz-adv-x="589" d="M416 196q3 26 1 62q-4 84 -42 126t-81 42q-108 0 -123 -175q-1 -7 -1 -28t1 -27q8 -87 41 -128t92 -31q43 7 74 48.5t38 110.5zM548 464v-464h-130v33q-52 -47 -140 -47q-107 0 -177 69.5t-70 176.5q0 106 73.5 175.5t178.5 69.5q81 0 135 -55v42h130zM305 563 q30 0 30 40q0 20 -8.5 32t-21.5 12q-14 0 -22.5 -12t-8.5 -32q0 -40 31 -40zM305 690q41 0 75 -22.5t34 -62.5t-33.5 -62.5t-75.5 -22.5q-43 0 -76.5 22.5t-33.5 62.5t34 62.5t76 22.5z" />
<glyph unicode="&#xe6;" horiz-adv-x="915" d="M507 242h243v18q-1 59 -15 97q-26 71 -108 71q-89 0 -110 -84q-10 -39 -10 -99v-3zM350 78q1 0 27 16q-3 12 -3 24v111q-51 0 -90 -5.5t-70 -17.5t-44 -35t-5 -54q7 -29 31 -44t52.5 -15.5t55.5 5t46 15.5zM627 477q103 0 180.5 -69.5t77.5 -174.5v-3q0 -23 -4 -42h-373 q4 -80 33.5 -116.5t85.5 -36.5q90 0 116 81h111q-34 -59 -96 -94.5t-131 -35.5q-116 0 -195 85q-88 -85 -221 -85q-78 0 -129.5 35t-51.5 108q0 45 29.5 77.5t77.5 48.5t110 22t127 -2v66q0 40 -30 65t-69 24t-68.5 -25t-29.5 -64l-120 -3q0 52 33 83q59 56 196 56 q108 0 172 -61q72 61 169 61z" />
<glyph unicode="&#xe7;" horiz-adv-x="533" d="M437 124l66 -21q-28 -60 -79.5 -88.5t-138.5 -28.5q-109 0 -182 73t-73 174q0 100 78 172t185 72q144 0 210 -104l-57 -36q-43 83 -140 83q-63 0 -99 -53.5t-36 -143.5q0 -95 33.5 -138.5t101.5 -43.5q101 0 131 83zM298 -38h12q42 0 72 -25.5t30 -61.5q0 -37 -30 -62.5 t-72 -25.5h-128v44h81q18 0 31 13t13 31t-13 31t-31 13h-81l42 104h99z" />
<glyph unicode="&#xe8;" d="M176 242h224q0 91 -30.5 138.5t-81.5 47.5q-50 0 -81 -47.5t-31 -138.5zM546 231v-43h-369q0 -70 33 -111.5t88 -41.5q98 0 154 92l58 -38q-41 -51 -90 -77t-122 -26q-51 0 -98 14.5t-85.5 43.5t-61.5 77t-23 110q0 102 76.5 174t181.5 72t181.5 -71.5t76.5 -174.5z M216 664h97l48 -144h-50z" />
<glyph unicode="&#xe9;" d="M176 242h224q0 91 -30.5 138.5t-81.5 47.5q-50 0 -81 -47.5t-31 -138.5zM546 231v-43h-369q0 -70 33 -111.5t88 -41.5q98 0 154 92l58 -38q-41 -51 -90 -77t-122 -26q-51 0 -98 14.5t-85.5 43.5t-61.5 77t-23 110q0 102 76.5 174t181.5 72t181.5 -71.5t76.5 -174.5z M264 664h97l-95 -144h-50z" />
<glyph unicode="&#xea;" d="M176 242h224q0 91 -30.5 138.5t-81.5 47.5q-50 0 -81 -47.5t-31 -138.5zM546 231v-43h-369q0 -70 33 -111.5t88 -41.5q98 0 154 92l58 -38q-41 -51 -90 -77t-122 -26q-51 0 -98 14.5t-85.5 43.5t-61.5 77t-23 110q0 102 76.5 174t181.5 72t181.5 -71.5t76.5 -174.5z M411 520h-78l-44 76l-45 -76h-78l65 110h115z" />
<glyph unicode="&#xeb;" d="M176 242h224q0 91 -30.5 138.5t-81.5 47.5q-50 0 -81 -47.5t-31 -138.5zM546 231v-43h-369q0 -70 33 -111.5t88 -41.5q98 0 154 92l58 -38q-41 -51 -90 -77t-122 -26q-51 0 -98 14.5t-85.5 43.5t-61.5 77t-23 110q0 102 76.5 174t181.5 72t181.5 -71.5t76.5 -174.5z M264 591q0 -29 -21 -50t-50 -21t-50 21t-21 50t21 50t50 21t50 -21t21 -50zM455 591q0 -29 -21 -50t-50 -21t-50 21t-21 50t21 50t50 21t50 -21t21 -50z" />
<glyph unicode="&#xec;" horiz-adv-x="212" d="M41 0v464h130v-464h-130zM34 664h96l48 -144h-50z" />
<glyph unicode="&#xed;" horiz-adv-x="212" d="M41 0v464h130v-464h-130zM82 664h96l-94 -144h-50z" />
<glyph unicode="&#xee;" horiz-adv-x="212" d="M41 0v464h130v-464h-130zM229 520h-78l-45 76l-45 -76h-78l66 110h114z" />
<glyph unicode="&#xef;" horiz-adv-x="212" d="M41 0v464h130v-464h-130zM82 591q0 -29 -21 -50t-50 -21q-30 0 -51 21t-21 50t21 50t51 21q29 0 50 -21t21 -50zM273 591q0 -29 -21 -50t-51 -21q-29 0 -50 21t-21 50t21 50t50 21q30 0 51 -21t21 -50z" />
<glyph unicode="&#xf0;" horiz-adv-x="578" d="M474 644l23 -63l-59 -22q109 -153 109 -289q0 -130 -72.5 -207t-197.5 -77q-107 0 -177 69.5t-70 175.5t74 176t178 70q82 0 134 -55q-17 49 -59 107l-86 -32l-23 63l62 23q-29 27 -52 43q34 34 82 51q30 -32 55 -62zM169 251v-55q2 -86 38 -128t96 -31q43 7 74 48.5 t37 110.5q3 29 1 62q-5 84 -42.5 126t-79.5 42q-55 0 -87 -47t-37 -128z" />
<glyph unicode="&#xf1;" horiz-adv-x="575" d="M535 238v-238h-140v248q0 95 -26.5 136t-85.5 41q-54 0 -83 -41.5t-29 -96.5v-287h-131v464h130v-57q13 27 50.5 47.5t76.5 22.5q60 3 104.5 -10.5t69.5 -36t40 -57.5t19.5 -66t4.5 -69zM340 520q-37 2 -71 25q-50 34 -89 -20l-51 38q34 48 82.5 57t94.5 -23 q50 -34 89 20l51 -37q-45 -62 -106 -60z" />
<glyph unicode="&#xf2;" d="M406 219v26q0 97 -28 140t-89 43t-89 -43t-28 -140v-26q0 -98 28 -141t89 -43t89 43.5t28 140.5zM289 -14q-102 0 -180 71.5t-78 174.5q0 105 77.5 175t180.5 70q102 0 180 -70t78 -175q0 -103 -78 -174.5t-180 -71.5zM216 664h97l48 -144h-50z" />
<glyph unicode="&#xf3;" d="M406 219v26q0 97 -28 140t-89 43t-89 -43t-28 -140v-26q0 -98 28 -141t89 -43t89 43.5t28 140.5zM289 -14q-102 0 -180 71.5t-78 174.5q0 105 77.5 175t180.5 70q102 0 180 -70t78 -175q0 -103 -78 -174.5t-180 -71.5zM264 664h97l-95 -144h-50z" />
<glyph unicode="&#xf4;" d="M406 219v26q0 97 -28 140t-89 43t-89 -43t-28 -140v-26q0 -98 28 -141t89 -43t89 43.5t28 140.5zM289 -14q-102 0 -180 71.5t-78 174.5q0 105 77.5 175t180.5 70q102 0 180 -70t78 -175q0 -103 -78 -174.5t-180 -71.5zM411 520h-78l-44 76l-45 -76h-78l65 110h115z" />
<glyph unicode="&#xf5;" d="M406 219v26q0 97 -28 140t-89 43t-89 -43t-28 -140v-26q0 -98 28 -141t89 -43t89 43.5t28 140.5zM289 -14q-102 0 -180 71.5t-78 174.5q0 105 77.5 175t180.5 70q102 0 180 -70t78 -175q0 -103 -78 -174.5t-180 -71.5zM341 520q-37 2 -71 25q-50 34 -89 -20l-51 38 q34 48 82.5 57t94.5 -23q50 -34 89 20l51 -37q-45 -62 -106 -60z" />
<glyph unicode="&#xf6;" d="M406 219v26q0 97 -28 140t-89 43t-89 -43t-28 -140v-26q0 -98 28 -141t89 -43t89 43.5t28 140.5zM289 -14q-102 0 -180 71.5t-78 174.5q0 105 77.5 175t180.5 70q102 0 180 -70t78 -175q0 -103 -78 -174.5t-180 -71.5zM264 591q0 -29 -21 -50t-50 -21t-50 21t-21 50 t21 50t50 21t50 -21t21 -50zM455 591q0 -29 -21 -50t-50 -21t-50 21t-21 50t21 50t50 21t50 -21t21 -50z" />
<glyph unicode="&#xf7;" horiz-adv-x="414" d="M374 368v-60h-334v60h334zM249 489q0 -18 -12.5 -30t-29.5 -12t-29.5 12t-12.5 30q0 17 12.5 29.5t29.5 12.5t29.5 -12.5t12.5 -29.5zM249 187q0 -17 -12.5 -29.5t-29.5 -12.5t-29.5 12.5t-12.5 29.5q0 18 12.5 30t29.5 12t29.5 -12t12.5 -30z" />
<glyph unicode="&#xf8;" d="M406 219v26q0 97 -28 140t-89 43t-89 -43t-28 -140v-26q0 -98 28 -141t89 -43t89 43.5t28 140.5zM289 -14q-102 0 -180 71.5t-78 174.5q0 105 77.5 175t180.5 70q102 0 180 -70t78 -175q0 -103 -78 -174.5t-180 -71.5zM428 464h92l-375 -464h-92z" />
<glyph unicode="&#xf9;" horiz-adv-x="576" d="M535 464v-464h-130v58q-12 -27 -49.5 -47.5t-77.5 -22.5q-60 -4 -104.5 9.5t-69.5 36.5t-39.5 57.5t-19 65.5t-4.5 69v238h140v-247q0 -95 26.5 -136.5t84.5 -41.5q54 0 83.5 42t29.5 97v286h130zM216 664h96l48 -144h-50z" />
<glyph unicode="&#xfa;" horiz-adv-x="576" d="M535 464v-464h-130v58q-12 -27 -49.5 -47.5t-77.5 -22.5q-60 -4 -104.5 9.5t-69.5 36.5t-39.5 57.5t-19 65.5t-4.5 69v238h140v-247q0 -95 26.5 -136.5t84.5 -41.5q54 0 83.5 42t29.5 97v286h130zM264 664h96l-94 -144h-50z" />
<glyph unicode="&#xfb;" horiz-adv-x="576" d="M535 464v-464h-130v58q-12 -27 -49.5 -47.5t-77.5 -22.5q-60 -4 -104.5 9.5t-69.5 36.5t-39.5 57.5t-19 65.5t-4.5 69v238h140v-247q0 -95 26.5 -136.5t84.5 -41.5q54 0 83.5 42t29.5 97v286h130zM411 520h-78l-45 76l-45 -76h-78l66 110h114z" />
<glyph unicode="&#xfc;" horiz-adv-x="576" d="M535 464v-464h-130v58q-12 -27 -49.5 -47.5t-77.5 -22.5q-60 -4 -104.5 9.5t-69.5 36.5t-39.5 57.5t-19 65.5t-4.5 69v238h140v-247q0 -95 26.5 -136.5t84.5 -41.5q54 0 83.5 42t29.5 97v286h130zM264 591q0 -29 -21 -50t-50 -21q-30 0 -51 21t-21 50t21 50t51 21 q29 0 50 -21t21 -50zM455 591q0 -29 -21 -50t-51 -21q-29 0 -50 21t-21 50t21 50t50 21q30 0 51 -21t21 -50z" />
<glyph unicode="&#xfd;" horiz-adv-x="558" d="M58 -122l71 22q15 -40 51.5 -61t74.5 -21q28 0 50.5 8t36 18t23.5 28.5t14 30.5t6.5 33t2.5 27.5v21.5v46q-47 -45 -139 -45q-84 0 -146.5 61t-62.5 178v239h140l-1 -254q0 -86 27 -123.5t85 -37.5q96 0 96 119v296h131v-446q0 -44 -15 -87t-44.5 -81t-80.5 -61.5 t-116 -23.5q-82 0 -134.5 33t-69.5 80zM255 664h96l-94 -144h-50z" />
<glyph unicode="&#xfe;" horiz-adv-x="587" d="M418 215q1 7 1 28t-1 28q-5 86 -39.5 127.5t-94.5 31.5q-43 -7 -73.5 -48.5t-37.5 -110.5q-1 -10 -1 -62q5 -86 42.5 -127.5t80.5 -41.5q55 0 86.5 47t36.5 128zM311 480q107 0 176.5 -69t69.5 -176q0 -106 -73.5 -175.5t-177.5 -69.5q-81 0 -135 55v-255h-130v887h130 v-244q50 47 140 47z" />
<glyph unicode="&#xff;" horiz-adv-x="558" d="M58 -122l71 22q15 -40 51.5 -61t74.5 -21q28 0 50.5 8t36 18t23.5 28.5t14 30.5t6.5 33t2.5 27.5v21.5v46q-47 -45 -139 -45q-84 0 -146.5 61t-62.5 178v239h140l-1 -254q0 -86 27 -123.5t85 -37.5q96 0 96 119v296h131v-446q0 -44 -15 -87t-44.5 -81t-80.5 -61.5 t-116 -23.5q-82 0 -134.5 33t-69.5 80zM255 591q0 -29 -21 -50t-50 -21q-30 0 -51 21t-21 50t21 50t51 21q29 0 50 -21t21 -50zM446 591q0 -29 -21 -50t-51 -21q-29 0 -50 21t-21 50t21 50t50 21q30 0 51 -21t21 -50z" />
<glyph unicode="&#x152;" horiz-adv-x="1134" d="M173 337q0 -127 58 -209.5t166 -82.5q88 0 145 57q2 10 2 14v444q0 5 -2 11q-57 57 -145 57q-108 0 -166 -82t-58 -209zM674 60h420v-60h-587q-51 -15 -110 -15q-159 0 -262.5 102t-104.5 250q1 148 104.5 250t262.5 102q56 0 104 -13h593v-60h-420v-235h246v-61h-246 v-260z" />
<glyph unicode="&#x153;" horiz-adv-x="953" d="M545 242h243q0 69 -15 116q-26 70 -108 70q-89 0 -110 -84q-10 -37 -10 -102zM406 219v26q0 97 -28 140t-89 43t-89 -43t-28 -140v-26q0 -98 28 -141t89 -43t89 43.5t28 140.5zM31 232q0 102 78 173.5t180 71.5q111 0 189 -78q76 78 187 78q103 0 180.5 -69.5 t77.5 -174.5v-2q0 -16 -4 -42h-374q5 -81 34.5 -117.5t85.5 -36.5q89 0 115 81h112q-35 -59 -96.5 -94.5t-130.5 -35.5q-113 0 -189 78q-80 -78 -187 -78q-103 0 -180.5 70.5t-77.5 175.5z" />
<glyph unicode="&#x178;" horiz-adv-x="738" d="M200 677l223 -323l222 323h73l-266 -393v-284h-131v272l-301 405h180zM385 804q0 -29 -21 -50t-50 -21q-30 0 -51 21t-21 50t21 50t51 21q29 0 50 -21t21 -50zM576 804q0 -29 -21 -50t-51 -21q-29 0 -50 21t-21 50t21 50t50 21q30 0 51 -21t21 -50z" />
<glyph unicode="&#x2c6;" horiz-adv-x="246" d="M246 520h-78l-45 76l-45 -76h-78l66 110h115z" />
<glyph unicode="&#x2dc;" horiz-adv-x="318" d="M212 520q-37 2 -71 25q-50 34 -89 -20l-52 38q35 48 83 57t94 -23q50 -34 89 20l52 -37q-45 -62 -106 -60z" />
<glyph unicode="&#x2000;" horiz-adv-x="438" />
<glyph unicode="&#x2001;" horiz-adv-x="877" />
<glyph unicode="&#x2002;" horiz-adv-x="438" />
<glyph unicode="&#x2003;" horiz-adv-x="877" />
<glyph unicode="&#x2004;" horiz-adv-x="292" />
<glyph unicode="&#x2005;" horiz-adv-x="219" />
<glyph unicode="&#x2006;" horiz-adv-x="146" />
<glyph unicode="&#x2007;" horiz-adv-x="146" />
<glyph unicode="&#x2008;" horiz-adv-x="109" />
<glyph unicode="&#x2009;" horiz-adv-x="175" />
<glyph unicode="&#x200a;" horiz-adv-x="48" />
<glyph unicode="&#x2010;" horiz-adv-x="415" d="M41 278v60h334v-60h-334z" />
<glyph unicode="&#x2011;" horiz-adv-x="415" d="M41 278v60h334v-60h-334z" />
<glyph unicode="&#x2012;" horiz-adv-x="415" d="M41 278v60h334v-60h-334z" />
<glyph unicode="&#x2013;" horiz-adv-x="500" d="M40 278v60h419v-60h-419z" />
<glyph unicode="&#x2014;" horiz-adv-x="696" d="M40 338h616v-60h-616v60z" />
<glyph unicode="&#x2018;" horiz-adv-x="140" d="M68 677h62v-213h-120z" />
<glyph unicode="&#x2019;" horiz-adv-x="140" d="M10 677h119l-57 -212h-62v212z" />
<glyph unicode="&#x201a;" horiz-adv-x="160" d="M20 -142v202h119l-57 -202h-62z" />
<glyph unicode="&#x201c;" horiz-adv-x="287" d="M276 465h-119l58 212h61v-212zM129 465h-119l58 212h61v-212z" />
<glyph unicode="&#x201d;" horiz-adv-x="287" d="M10 677h119l-57 -213h-62v213zM157 677h119l-57 -213h-62v213z" />
<glyph unicode="&#x201e;" horiz-adv-x="307" d="M20 60h119l-57 -192h-62v192zM167 60h119l-57 -192h-62v192z" />
<glyph unicode="&#x2022;" horiz-adv-x="301" d="M261 338q0 -48 -34 -81.5t-82 -33.5q-47 0 -81 33.5t-34 81.5t34 81.5t81 33.5q48 0 82 -33.5t34 -81.5z" />
<glyph unicode="&#x2026;" horiz-adv-x="669" d="M182 71q0 -29 -21 -50t-50 -21t-50 21t-21 50t21 50t50 21t50 -21t21 -50zM405 71q0 -29 -21 -50t-50 -21t-50 21t-21 50t21 50t50 21t50 -21t21 -50zM628 71q0 -29 -21 -50t-50 -21t-50 21t-21 50t21 50t50 21t50 -21t21 -50z" />
<glyph unicode="&#x202f;" horiz-adv-x="175" />
<glyph unicode="&#x2039;" horiz-adv-x="240" d="M115 318h85l-85 -85l85 -85h-85l-85 85z" />
<glyph unicode="&#x203a;" horiz-adv-x="240" d="M40 318h85l85 -85l-85 -85h-85l85 85z" />
<glyph unicode="&#x205f;" horiz-adv-x="219" />
<glyph unicode="&#x20ac;" horiz-adv-x="685" d="M412 46q57 0 107 29.5t78 79.5h58l-15 -26q-82 -143 -228 -143q-100 0 -182.5 73.5t-105.5 196.5h-103l30 61h66v21v21h-96l30 61h73q23 123 105.5 196.5t182.5 73.5q166 0 243 -191h-62q-51 130 -181 130q-128 0 -149 -209h350l-30 -61h-323v-21v-21h302l-30 -61h-269 q21 -210 149 -210z" />
<glyph unicode="&#x2122;" horiz-adv-x="901" d="M770 677h91v-382h-97v231l-102 -204h-49l-110 182v-209h-61v321h-152v-321h-98v321h-152v61h480l135 -228z" />
<glyph unicode="&#x25fc;" horiz-adv-x="465" d="M0 465h465v-465h-465v465z" />
</font>
</defs>
</svg>
