<?xml version="1.0" standalone="no"?>
<!DOCTYPE svg PUBLIC "-//W3C//DTD SVG 1.1//EN" "http://www.w3.org/Graphics/SVG/1.1/DTD/svg11.dtd" >
<svg xmlns="http://www.w3.org/2000/svg" xmlns:xlink="http://www.w3.org/1999/xlink" version="1.1">
<metadata></metadata>
<defs>
<font id="sentasansbold" horiz-adv-x="637" >
<font-face units-per-em="1000" ascent="750" descent="-250" />
<missing-glyph horiz-adv-x="370" />
<glyph horiz-adv-x="0" />
<glyph horiz-adv-x="0" />
<glyph unicode="&#xd;" horiz-adv-x="250" />
<glyph unicode=" "  horiz-adv-x="370" />
<glyph unicode="&#x09;" horiz-adv-x="370" />
<glyph unicode="&#xa0;" horiz-adv-x="370" />
<glyph unicode="!" horiz-adv-x="291" d="M220 258h-148l-30 420h208zM250 105q0 -43 -31 -74t-74 -31t-74 31t-31 74t31 74t74 31t74 -31t31 -74z" />
<glyph unicode="&#x22;" horiz-adv-x="359" d="M20 677h149l-57 -242h-92v242zM189 677h150l-58 -242h-92v242z" />
<glyph unicode="#" horiz-adv-x="919" d="M614 676h195l-54 -184h133l-27 -90h-132l-38 -128h138l-27 -90h-137l-55 -184h-195l55 184h-111l-55 -184h-195l55 184h-134l27 90h133l38 128h-139l27 90h138l54 184h195l-54 -184h111zM423 402l-38 -128h111l38 128h-111z" />
<glyph unicode="$" horiz-adv-x="672" d="M383 267v-165q83 22 83 87q0 41 -83 78zM212 538q0 -31 81 -63v135q-81 -14 -81 -72zM642 214q0 -88 -75 -142.5t-184 -67.5v-81h-90v78q-170 12 -263 144l81 59q73 -94 182 -106v203q-39 14 -61 23t-56.5 25t-54.5 31.5t-41.5 36t-31 45t-9.5 53.5q0 84 75 132.5 t179 55.5v77l90 1v-82q134 -24 204 -113l-75 -55q-53 68 -129 80v-167q56 -19 93 -35.5t79.5 -44t64.5 -65.5t22 -85z" />
<glyph unicode="%" horiz-adv-x="932" d="M225 642q-67 0 -67 -100q0 -50 18 -75t49 -25q30 0 48 25t18 75q0 100 -66 100zM224 391q-81 0 -137.5 39.5t-56.5 111.5t55.5 111.5t138.5 39.5q84 0 139.5 -39.5t55.5 -111.5t-57 -111.5t-138 -39.5zM50 0l609 677h222l-609 -677h-222zM707 35q31 0 49 25t18 75 q0 100 -67 100q-66 0 -66 -100q0 -50 18 -75t48 -25zM707 286q83 0 139 -39.5t56 -111.5t-57 -111.5t-138 -39.5t-137.5 39.5t-56.5 111.5t55.5 111.5t138.5 39.5z" />
<glyph unicode="&#x26;" horiz-adv-x="748" d="M302 79q60 0 132 40q-23 37 -74.5 116t-67.5 105q-87 -72 -87 -146q0 -53 25 -84t72 -31zM376 683q-32 0 -41.5 -31.5t19.5 -79.5l36 -58q59 52 59 105q0 64 -73 64zM620 153l97 -153h-205q-10 16 -27 42q-111 -71 -220 -71q-97 0 -165.5 54t-68.5 136q0 36 15.5 69.5 t47.5 65.5t65.5 57.5t84.5 59.5q-13 20 -34 53t-29 45q-38 57 -38 107q0 67 55 108t150 41q94 0 140 -36.5t46 -102.5q0 -96 -100 -183l141 -221q38 34 74 71l43 -65q-46 -52 -72 -77z" />
<glyph unicode="'" horiz-adv-x="190" d="M20 677h149l-57 -242h-92v242z" />
<glyph unicode="(" horiz-adv-x="329" d="M40 353q0 101 19 181.5t47 128t65.5 79t71 44t66.5 13.5v-98q-17 -4 -30 -19.5t-25 -51.5t-18.5 -106t-6.5 -171t6.5 -171t18.5 -106t25 -51.5t30 -19.5v-99q-33 2 -66.5 14t-71 44t-65.5 79.5t-47 127.5t-19 182z" />
<glyph unicode=")" horiz-adv-x="329" d="M289 353q0 -102 -18.5 -182t-47 -127.5t-66 -79.5t-71 -44t-66.5 -14v99q17 4 30 19.5t25.5 51.5t19 106t6.5 171t-6.5 171t-19 106t-25.5 51.5t-30 19.5v98q33 -1 66.5 -13.5t71 -44t66 -79t47 -128t18.5 -181.5z" />
<glyph unicode="*" horiz-adv-x="307" d="M184 677l52 -30l-30 -53h60v-60h-60l30 -52l-52 -30l-30 52l-31 -52l-52 30l31 52h-61v60h61l-31 53l52 30l31 -53z" />
<glyph unicode="+" horiz-adv-x="415" d="M168 475h80v-127h127v-80h-127v-127h-80v127h-127v80h127v127z" />
<glyph unicode="," horiz-adv-x="291" d="M112 6q-31 11 -51 38t-20 61q0 43 30.5 74t74.5 31q43 0 73.5 -30.5t30.5 -74.5q0 -98 -60.5 -165t-148.5 -67v71q23 0 45.5 17.5t25.5 44.5z" />
<glyph unicode="-" horiz-adv-x="415" d="M41 263v90h334v-90h-334z" />
<glyph unicode="." horiz-adv-x="290" d="M250 105q0 -43 -31 -74t-74 -31t-74 31t-31 74t31 74t74 31t74 -31t31 -74z" />
<glyph unicode="/" horiz-adv-x="831" d="M629 676h182l-609 -676h-182z" />
<glyph unicode="0" horiz-adv-x="647" d="M324 72q54 0 76 57t27 209q0 149 -24.5 207t-78.5 58q-55 0 -79.5 -58t-24.5 -207q6 -153 28 -209.5t76 -56.5zM324 -14q-133 0 -213 87.5t-80 264.5q0 176 81 263t212 89q292 -4 292 -352q0 -352 -292 -352z" />
<glyph unicode="1" horiz-adv-x="308" d="M156 677h112v-677h-192v487h-66v88q50 0 91.5 30t54.5 72z" />
<glyph unicode="2" horiz-adv-x="599" d="M134 483l-104 61q35 71 106.5 108.5t163.5 37.5q133 0 200.5 -49t67.5 -138q0 -36 -16 -65.5t-47 -52.5t-63.5 -40t-79.5 -35q-39 -15 -60.5 -24t-50.5 -24.5t-43.5 -29t-25.5 -33t-11 -41.5h389v-158h-511v106q0 52 20 92.5t52 66t70.5 46.5t77.5 39t71 37t52 47t20 63 q0 52 -30 80.5t-85 28.5q-52 0 -95 -34.5t-68 -88.5z" />
<glyph unicode="3" horiz-adv-x="630" d="M316 -14q-200 0 -286 142l88 45q62 -98 156 -98q62 0 98.5 34t36.5 91q0 62 -37.5 95t-134.5 33v90q87 0 120.5 24t33.5 73q0 45 -30 68t-79 23q-45 0 -73.5 -24.5t-52.5 -74.5l-88 40q37 75 98 109t157 34q115 0 182 -45.5t67 -122.5q0 -107 -96 -140q124 -50 124 -168 q0 -109 -81 -168.5t-203 -59.5z" />
<glyph unicode="4" horiz-adv-x="602" d="M351 677h191v-399h60v-90h-60v-188h-191v188h-331v90zM351 541l-218 -263h218v263z" />
<glyph unicode="5" horiz-adv-x="616" d="M30 107l79 52q52 -84 173 -84q59 0 97 33.5t38 96.5q0 65 -45.5 98.5t-124.5 33.5q-97 0 -178 -31v371h498v-160h-408v-110q39 9 98 9q155 0 242 -53.5t87 -161.5q0 -107 -81.5 -161t-215.5 -54q-101 0 -167.5 36t-91.5 85z" />
<glyph unicode="6" horiz-adv-x="633" d="M326 385q-55 0 -85.5 -43t-30.5 -112t31 -112t85 -43q55 0 86 42t31 113q0 155 -117 155zM336 -14q-305 0 -305 340q0 175 82 269.5t240 94.5q145 0 222 -95l-76 -59q-58 66 -143 66q-81 0 -130.5 -48t-49.5 -142q57 42 150 42q122 0 199 -57t77 -172q0 -108 -75 -173.5 t-191 -65.5z" />
<glyph unicode="7" horiz-adv-x="584" d="M20 677h544v-100l-307 -577h-114l276 519h-399v158z" />
<glyph unicode="8" horiz-adv-x="704" d="M356 51q55 0 91 34t36 88q0 39 -30.5 67.5t-101.5 47.5q-48 13 -82 25q-59 -59 -59 -132q0 -55 41.5 -92.5t104.5 -37.5zM352 622q-54 0 -82.5 -26t-28.5 -60q0 -36 36 -55.5t112 -39.5q5 -2 45 -13q38 39 38 95q0 44 -32 71.5t-88 27.5zM533 392q74 -33 107 -78t33 -115 q0 -87 -82.5 -150t-234.5 -63t-239 57t-87 156q0 50 41.5 89.5t104.5 62.5q-113 60 -113 160q0 83 78.5 131t212.5 48q133 0 210 -47.5t77 -131.5q0 -80 -108 -119z" />
<glyph unicode="9" horiz-adv-x="633" d="M307 292q55 0 85.5 43t30.5 112t-31 112t-85 43q-55 0 -86 -42t-31 -113q0 -155 117 -155zM297 690q305 0 305 -339q0 -176 -82 -270.5t-240 -94.5q-145 0 -222 96l72 56q60 -67 147 -67q80 0 130 50t50 144q-58 -43 -150 -43q-122 0 -199 57.5t-77 172.5q0 108 74.5 173 t191.5 65z" />
<glyph unicode=":" horiz-adv-x="290" d="M250 105q0 -43 -31 -74t-74 -31t-74 31t-31 74t31 74t74 31t74 -31t31 -74zM250 432q0 -44 -31 -74.5t-74 -30.5t-74 30.5t-31 74.5q0 43 31 73.5t74 30.5t74 -30.5t31 -73.5z" />
<glyph unicode=";" horiz-adv-x="291" d="M112 6q-31 11 -51 38t-20 61q0 43 30.5 74t74.5 31t74.5 -31t30.5 -74q0 -98 -61 -165t-149 -67v71q23 0 45.5 17.5t25.5 44.5zM251 432q0 -44 -30.5 -74.5t-74.5 -30.5t-74.5 30.5t-30.5 74.5q0 43 31 73.5t74 30.5t74 -30.5t31 -73.5z" />
<glyph unicode="&#x3c;" horiz-adv-x="381" d="M341 641v-105l-206 -206l206 -205v-105l-311 310z" />
<glyph unicode="=" horiz-adv-x="415" d="M41 421h334v-80h-334v80zM41 194v80h334v-80h-334z" />
<glyph unicode="&#x3e;" horiz-adv-x="381" d="M40 536v105l311 -311l-311 -310v105l205 205z" />
<glyph unicode="?" horiz-adv-x="584" d="M280 678q118 0 194 -43.5t79 -117.5q1 -28 -8 -50.5t-24.5 -37.5t-35 -28t-39 -26.5t-36 -28.5t-26.5 -37.5t-10 -50.5h-176q0 55 19.5 91t47.5 53t55.5 31t46 36.5t16.5 56.5t-27 53.5t-73 19.5q-40 0 -74.5 -30t-56.5 -80l-122 61q83 128 250 128zM390 105 q0 -43 -31 -74t-74 -31t-73.5 30.5t-30.5 74.5t30.5 74.5t73.5 30.5t74 -31t31 -74z" />
<glyph unicode="@" horiz-adv-x="882" d="M434 144q67 0 67 124q0 125 -67 125q-66 0 -66 -125q0 -124 66 -124zM501 434h131v-263q0 -26 10 -38.5t23 -12.5q41 0 41 150q0 135 -65 200t-205 65q-125 0 -192.5 -70t-67.5 -195q0 -133 65 -206t216 -73q125 0 189 43l116 -33q-116 -105 -305 -105q-201 0 -313.5 97 t-112.5 277q0 88 34.5 159t92.5 115t129.5 67.5t148.5 23.5q189 0 302 -93t113 -272q0 -93 -49.5 -152t-135.5 -59q-141 0 -165 69q-37 -34 -96 -34q-79 0 -128.5 45.5t-49.5 128.5t49.5 128.5t128.5 45.5q58 0 96 -39v31z" />
<glyph unicode="A" horiz-adv-x="805" d="M305 677h171l309 -677h-200l-76 160h-320l-65 -160h-104zM338 525l-112 -274h240z" />
<glyph unicode="B" horiz-adv-x="760" d="M231 90h146q154 0 154 108t-154 108h-146v-216zM314 589h-83v-193h83q78 0 106.5 22t28.5 73q0 52 -28.5 75t-106.5 23zM730 198q0 -87 -65.5 -142.5t-192.5 -55.5h-432v677h338q124 0 187 -53t63 -137q0 -66 -38 -107q65 -19 102.5 -69t37.5 -113z" />
<glyph unicode="C" horiz-adv-x="746" d="M427 599q-89 0 -141.5 -69t-52.5 -192q0 -122 53 -192t141 -70q115 0 204 91l73 -55q-116 -126 -277 -126q-82 0 -152.5 20.5t-126 62t-87 110.5t-31.5 159t31.5 159t87 110.5t125.5 62t153 20.5q100 0 174.5 -47t113.5 -123l-82 -40q-37 63 -86.5 91t-119.5 28z" />
<glyph unicode="D" horiz-adv-x="772" d="M231 90h110q104 0 157 64t53 184t-54 184.5t-160 64.5h-106v-497zM40 677h349q166 0 258.5 -84.5t93.5 -253.5q-1 -170 -93.5 -254.5t-258.5 -84.5h-349v677z" />
<glyph unicode="E" horiz-adv-x="661" d="M40 677h581v-90h-390v-191h216v-90h-216v-216h390v-90h-581v677z" />
<glyph unicode="F" horiz-adv-x="650" d="M40 677h579v-90h-391v-191h217v-90h-217v-306h-188v677z" />
<glyph unicode="G" horiz-adv-x="769" d="M729 0h-132v28q-78 -42 -170 -42q-82 0 -152.5 20.5t-126 62t-87 110.5t-31.5 159t31.5 159t87 110.5t125.5 62t153 20.5q87 0 162.5 -45.5t125.5 -124.5l-83 -41q-65 120 -205 120q-89 0 -141.5 -69t-52.5 -192q0 -122 53 -192t141 -70q99 0 170 51v151h-98v91h230v-369 z" />
<glyph unicode="H" horiz-adv-x="763" d="M532 677h191v-677h-191v306h-301v-306h-191v677h191v-281h301v281z" />
<glyph unicode="I" horiz-adv-x="271" d="M40 0v677h191v-677h-191z" />
<glyph unicode="J" horiz-adv-x="726" d="M496 249v442h189v-429q0 -122 -87.5 -192t-242.5 -70q-148 0 -230 60.5t-95 176.5l165 42q8 -93 47 -140.5t104 -47.5q69 0 109.5 42t40.5 116z" />
<glyph unicode="K" horiz-adv-x="827" d="M565 677h142l-247 -216l346 -461h-226l-254 344l-95 -83v-261h-191v677h191v-292z" />
<glyph unicode="L" horiz-adv-x="664" d="M40 677h191v-587h402v-90h-593v677z" />
<glyph unicode="M" horiz-adv-x="880" d="M638 677h201v-677h-191v478l-220 -478h-94l-204 437v-437h-90v677h193l204 -438z" />
<glyph unicode="N" horiz-adv-x="685" d="M40 677h179l335 -475v475h91v-677h-174l-341 491v-491h-90v677z" />
<glyph unicode="O" horiz-adv-x="855" d="M427 76q195 0 195 262q0 261 -195 261q-194 0 -194 -261q0 -262 194 -262zM427 -14q-168 0 -282 95t-115 257q1 161 115 256.5t282 95.5t282 -95.5t115 -256.5q-1 -162 -115 -257t-282 -95z" />
<glyph unicode="P" horiz-adv-x="701" d="M231 365h67q91 0 136 25.5t45 85.5q0 62 -40.5 86.5t-140.5 24.5h-67v-222zM231 275v-275h-191v677h341q147 0 218.5 -52.5t71.5 -148.5t-72 -148.5t-218 -52.5h-150z" />
<glyph unicode="Q" horiz-adv-x="856" d="M428 76q52 0 92 20l-159 158h211l36 -37q14 49 14 121q0 261 -194 261q-195 0 -195 -261q0 -262 195 -262zM728 98l98 -98h-209l-17 17q-77 -31 -172 -31q-168 0 -282 95t-115 257q1 161 115 256.5t282 95.5t282 -95.5t115 -256.5q-1 -146 -97 -240z" />
<glyph unicode="R" horiz-adv-x="768" d="M231 587v-222h67q91 0 136 25.5t45 85.5q0 62 -40.5 86.5t-140.5 24.5h-67zM545 299l193 -299h-217l-174 275h-116v-275h-191v677h341q147 0 218.5 -52.5t71.5 -148.5q0 -130 -126 -177z" />
<glyph unicode="S" horiz-adv-x="752" d="M288 525q16 -28 67.5 -52.5t111.5 -46t118.5 -48.5t97.5 -72.5t39 -105.5q0 -68 -49 -117.5t-127 -73t-173 -23.5q-220 0 -343 145l103 75q91 -124 243 -124q81 0 114 29t10 70q-16 29 -68 56t-113.5 49.5t-121.5 49.5t-99.5 69t-39.5 96q0 92 87.5 140.5t217.5 48.5 q88 0 171 -29t126 -89l-100 -60q-32 44 -76 66t-88 22q-43 0 -72.5 -12.5t-36 -29t0.5 -33.5z" />
<glyph unicode="T" horiz-adv-x="715" d="M30 677h654v-90h-232v-587h-190v587h-232v90z" />
<glyph unicode="U" horiz-adv-x="777" d="M388 -14q-73 0 -129 13.5t-92.5 31t-61.5 55t-37.5 65.5t-19 83t-7.5 87.5t-1 97.5v258h191v-408q0 -84 37.5 -137t119.5 -53t119.5 53t37.5 137v408h191v-258q0 -65 -1 -97.5t-7.5 -87.5t-19 -83t-37.5 -65.5t-61.5 -55t-92.5 -31t-129 -13.5z" />
<glyph unicode="V" horiz-adv-x="758" d="M634 677h104l-285 -677h-124l-309 677h203l216 -463z" />
<glyph unicode="W" horiz-adv-x="1141" d="M1016 677h104l-285 -677h-125l-132 325l-118 -325h-131l-309 677h203l219 -470l84 244l-92 226h198l195 -468z" />
<glyph unicode="X" horiz-adv-x="791" d="M623 677h118l-254 -309l273 -368h-223l-183 246l-202 -246h-122l267 323l-263 354h223l173 -233z" />
<glyph unicode="Y" horiz-adv-x="795" d="M260 677l202 -292l200 292h113l-263 -389v-288h-191v272l-301 405h240z" />
<glyph unicode="Z" horiz-adv-x="717" d="M40 677h637v-63l-400 -524h400v-90h-637v72l393 515h-393v90z" />
<glyph unicode="[" horiz-adv-x="320" d="M40 799h299v-60h-131v-772h131v-60h-299v892z" />
<glyph unicode="\" horiz-adv-x="831" d="M20 676h182l609 -676h-182z" />
<glyph unicode="]" horiz-adv-x="320" d="M-20 799h299v-892h-299v60h131v772h-131v60z" />
<glyph unicode="^" horiz-adv-x="364" d="M182 677l151 -275h-68l-83 150l-83 -150h-69z" />
<glyph unicode="_" horiz-adv-x="533" d="M1 -116v80h532v-80h-532z" />
<glyph unicode="`" horiz-adv-x="145" d="M-24 664h146l48 -144h-100z" />
<glyph unicode="a" horiz-adv-x="648" d="M323 55q94 0 94 177q0 176 -94 176t-94 -176q0 -177 94 -177zM417 422v43h190v-465h-190v33q-52 -47 -135 -47q-111 0 -181.5 64t-70.5 181t70.5 181.5t181.5 64.5q81 0 135 -55z" />
<glyph unicode="b" horiz-adv-x="649" d="M325 409q-94 0 -94 -177q0 -176 94 -176t94 176q0 177 -94 177zM231 42v-43h-191v678h191v-246q50 47 135 47q112 0 182.5 -64t70.5 -181q0 -118 -70.5 -182.5t-182.5 -64.5q-82 0 -135 56z" />
<glyph unicode="c" horiz-adv-x="541" d="M423 135l88 -28q-27 -65 -76.5 -93t-131.5 -28q-54 0 -101.5 13.5t-86.5 42t-61.5 77.5t-22.5 114q0 126 76 185t196 59q141 0 206 -113l-78 -49q-49 81 -113 81q-43 0 -73.5 -43t-30.5 -122q0 -80 30.5 -123t73.5 -43q37 0 64.5 19t40.5 51z" />
<glyph unicode="d" horiz-adv-x="650" d="M418 232q0 177 -94 177t-94 -177q0 -176 94 -176t94 176zM609 677v-678h-191v43q-52 -56 -135 -56q-111 0 -181.5 64.5t-70.5 182.5q0 117 70.5 181t181.5 64q86 0 135 -47v246h191z" />
<glyph unicode="e" d="M236 262h164q0 136 -82 136t-82 -136zM318 477q127 0 207.5 -70.5t80.5 -175.5v-53h-370q0 -48 27 -80.5t74 -32.5q81 0 131 63l97 -45q-64 -97 -237 -97q-83 0 -148.5 25t-107.5 81.5t-42 138.5q0 105 80.5 175.5t207.5 70.5z" />
<glyph unicode="f" horiz-adv-x="381" d="M360 697v-78q-48 4 -67.5 -13.5t-19.5 -74.5v-67h77v-90h-77v-374h-190v374h-63v90h63v60q0 197 277 173z" />
<glyph unicode="g" horiz-adv-x="639" d="M226 231q0 -176 91 -176q90 0 90 176q0 177 -90 177q-91 0 -91 -177zM407 422v43h191v-448q0 -121 -75 -187t-212 -66q-179 0 -233 132l133 27q8 -32 33.5 -54t64.5 -22q98 0 98 137v49q-49 -47 -129 -47q-109 0 -178.5 64t-69.5 181t69.5 181.5t178.5 64.5q77 0 129 -55 z" />
<glyph unicode="h" horiz-adv-x="635" d="M595 238v-238h-200v279q0 63 -19 89.5t-63 26.5q-37 0 -59.5 -26t-22.5 -78v-291h-191v677h191v-260q63 61 157 61q207 0 207 -240z" />
<glyph unicode="i" horiz-adv-x="270" d="M40 0v464h190v-464h-190zM235 644q0 -41 -29.5 -70.5t-70.5 -29.5t-70.5 29.5t-29.5 70.5t29.5 70.5t70.5 29.5t70.5 -29.5t29.5 -70.5z" />
<glyph unicode="j" horiz-adv-x="272" d="M41 -48v512h190v-456q0 -125 -64.5 -184.5t-202.5 -59.5v78q34 0 55.5 30t21.5 80zM236 644q0 -41 -29.5 -70.5t-70.5 -29.5t-70.5 29.5t-29.5 70.5t29.5 70.5t70.5 29.5t70.5 -29.5t29.5 -70.5z" />
<glyph unicode="k" horiz-adv-x="627" d="M40 677h191v-408l177 195h125l-141 -155l205 -309h-216l-113 172l-37 -41v-131h-191v677z" />
<glyph unicode="l" horiz-adv-x="271" d="M40 0v677h191v-677h-191z" />
<glyph unicode="m" horiz-adv-x="1000" d="M595 291v-291h-200v279q0 63 -19 89.5t-63 26.5q-37 0 -59.5 -26t-22.5 -78v-291h-191v464h190v-47q64 61 158 61q129 0 178 -96q66 96 186 96q207 0 207 -240v-238h-200v279q0 63 -19 89.5t-63 26.5q-37 0 -59.5 -26t-22.5 -78z" />
<glyph unicode="n" horiz-adv-x="635" d="M595 238v-238h-200v279q0 63 -19 89.5t-63 26.5q-37 0 -59.5 -26t-22.5 -78v-291h-191v464h190v-47q64 61 158 61q207 0 207 -240z" />
<glyph unicode="o" d="M319 55q87 0 87 165v24q0 164 -87 164t-87 -164v-24q0 -165 87 -165zM319 477q120 0 204 -63t84 -182q0 -117 -84.5 -181.5t-203.5 -64.5t-203.5 64.5t-84.5 181.5q0 119 84 182t204 63z" />
<glyph unicode="p" horiz-adv-x="650" d="M232 231q0 -176 94 -176t94 176q0 177 -94 177t-94 -177zM41 -213v678h191v-43q52 55 135 55q111 0 181.5 -64.5t70.5 -181.5t-70.5 -181.5t-181.5 -64.5q-85 0 -135 48v-246h-191z" />
<glyph unicode="q" horiz-adv-x="650" d="M324 55q94 0 94 176q0 177 -94 177t-94 -177q0 -176 94 -176zM418 422v43h191v-678h-191v246q-51 -48 -135 -48q-111 0 -181.5 64.5t-70.5 181.5t70.5 181.5t181.5 64.5q83 0 135 -55z" />
<glyph unicode="r" horiz-adv-x="432" d="M375 478q2 0 13 -1t14 -2v-81q-69 17 -120 -17.5t-51 -112.5v-264h-191v464h190v-37q47 51 145 51z" />
<glyph unicode="s" horiz-adv-x="563" d="M226 353q0 -20 31.5 -33t77 -23t90.5 -25t76.5 -48t31.5 -82q0 -65 -69 -110.5t-191 -45.5q-165 0 -252 97l82 69q21 -28 58.5 -53t75.5 -29q56 -6 82 6.5t12 44.5q-6 15 -39 27.5t-74.5 24t-82.5 28.5t-69 52t-28 84q0 60 68 100t172 40q70 0 130.5 -21t91.5 -65 l-93 -53q-50 57 -114 57q-67 0 -67 -42z" />
<glyph unicode="t" horiz-adv-x="362" d="M20 464h17q43 0 73 30t30 73v18h121v-121h70v-90h-70v-215q0 -43 18 -56t52 -13v-90h-124q-60 0 -98.5 41.5t-38.5 101.5v231h-50v90z" />
<glyph unicode="u" horiz-adv-x="635" d="M40 226v238h200v-279q0 -62 19 -89t63 -27q37 0 59.5 26t22.5 78v291h191v-464h-190v48q-63 -61 -158 -61q-207 0 -207 239z" />
<glyph unicode="v" horiz-adv-x="626" d="M496 464h110l-173 -464h-225l-188 464h201l143 -354z" />
<glyph unicode="w" horiz-adv-x="989" d="M859 464h109l-172 -464h-225l-72 177l-66 -177h-225l-188 464h201l143 -354l78 208l-60 146h202l143 -354z" />
<glyph unicode="x" horiz-adv-x="633" d="M472 464h131l-192 -213l191 -251h-214l-104 135l-121 -135h-133l193 214l-192 250h219l101 -134z" />
<glyph unicode="y" horiz-adv-x="636" d="M596 465v-447q0 -121 -75 -187t-212 -66q-180 0 -233 133l133 26q7 -31 33 -53.5t65 -22.5q98 0 98 138v62q-63 -61 -157 -61q-207 0 -207 240v238h200v-279q0 -63 19 -89.5t63 -26.5q37 0 59.5 26t22.5 78v291h191z" />
<glyph unicode="z" horiz-adv-x="540" d="M40 464h460v-95l-245 -285h245v-84h-460v95l245 285h-245v84z" />
<glyph unicode="{" horiz-adv-x="360" d="M41 324v58q33 17 46 39.5t13 56.5v209q0 46 33 79t80 33h186v-90h-54q-24 0 -40.5 -16.5t-16.5 -39.5v-189q0 -41 -25 -72.5t-59 -38.5q34 -7 59 -38.5t25 -72.5v-189q0 -23 16.5 -39.5t40.5 -16.5h54v-90h-186q-47 0 -80 33t-33 79v209q0 34 -13 56.5t-46 39.5z" />
<glyph unicode="|" horiz-adv-x="161" d="M41 799h80v-893h-80v893z" />
<glyph unicode="}" horiz-adv-x="360" d="M319 382v-58q-33 -17 -46 -39.5t-13 -56.5v-209q0 -47 -33 -79.5t-80 -32.5h-186v90h55q23 0 39.5 16.5t16.5 39.5v189q0 41 25 72.5t59 38.5q-34 7 -59 38.5t-25 72.5v189q0 23 -16.5 39.5t-39.5 16.5h-55v90h186q47 0 80 -32.5t33 -79.5v-209q0 -34 13 -56.5t46 -39.5z " />
<glyph unicode="~" horiz-adv-x="410" d="M370 348v-82q-39 -23 -76 -23t-66 12.5t-57.5 25t-62.5 11.5t-68 -26v82q39 25 74.5 26.5t63.5 -10.5t56 -24.5t63 -13t73 21.5z" />
<glyph unicode="&#xa1;" horiz-adv-x="292" d="M71 206h148l30 -420h-208zM42 359q0 44 30.5 74.5t73.5 30.5q44 0 74.5 -31t30.5 -74t-30.5 -74t-74.5 -31q-43 0 -73.5 30.5t-30.5 74.5z" />
<glyph unicode="&#xa2;" horiz-adv-x="542" d="M321 63q75 0 111 67l74 -35q-30 -49 -70 -74.5t-100 -31.5v-80h-90v81q-96 11 -156 71.5t-60 172.5q0 110 59 168.5t157 71.5v82h90v-80q125 -14 176 -116l-78 -36q-40 75 -113 75q-44 0 -72 -41.5t-28 -126.5t28 -126.5t72 -41.5z" />
<glyph unicode="&#xa3;" horiz-adv-x="670" d="M278 90h362v-90h-600v91q32 25 46.5 38t33.5 34.5t26.5 44.5t7.5 51t-7 58h-77v90h52q-6 34 -6 58q0 57 27.5 103.5t71.5 74t95.5 41.5t104.5 14q86 0 156 -45v-93q-113 58 -191.5 25.5t-78.5 -127.5q0 -28 4 -51h176v-90h-159q9 -45 9 -74q0 -85 -53 -153z" />
<glyph unicode="&#xa4;" horiz-adv-x="476" d="M178 213q25 -25 60 -25t60 25t25 60t-25 60t-60 25t-60 -25t-25 -60t25 -60zM401 185l44 -44l-75 -75l-44 44q-41 -22 -88 -22t-88 22l-44 -44l-75 75l44 44q-22 41 -22 88t22 88l-44 44l75 75l44 -44q41 22 88 22t88 -22l44 44l75 -75l-44 -44q22 -41 22 -88t-22 -88z " />
<glyph unicode="&#xa5;" horiz-adv-x="720" d="M596 676h94l-198 -346h174l-44 -90h-151v-33h187l-45 -90h-142v-117h-190v117h-181l45 90h136v33h-172l45 90h99l-223 346h221l173 -293z" />
<glyph unicode="&#xa6;" horiz-adv-x="161" d="M41 799h80v-341h-80v341zM41 248h80v-342h-80v342z" />
<glyph unicode="&#xa7;" horiz-adv-x="549" d="M189 333l179 -124l10 16q14 23 9 48.5t-27 40.5l-179 124l-10 -16q-14 -23 -9 -48.5t27 -40.5zM476 196l-34 -48q40 -50 37 -103q-2 -72 -64 -107t-151 -32q-91 4 -139.5 39t-81.5 108l73 31q24 -50 59 -78.5t64.5 -27.5t52.5 22q16 17 14 40.5t-24 38.5l-161 112 q-64 43 -78 119t30 140l34 49q-39 48 -38 102q3 72 65 107t151 32q91 -3 139.5 -38t81.5 -108l-73 -31q-18 38 -42.5 63.5t-49 35t-47 6t-38.5 -20.5t-13.5 -41t24.5 -38l161 -112q63 -44 77 -120t-29 -140z" />
<glyph unicode="&#xa8;" horiz-adv-x="334" d="M147 598q0 -32 -23 -55t-56 -23q-32 0 -55 23t-23 55t23 55t55 23q33 0 56 -23t23 -55zM344 598q0 -32 -23 -55t-55 -23t-55 23t-23 55t23 55t55 23t55 -23t23 -55z" />
<glyph unicode="&#xa9;" horiz-adv-x="575" d="M294 329q-32 1 -50.5 -25.5t-18.5 -60.5t18.5 -60t50.5 -26q48 0 69 40l51 -28q-41 -69 -122 -71q-63 0 -106.5 42t-43.5 103t44 103t106 41q47 0 84 -28t46 -72l-59 -14q-14 56 -69 56zM288 51q80 0 136 56.5t56 135.5q0 80 -56 136.5t-136 56.5t-136.5 -56.5 t-56.5 -136.5q0 -79 56.5 -135.5t136.5 -56.5zM288 500q106 0 181.5 -75t75.5 -182t-75.5 -182t-181.5 -75t-181.5 75t-75.5 182t75.5 182t181.5 75z" />
<glyph unicode="&#xaa;" horiz-adv-x="315" d="M112 499q6 -21 29.5 -24.5t43.5 6.5q-2 5 -2 16v51q-43 1 -60.5 -13t-10.5 -36zM278 591v-87v-14.5t1.5 -10t5 -8.5t9.5 -2v-30h-49q-25 0 -42 16q-33 -23 -82 -23q-46 0 -73.5 18.5t-27.5 52.5q0 41 43.5 62t119.5 13v31q0 11 -8 18t-21 7q-14 0 -22 -7t-8 -18l-90 -2 q4 23 23 41q27 29 102 29q55 0 87 -21.5t32 -64.5z" />
<glyph unicode="&#xab;" horiz-adv-x="438" d="M198 233l85 85h115l-85 -85l85 -85h-115zM115 318h115l-85 -85l85 -85h-115l-85 85z" />
<glyph unicode="&#xac;" horiz-adv-x="586" d="M40 428h506v-270h-159v190h-347v80z" />
<glyph unicode="&#xad;" horiz-adv-x="415" d="M41 263v90h334v-90h-334z" />
<glyph unicode="&#xae;" horiz-adv-x="575" d="M287 51q80 0 136.5 56.5t56.5 135.5q0 80 -56.5 136.5t-136.5 56.5t-136 -56.5t-56 -136.5q0 -79 56.5 -135.5t135.5 -56.5zM287 500q107 0 182 -75t75 -182t-75 -182t-182 -75t-182 75t-75 182t75 182t182 75zM255 266h37q10 0 17 8t7 20t-6.5 19.5t-17.5 7.5h-37v-55z M357 233l68 -107h-91l-55 87h-24v-87h-87l-1 239h160q27 0 46.5 -20t19.5 -50q0 -43 -36 -62z" />
<glyph unicode="&#xaf;" horiz-adv-x="268" d="M0 520v87h268v-87h-268z" />
<glyph unicode="&#xb0;" horiz-adv-x="430" d="M215 425q31 0 49 25t18 75q0 100 -67 100q-66 0 -66 -100q0 -50 18 -75t48 -25zM215 676q84 0 139.5 -39.5t55.5 -111.5t-56.5 -111.5t-138.5 -39.5q-81 0 -137.5 39.5t-56.5 111.5t55.5 111.5t138.5 39.5z" />
<glyph unicode="&#xb1;" horiz-adv-x="415" d="M374 190v-80h-334v80h334zM247 429h127v-80h-127v-127h-80v127h-127v80h127v127h80v-127z" />
<glyph unicode="&#xb4;" horiz-adv-x="145" d="M23 664h147l-94 -144h-100z" />
<glyph unicode="&#xb6;" horiz-adv-x="651" d="M214 647h396v-776h-180v610h-76v-610h-180v394q-66 14 -109.5 67t-43.5 122q0 80 56.5 136.5t136.5 56.5z" />
<glyph unicode="&#xb7;" horiz-adv-x="290" d="M250 338q0 -44 -31 -74.5t-74 -30.5t-74 30.5t-31 74.5t31 74.5t74 30.5t74 -30.5t31 -74.5z" />
<glyph unicode="&#xb8;" horiz-adv-x="306" d="M169 -38h12q42 0 72 -25.5t30 -61.5q0 -37 -30 -62.5t-72 -25.5h-148v64h61q44 0 44 34t-44 34h-61l55 136h119z" />
<glyph unicode="&#xba;" horiz-adv-x="329" d="M208 548v12q0 83 -44 83t-44 -83v-12q0 -82 44 -82t44 82zM164 677q60 0 102 -31.5t42 -91.5q0 -58 -42 -90t-102 -32t-102 32t-42 90q0 60 42 91.5t102 31.5z" />
<glyph unicode="&#xbb;" horiz-adv-x="438" d="M155 318l85 -85l-85 -85h-115l85 85l-85 85h115zM208 318h115l85 -85l-85 -85h-115l85 85z" />
<glyph unicode="&#xbf;" horiz-adv-x="585" d="M304 -214q-118 0 -194 43.5t-79 117.5q-2 39 16 67t45 45.5t54 34.5t46 45.5t19 66.5h175q0 -55 -19.5 -91t-47.5 -53t-55.5 -31t-46 -36.5t-16.5 -56.5t27 -53.5t73 -19.5q40 0 74.5 30t56.5 80l122 -61q-82 -128 -250 -128zM194 359q0 43 31 74t74 31t74 -31t31 -74 t-31 -74t-74 -31t-74 31t-31 74z" />
<glyph unicode="&#xc0;" horiz-adv-x="805" d="M305 677h171l309 -677h-200l-76 160h-320l-65 -160h-104zM338 525l-112 -274h240zM291 877h146l48 -144h-100z" />
<glyph unicode="&#xc1;" horiz-adv-x="805" d="M305 677h171l309 -677h-200l-76 160h-320l-65 -160h-104zM338 525l-112 -274h240zM338 877h147l-94 -144h-100z" />
<glyph unicode="&#xc2;" horiz-adv-x="805" d="M305 677h171l309 -677h-200l-76 160h-320l-65 -160h-104zM338 525l-112 -274h240zM300 843h175l65 -110h-113l-39 67l-40 -67h-113z" />
<glyph unicode="&#xc3;" horiz-adv-x="805" d="M305 677h171l309 -677h-200l-76 160h-320l-65 -160h-104zM338 525l-112 -274h240zM440 733q-37 2 -71 25q-50 34 -89 -20l-51 38q34 48 82.5 57t94.5 -23q50 -34 89 20l51 -37q-45 -62 -106 -60z" />
<glyph unicode="&#xc4;" horiz-adv-x="805" d="M305 677h171l309 -677h-200l-76 160h-320l-65 -160h-104zM338 525l-112 -274h240zM367 811q0 -32 -23 -55t-55 -23t-55 23t-23 55t23 55t55 23t55 -23t23 -55zM564 811q0 -32 -23 -55t-55 -23t-55 23t-23 55t23 55t55 23t55 -23t23 -55z" />
<glyph unicode="&#xc5;" horiz-adv-x="805" d="M305 677h171l309 -677h-200l-76 160h-320l-65 -160h-104zM338 525l-112 -274h240zM392 693q35 0 35 47q0 23 -9.5 38t-25.5 15t-26 -14.5t-10 -38.5q0 -47 36 -47zM392 843q48 0 88 -26.5t40 -73.5t-39 -73.5t-89 -26.5t-89.5 26.5t-39.5 73.5t40 73.5t89 26.5z" />
<glyph unicode="&#xc6;" horiz-adv-x="1117" d="M394 677h682v-90h-387v-191h217v-90h-217v-214h387v-92h-579v166h-279l-91 -166h-107zM449 587l-182 -331h230v331h-48z" />
<glyph unicode="&#xc7;" horiz-adv-x="746" d="M427 599q-89 0 -141.5 -69t-52.5 -192q0 -122 53 -192t141 -70q115 0 204 91l73 -55q-116 -126 -277 -126q-82 0 -152.5 20.5t-126 62t-87 110.5t-31.5 159t31.5 159t87 110.5t125.5 62t153 20.5q100 0 174.5 -47t113.5 -123l-82 -40q-37 63 -86.5 91t-119.5 28zM389 -38 h12q42 0 72 -25.5t30 -61.5q0 -37 -30 -62.5t-72 -25.5h-148v64h61q44 0 44 34t-44 34h-61l55 136h119z" />
<glyph unicode="&#xc8;" horiz-adv-x="661" d="M40 677h581v-90h-390v-191h216v-90h-216v-216h390v-90h-581v677zM239 877h146l48 -144h-100z" />
<glyph unicode="&#xc9;" horiz-adv-x="661" d="M40 677h581v-90h-390v-191h216v-90h-216v-216h390v-90h-581v677zM286 877h147l-94 -144h-100z" />
<glyph unicode="&#xca;" horiz-adv-x="661" d="M40 677h581v-90h-390v-191h216v-90h-216v-216h390v-90h-581v677zM248 843h175l65 -110h-113l-40 67l-39 -67h-113z" />
<glyph unicode="&#xcb;" horiz-adv-x="661" d="M40 677h581v-90h-390v-191h216v-90h-216v-216h390v-90h-581v677zM315 811q0 -32 -23 -55t-55 -23t-55 23t-23 55t23 55t55 23t55 -23t23 -55zM512 811q0 -32 -23 -55t-55 -23t-55 23t-23 55t23 55t55 23t55 -23t23 -55z" />
<glyph unicode="&#xcc;" horiz-adv-x="271" d="M40 0v677h191v-677h-191zM39 877h146l48 -144h-100z" />
<glyph unicode="&#xcd;" horiz-adv-x="271" d="M40 0v677h191v-677h-191zM86 877h147l-94 -144h-100z" />
<glyph unicode="&#xce;" horiz-adv-x="271" d="M40 0v677h191v-677h-191zM48 843h175l65 -110h-113l-39 67l-40 -67h-113z" />
<glyph unicode="&#xcf;" horiz-adv-x="271" d="M40 0v677h191v-677h-191zM115 811q0 -32 -23 -55t-55 -23t-55 23t-23 55t23 55t55 23t55 -23t23 -55zM312 811q0 -32 -23 -55t-55 -23t-55 23t-23 55t23 55t55 23t55 -23t23 -55z" />
<glyph unicode="&#xd0;" horiz-adv-x="772" d="M231 90h110q104 0 157 64t53 184t-54 184.5t-160 64.5h-106v-497zM40 677h349q166 0 258.5 -84.5t93.5 -253.5q-1 -170 -93.5 -254.5t-258.5 -84.5h-349v677zM-10 313v90h334v-90h-334z" />
<glyph unicode="&#xd1;" horiz-adv-x="685" d="M40 677h179l335 -475v475h91v-677h-174l-341 491v-491h-90v677zM385 733q-37 2 -71 25q-50 34 -89 -20l-51 38q34 48 82.5 57t94.5 -23q50 -34 89 20l51 -37q-45 -62 -106 -60z" />
<glyph unicode="&#xd2;" horiz-adv-x="855" d="M427 76q195 0 195 262q0 261 -195 261q-194 0 -194 -261q0 -262 194 -262zM427 -14q-168 0 -282 95t-115 257q1 161 115 256.5t282 95.5t282 -95.5t115 -256.5q-1 -162 -115 -257t-282 -95zM300 877h147l47 -144h-100z" />
<glyph unicode="&#xd3;" horiz-adv-x="855" d="M427 76q195 0 195 262q0 261 -195 261q-194 0 -194 -261q0 -262 194 -262zM427 -14q-168 0 -282 95t-115 257q1 161 115 256.5t282 95.5t282 -95.5t115 -256.5q-1 -162 -115 -257t-282 -95zM348 877h146l-94 -144h-100z" />
<glyph unicode="&#xd4;" horiz-adv-x="855" d="M427 76q195 0 195 262q0 261 -195 261q-194 0 -194 -261q0 -262 194 -262zM427 -14q-168 0 -282 95t-115 257q1 161 115 256.5t282 95.5t282 -95.5t115 -256.5q-1 -162 -115 -257t-282 -95zM310 843h174l66 -110h-113l-40 67l-40 -67h-113z" />
<glyph unicode="&#xd5;" horiz-adv-x="855" d="M427 76q195 0 195 262q0 261 -195 261q-194 0 -194 -261q0 -262 194 -262zM427 -14q-168 0 -282 95t-115 257q1 161 115 256.5t282 95.5t282 -95.5t115 -256.5q-1 -162 -115 -257t-282 -95zM449 733q-36 2 -70 25q-50 34 -89 -20l-52 38q35 48 83 57t94 -23q50 -34 89 20 l52 -37q-45 -62 -107 -60z" />
<glyph unicode="&#xd6;" horiz-adv-x="855" d="M427 76q195 0 195 262q0 261 -195 261q-194 0 -194 -261q0 -262 194 -262zM427 -14q-168 0 -282 95t-115 257q1 161 115 256.5t282 95.5t282 -95.5t115 -256.5q-1 -162 -115 -257t-282 -95zM376 811q0 -32 -23 -55t-55 -23t-55 23t-23 55t23 55t55 23t55 -23t23 -55z M574 811q0 -32 -23 -55t-55 -23t-55 23t-23 55t23 55t55 23t55 -23t23 -55z" />
<glyph unicode="&#xd7;" horiz-adv-x="381" d="M276 488l64 -64l-86 -86l86 -86l-64 -64l-86 86l-86 -86l-64 64l87 86l-87 86l64 64l86 -86z" />
<glyph unicode="&#xd8;" horiz-adv-x="855" d="M427 76q195 0 195 262q0 261 -195 261q-194 0 -194 -261q0 -262 194 -262zM427 -14q-168 0 -282 95t-115 257q1 161 115 256.5t282 95.5t282 -95.5t115 -256.5q-1 -162 -115 -257t-282 -95zM621 676h182l-609 -676h-182z" />
<glyph unicode="&#xd9;" horiz-adv-x="777" d="M388 -14q-73 0 -129 13.5t-92.5 31t-61.5 55t-37.5 65.5t-19 83t-7.5 87.5t-1 97.5v258h191v-408q0 -84 37.5 -137t119.5 -53t119.5 53t37.5 137v408h191v-258q0 -65 -1 -97.5t-7.5 -87.5t-19 -83t-37.5 -65.5t-61.5 -55t-92.5 -31t-129 -13.5zM293 877h146l48 -144h-100 z" />
<glyph unicode="&#xda;" horiz-adv-x="777" d="M388 -14q-73 0 -129 13.5t-92.5 31t-61.5 55t-37.5 65.5t-19 83t-7.5 87.5t-1 97.5v258h191v-408q0 -84 37.5 -137t119.5 -53t119.5 53t37.5 137v408h191v-258q0 -65 -1 -97.5t-7.5 -87.5t-19 -83t-37.5 -65.5t-61.5 -55t-92.5 -31t-129 -13.5zM340 877h147l-94 -144 h-100z" />
<glyph unicode="&#xdb;" horiz-adv-x="777" d="M388 -14q-73 0 -129 13.5t-92.5 31t-61.5 55t-37.5 65.5t-19 83t-7.5 87.5t-1 97.5v258h191v-408q0 -84 37.5 -137t119.5 -53t119.5 53t37.5 137v408h191v-258q0 -65 -1 -97.5t-7.5 -87.5t-19 -83t-37.5 -65.5t-61.5 -55t-92.5 -31t-129 -13.5zM302 843h175l65 -110h-113 l-39 67l-40 -67h-113z" />
<glyph unicode="&#xdc;" horiz-adv-x="777" d="M388 -14q-73 0 -129 13.5t-92.5 31t-61.5 55t-37.5 65.5t-19 83t-7.5 87.5t-1 97.5v258h191v-408q0 -84 37.5 -137t119.5 -53t119.5 53t37.5 137v408h191v-258q0 -65 -1 -97.5t-7.5 -87.5t-19 -83t-37.5 -65.5t-61.5 -55t-92.5 -31t-129 -13.5zM369 811q0 -32 -23 -55 t-55 -23t-55 23t-23 55t23 55t55 23t55 -23t23 -55zM566 811q0 -32 -23 -55t-55 -23t-55 23t-23 55t23 55t55 23t55 -23t23 -55z" />
<glyph unicode="&#xdd;" horiz-adv-x="795" d="M260 677l202 -292l200 292h113l-263 -389v-288h-191v272l-301 405h240zM410 877h146l-94 -144h-100z" />
<glyph unicode="&#xde;" horiz-adv-x="681" d="M230 254h130q44 0 72 26.5t28 75.5q0 48 -28 74.5t-72 26.5h-130v-203zM651 356q0 -86 -55 -139t-136 -53h-230v-164h-190v677h191v-130h229q81 0 136 -53t55 -138z" />
<glyph unicode="&#xdf;" horiz-adv-x="656" d="M261 55l72 45q18 -26 45 -29.5t47.5 17t20.5 58.5q0 43 -18 73t-43.5 47.5t-51 34t-43.5 44t-18 66.5q0 45 26 81t26 70q0 26 -14 43t-34 17q-46 0 -46 -81v-542h-190v515q0 33 12.5 63.5t38 59t73 45.5t109.5 17q97 0 158.5 -43.5t61.5 -102.5q0 -34 -16.5 -60.5 t-33.5 -50t-17 -49.5q0 -22 20.5 -39t50 -31.5t58.5 -32.5t49.5 -50.5t20.5 -77.5q0 -83 -50 -129.5t-154 -46.5q-55 0 -98.5 19.5t-61.5 49.5z" />
<glyph unicode="&#xe0;" horiz-adv-x="648" d="M323 55q94 0 94 177q0 176 -94 176t-94 -176q0 -177 94 -177zM417 422v43h190v-465h-190v33q-52 -47 -135 -47q-111 0 -181.5 64t-70.5 181t70.5 181.5t181.5 64.5q81 0 135 -55zM238 664h146l48 -144h-100z" />
<glyph unicode="&#xe1;" horiz-adv-x="648" d="M323 55q94 0 94 177q0 176 -94 176t-94 -176q0 -177 94 -177zM417 422v43h190v-465h-190v33q-52 -47 -135 -47q-111 0 -181.5 64t-70.5 181t70.5 181.5t181.5 64.5q81 0 135 -55zM285 664h147l-94 -144h-100z" />
<glyph unicode="&#xe2;" horiz-adv-x="648" d="M323 55q94 0 94 177q0 176 -94 176t-94 -176q0 -177 94 -177zM417 422v43h190v-465h-190v33q-52 -47 -135 -47q-111 0 -181.5 64t-70.5 181t70.5 181.5t181.5 64.5q81 0 135 -55zM247 630h175l65 -110h-113l-40 67l-39 -67h-113z" />
<glyph unicode="&#xe3;" horiz-adv-x="648" d="M323 55q94 0 94 177q0 176 -94 176t-94 -176q0 -177 94 -177zM417 422v43h190v-465h-190v33q-52 -47 -135 -47q-111 0 -181.5 64t-70.5 181t70.5 181.5t181.5 64.5q81 0 135 -55zM387 520q-37 2 -71 25q-50 34 -89 -20l-51 38q34 48 82.5 57t94.5 -23q50 -34 89 20 l51 -37q-45 -62 -106 -60z" />
<glyph unicode="&#xe4;" horiz-adv-x="648" d="M323 55q94 0 94 177q0 176 -94 176t-94 -176q0 -177 94 -177zM417 422v43h190v-465h-190v33q-52 -47 -135 -47q-111 0 -181.5 64t-70.5 181t70.5 181.5t181.5 64.5q81 0 135 -55zM314 598q0 -32 -23 -55t-55 -23t-55 23t-23 55t23 55t55 23t55 -23t23 -55zM511 598 q0 -32 -23 -55t-55 -23t-55 23t-23 55t23 55t55 23t55 -23t23 -55z" />
<glyph unicode="&#xe5;" horiz-adv-x="648" d="M323 55q94 0 94 177q0 176 -94 176t-94 -176q0 -177 94 -177zM417 422v43h190v-465h-190v33q-52 -47 -135 -47q-111 0 -181.5 64t-70.5 181t70.5 181.5t181.5 64.5q81 0 135 -55zM345 570q35 0 35 47q0 23 -9.5 38t-25.5 15t-26 -15t-10 -38q0 -47 36 -47zM345 720 q48 0 88 -26.5t40 -73.5t-39 -73.5t-89 -26.5t-89.5 26t-39.5 74q0 47 40 73.5t89 26.5z" />
<glyph unicode="&#xe6;" horiz-adv-x="946" d="M545 262h164q0 136 -82 136t-82 -136zM213 121q9 -31 37.5 -42.5t60 -6t61.5 20.5q-8 18 -8 34v91q-91 4 -128 -23.5t-23 -73.5zM915 230v-52h-370q0 -48 27 -80.5t74 -32.5q82 0 131 63l97 -45q-63 -97 -237 -97q-61 0 -122.5 15.5t-100.5 43.5q-77 -59 -183 -59 q-93 0 -147 36.5t-54 106.5q0 84 89 125.5t245 23.5v63q0 22 -17.5 35.5t-45.5 13.5q-27 0 -45 -14t-18 -35l-180 -4q7 42 45 82q56 58 204 58q102 0 163 -36q69 36 157 36q127 0 207.5 -70.5t80.5 -176.5z" />
<glyph unicode="&#xe7;" horiz-adv-x="541" d="M423 135l88 -28q-27 -65 -76.5 -93t-131.5 -28q-54 0 -101.5 13.5t-86.5 42t-61.5 77.5t-22.5 114q0 126 76 185t196 59q141 0 206 -113l-78 -49q-49 81 -113 81q-43 0 -73.5 -43t-30.5 -122q0 -80 30.5 -123t73.5 -43q37 0 64.5 19t40.5 51zM307 -38h12q42 0 72 -25.5 t30 -61.5q0 -37 -30 -62.5t-72 -25.5h-148v64h61q44 0 44 34t-44 34h-61l55 136h119z" />
<glyph unicode="&#xe8;" d="M236 262h164q0 136 -82 136t-82 -136zM318 477q127 0 207.5 -70.5t80.5 -175.5v-53h-370q0 -48 27 -80.5t74 -32.5q81 0 131 63l97 -45q-64 -97 -237 -97q-83 0 -148.5 25t-107.5 81.5t-42 138.5q0 105 80.5 175.5t207.5 70.5zM229 664h146l48 -144h-100z" />
<glyph unicode="&#xe9;" d="M236 262h164q0 136 -82 136t-82 -136zM318 477q127 0 207.5 -70.5t80.5 -175.5v-53h-370q0 -48 27 -80.5t74 -32.5q81 0 131 63l97 -45q-64 -97 -237 -97q-83 0 -148.5 25t-107.5 81.5t-42 138.5q0 105 80.5 175.5t207.5 70.5zM276 664h147l-94 -144h-100z" />
<glyph unicode="&#xea;" d="M236 262h164q0 136 -82 136t-82 -136zM318 477q127 0 207.5 -70.5t80.5 -175.5v-53h-370q0 -48 27 -80.5t74 -32.5q81 0 131 63l97 -45q-64 -97 -237 -97q-83 0 -148.5 25t-107.5 81.5t-42 138.5q0 105 80.5 175.5t207.5 70.5zM238 630h175l65 -110h-113l-40 67l-39 -67 h-113z" />
<glyph unicode="&#xeb;" d="M236 262h164q0 136 -82 136t-82 -136zM318 477q127 0 207.5 -70.5t80.5 -175.5v-53h-370q0 -48 27 -80.5t74 -32.5q81 0 131 63l97 -45q-64 -97 -237 -97q-83 0 -148.5 25t-107.5 81.5t-42 138.5q0 105 80.5 175.5t207.5 70.5zM305 598q0 -32 -23 -55t-55 -23t-55 23 t-23 55t23 55t55 23t55 -23t23 -55zM502 598q0 -32 -23 -55t-55 -23t-55 23t-23 55t23 55t55 23t55 -23t23 -55z" />
<glyph unicode="&#xec;" horiz-adv-x="272" d="M41 0v464h190v-464h-190zM40 664h147l47 -144h-100z" />
<glyph unicode="&#xed;" horiz-adv-x="272" d="M41 0v464h190v-464h-190zM88 664h146l-94 -144h-100z" />
<glyph unicode="&#xee;" horiz-adv-x="272" d="M41 0v464h190v-464h-190zM50 630h174l66 -110h-113l-40 67l-40 -67h-113z" />
<glyph unicode="&#xef;" horiz-adv-x="272" d="M41 0v464h190v-464h-190zM116 598q0 -32 -23 -55t-55 -23t-55 23t-23 55t23 55t55 23t55 -23t23 -55zM314 598q0 -32 -23 -55t-55 -23t-55 23t-23 55t23 55t55 23t55 -23t23 -55z" />
<glyph unicode="&#xf0;" horiz-adv-x="639" d="M456 703l67 -67l-216 -129l-67 67zM418 232q0 177 -94 177t-94 -177q0 -176 94 -176t94 176zM609 302q0 -152 -79 -234t-227 -82q-131 0 -202 63t-71 183q0 118 70.5 182t182.5 64q85 0 135 -47q-3 6 -9.5 17.5t-27 42t-41.5 56.5t-52 55.5t-60 45.5l140 72 q10 -8 26 -22.5t57.5 -60.5t73.5 -93t58 -113.5t26 -128.5z" />
<glyph unicode="&#xf1;" horiz-adv-x="635" d="M595 238v-238h-200v279q0 63 -19 89.5t-63 26.5q-37 0 -59.5 -26t-22.5 -78v-291h-191v464h190v-47q64 61 158 61q207 0 207 -240zM340 520q-37 2 -71 25q-50 34 -89 -20l-51 38q34 48 82.5 57t94.5 -23q50 -34 89 20l51 -37q-45 -62 -106 -60z" />
<glyph unicode="&#xf2;" d="M319 55q87 0 87 165v24q0 164 -87 164t-87 -164v-24q0 -165 87 -165zM319 477q120 0 204 -63t84 -182q0 -117 -84.5 -181.5t-203.5 -64.5t-203.5 64.5t-84.5 181.5q0 119 84 182t204 63zM227 664h146l48 -144h-100z" />
<glyph unicode="&#xf3;" d="M319 55q87 0 87 165v24q0 164 -87 164t-87 -164v-24q0 -165 87 -165zM319 477q120 0 204 -63t84 -182q0 -117 -84.5 -181.5t-203.5 -64.5t-203.5 64.5t-84.5 181.5q0 119 84 182t204 63zM274 664h147l-94 -144h-100z" />
<glyph unicode="&#xf4;" d="M319 55q87 0 87 165v24q0 164 -87 164t-87 -164v-24q0 -165 87 -165zM319 477q120 0 204 -63t84 -182q0 -117 -84.5 -181.5t-203.5 -64.5t-203.5 64.5t-84.5 181.5q0 119 84 182t204 63zM236 630h175l65 -110h-113l-40 67l-39 -67h-113z" />
<glyph unicode="&#xf5;" d="M319 55q87 0 87 165v24q0 164 -87 164t-87 -164v-24q0 -165 87 -165zM319 477q120 0 204 -63t84 -182q0 -117 -84.5 -181.5t-203.5 -64.5t-203.5 64.5t-84.5 181.5q0 119 84 182t204 63zM376 520q-37 2 -71 25q-50 34 -89 -20l-51 38q34 48 82.5 57t94.5 -23 q50 -34 89 20l51 -37q-45 -62 -106 -60z" />
<glyph unicode="&#xf6;" d="M319 55q87 0 87 165v24q0 164 -87 164t-87 -164v-24q0 -165 87 -165zM319 477q120 0 204 -63t84 -182q0 -117 -84.5 -181.5t-203.5 -64.5t-203.5 64.5t-84.5 181.5q0 119 84 182t204 63zM302 598q0 -32 -23 -55t-55 -23t-55 23t-23 55t23 55t55 23t55 -23t23 -55z M499 598q0 -32 -23 -55t-55 -23t-55 23t-23 55t23 55t55 23t55 -23t23 -55z" />
<glyph unicode="&#xf7;" horiz-adv-x="415" d="M41 293v90h334v-90h-334zM265 489q0 -24 -16.5 -41t-40.5 -17t-40.5 17t-16.5 41q0 23 16.5 40t40.5 17t40.5 -17t16.5 -40zM265 187q0 -23 -16.5 -40t-40.5 -17t-40.5 17t-16.5 40q0 24 16.5 41t40.5 17t40.5 -17t16.5 -41z" />
<glyph unicode="&#xf8;" d="M319 55q87 0 87 165v24q0 164 -87 164t-87 -164v-24q0 -165 87 -165zM319 477q120 0 204 -63t84 -182q0 -117 -84.5 -181.5t-203.5 -64.5t-203.5 64.5t-84.5 181.5q0 119 84 182t204 63zM458 464h92l-375 -464h-92z" />
<glyph unicode="&#xf9;" horiz-adv-x="635" d="M40 226v238h200v-279q0 -62 19 -89t63 -27q37 0 59.5 26t22.5 78v291h191v-464h-190v48q-63 -61 -158 -61q-207 0 -207 239zM231 664h147l47 -144h-100z" />
<glyph unicode="&#xfa;" horiz-adv-x="635" d="M40 226v238h200v-279q0 -62 19 -89t63 -27q37 0 59.5 26t22.5 78v291h191v-464h-190v48q-63 -61 -158 -61q-207 0 -207 239zM279 664h146l-94 -144h-100z" />
<glyph unicode="&#xfb;" horiz-adv-x="635" d="M40 226v238h200v-279q0 -62 19 -89t63 -27q37 0 59.5 26t22.5 78v291h191v-464h-190v48q-63 -61 -158 -61q-207 0 -207 239zM241 630h174l66 -110h-113l-40 67l-40 -67h-113z" />
<glyph unicode="&#xfc;" horiz-adv-x="635" d="M40 226v238h200v-279q0 -62 19 -89t63 -27q37 0 59.5 26t22.5 78v291h191v-464h-190v48q-63 -61 -158 -61q-207 0 -207 239zM307 598q0 -32 -23 -55t-55 -23t-55 23t-23 55t23 55t55 23t55 -23t23 -55zM505 598q0 -32 -23 -55t-55 -23t-55 23t-23 55t23 55t55 23t55 -23 t23 -55z" />
<glyph unicode="&#xfd;" horiz-adv-x="636" d="M596 465v-447q0 -121 -75 -187t-212 -66q-180 0 -233 133l133 26q7 -31 33 -53.5t65 -22.5q98 0 98 138v62q-63 -61 -157 -61q-207 0 -207 240v238h200v-279q0 -63 19 -89.5t63 -26.5q37 0 59.5 26t22.5 78v291h191zM273 664h146l-94 -144h-100z" />
<glyph unicode="&#xfe;" horiz-adv-x="649" d="M232 234q0 -176 93 -176q94 0 94 176t-94 176q-93 0 -93 -176zM41 -210v887h191v-253q51 55 134 55q113 0 182.5 -61.5t69.5 -183.5q0 -117 -70.5 -181.5t-181.5 -64.5q-84 0 -134 47v-245h-191z" />
<glyph unicode="&#xff;" horiz-adv-x="636" d="M596 465v-447q0 -121 -75 -187t-212 -66q-180 0 -233 133l133 26q7 -31 33 -53.5t65 -22.5q98 0 98 138v62q-63 -61 -157 -61q-207 0 -207 240v238h200v-279q0 -63 19 -89.5t63 -26.5q37 0 59.5 26t22.5 78v291h191zM301 598q0 -32 -23 -55t-55 -23t-55 23t-23 55t23 55 t55 23t55 -23t23 -55zM499 598q0 -32 -23 -55t-55 -23t-55 23t-23 55t23 55t55 23t55 -23t23 -55z" />
<glyph unicode="&#x152;" horiz-adv-x="1188" d="M233 338q0 -261 194 -261q47 0 84 18t56 50v386q-19 32 -56 50.5t-84 18.5q-194 0 -194 -262zM1148 677v-90h-390v-191h216v-90h-216v-216h390v-90h-604q-58 -14 -117 -14q-168 0 -282 95.5t-115 257.5q1 161 115 256.5t282 95.5q59 0 117 -14h604z" />
<glyph unicode="&#x153;" horiz-adv-x="1007" d="M607 262h164q0 136 -82 136q-40 0 -61 -31t-21 -105zM406 220v24q0 164 -87 164t-87 -164v-24q0 -165 87 -165t87 165zM977 231v-53h-370q0 -48 27 -80.5t74 -32.5q80 0 130 63l97 -45q-64 -97 -236 -97q-114 0 -197 63q-85 -63 -183 -63q-119 0 -203.5 64.5t-84.5 181.5 q0 119 84 182t204 63q112 0 187 -61q72 61 183 61q127 0 207.5 -70.5t80.5 -175.5z" />
<glyph unicode="&#x178;" horiz-adv-x="795" d="M260 677l202 -292l200 292h113l-263 -389v-288h-191v272l-301 405h240zM438 811q0 -32 -23 -55t-55 -23t-55 23t-23 55t23 55t55 23t55 -23t23 -55zM636 811q0 -32 -23 -55t-55 -23t-55 23t-23 55t23 55t55 23t55 -23t23 -55z" />
<glyph unicode="&#x2c6;" horiz-adv-x="246" d="M36 630h175l65 -110h-113l-40 67l-40 -67h-113z" />
<glyph unicode="&#x2dc;" horiz-adv-x="318" d="M212 520q-37 2 -71 25q-50 34 -89 -20l-52 38q35 48 83 57t94 -23q50 -34 89 20l52 -37q-45 -62 -106 -60z" />
<glyph unicode="&#x2000;" horiz-adv-x="444" />
<glyph unicode="&#x2001;" horiz-adv-x="889" />
<glyph unicode="&#x2002;" horiz-adv-x="444" />
<glyph unicode="&#x2003;" horiz-adv-x="889" />
<glyph unicode="&#x2004;" horiz-adv-x="296" />
<glyph unicode="&#x2005;" horiz-adv-x="222" />
<glyph unicode="&#x2006;" horiz-adv-x="148" />
<glyph unicode="&#x2007;" horiz-adv-x="148" />
<glyph unicode="&#x2008;" horiz-adv-x="111" />
<glyph unicode="&#x2009;" horiz-adv-x="177" />
<glyph unicode="&#x200a;" horiz-adv-x="49" />
<glyph unicode="&#x2010;" horiz-adv-x="415" d="M41 263v90h334v-90h-334z" />
<glyph unicode="&#x2011;" horiz-adv-x="415" d="M41 263v90h334v-90h-334z" />
<glyph unicode="&#x2012;" horiz-adv-x="415" d="M41 263v90h334v-90h-334z" />
<glyph unicode="&#x2013;" horiz-adv-x="500" d="M40 268v80h419v-80h-419z" />
<glyph unicode="&#x2014;" horiz-adv-x="696" d="M40 348h616v-80h-616v80z" />
<glyph unicode="&#x2018;" horiz-adv-x="170" d="M159 465h-149l58 212h91v-212z" />
<glyph unicode="&#x2019;" horiz-adv-x="170" d="M10 677h149l-57 -212h-92v212z" />
<glyph unicode="&#x201a;" horiz-adv-x="190" d="M20 60h149l-57 -212h-92v212z" />
<glyph unicode="&#x201c;" horiz-adv-x="339" d="M159 465h-149l58 212h91v-212zM329 465h-150l58 212h92v-212z" />
<glyph unicode="&#x201d;" horiz-adv-x="339" d="M10 676h149l-57 -212h-92v212zM179 676h150l-58 -212h-92v212z" />
<glyph unicode="&#x201e;" horiz-adv-x="359" d="M20 60h149l-57 -212h-92v212zM189 60h150l-58 -212h-92v212z" />
<glyph unicode="&#x2022;" horiz-adv-x="395" d="M365 338q0 -69 -49 -118t-119 -49q-69 0 -118 49t-49 118t49 118t118 49q70 0 119 -49t49 -118z" />
<glyph unicode="&#x2026;" horiz-adv-x="796" d="M250 105q0 -43 -31 -74t-74 -31t-74 31t-31 74t31 74t74 31t74 -31t31 -74zM503 105q0 -43 -30.5 -74t-74.5 -31t-74.5 31t-30.5 74t30.5 74t74.5 31t74.5 -31t30.5 -74zM756 105q0 -43 -31 -74t-74 -31t-74 31t-31 74t31 74t74 31t74 -31t31 -74z" />
<glyph unicode="&#x202f;" horiz-adv-x="177" />
<glyph unicode="&#x2039;" horiz-adv-x="270" d="M115 318h115l-85 -85l85 -85h-115l-85 85z" />
<glyph unicode="&#x203a;" horiz-adv-x="270" d="M40 318h115l85 -85l-85 -85h-115l85 85z" />
<glyph unicode="&#x205f;" horiz-adv-x="222" />
<glyph unicode="&#x20ac;" horiz-adv-x="728" d="M470 76q100 0 140 79h88l-15 -26q-82 -143 -233 -143q-118 0 -201.5 63.5t-111.5 178.5h-107l45 90h50v20v20h-82l45 90h49q28 115 111.5 178.5t201.5 63.5q54 0 95 -14t69.5 -42.5t47 -59t36.5 -75.5h-92q-19 50 -50.5 75t-85.5 25q-49 0 -83.5 -38t-49.5 -113h250 l-45 -90h-214v-20v-20h194l-45 -90h-140q15 -75 49.5 -113.5t83.5 -38.5z" />
<glyph unicode="&#x2122;" horiz-adv-x="921" d="M760 677h121v-382h-137v171l-72 -144h-73l-86 146v-173h-81v301h-122v-301h-138v301h-132v81h500l118 -203z" />
<glyph unicode="&#x25fc;" horiz-adv-x="465" d="M0 465h465v-465h-465v465z" />
</font>
</defs>
</svg>
